0
SECTION
2
TABLES
0
TABLE
2
LAYER
70
1
0
LAYER
2
GOLF_PUTTER
62
1
70
0
6
CONTINUOUS
0
ENDTAB
0
ENDSEC
0
SECTION
2
ENTITIES
0
3DFACE
8
GOLF_PUTTER
62
3
10
0.00520785
20
0.000571698
30
0.0922327
11
0.00539156
21
-0.00082374
31
0.11936
12
0.00539156
22
-0.00082374
32
0.0922327
13
0.00539156
23
-0.00082374
33
0.0922327
0
3DFACE
8
GOLF_PUTTER
62
3
10
0.00520785
20
0.000571698
30
0.11936
11
0.00539156
21
-0.00082374
31
0.11936
12
0.00520785
22
0.000571698
32
0.0922327
13
0.00520785
23
0.000571698
33
0.0922327
0
3DFACE
8
GOLF_PUTTER
62
3
10
0.00466923
20
0.00187204
30
0.0922327
11
0.00520785
21
0.000571698
31
0.11936
12
0.00520785
22
0.000571698
32
0.0922327
13
0.00520785
23
0.000571698
33
0.0922327
0
3DFACE
8
GOLF_PUTTER
62
3
10
0.00466923
20
0.00187204
30
0.11936
11
0.00520785
21
0.000571698
31
0.11936
12
0.00466923
22
0.00187204
32
0.0922327
13
0.00466923
23
0.00187204
33
0.0922327
0
3DFACE
8
GOLF_PUTTER
62
3
10
0.00381241
20
0.00298867
30
0.0922327
11
0.00466923
21
0.00187204
31
0.11936
12
0.00466923
22
0.00187204
32
0.0922327
13
0.00466923
23
0.00187204
33
0.0922327
0
3DFACE
8
GOLF_PUTTER
62
3
10
0.00381241
20
0.00298867
30
0.11936
11
0.00466923
21
0.00187204
31
0.11936
12
0.00381241
22
0.00298867
32
0.0922327
13
0.00381241
23
0.00298867
33
0.0922327
0
3DFACE
8
GOLF_PUTTER
62
3
10
0.00269578
20
0.00384549
30
0.0922327
11
0.00381241
21
0.00298867
31
0.11936
12
0.00381241
22
0.00298867
32
0.0922327
13
0.00381241
23
0.00298867
33
0.0922327
0
3DFACE
8
GOLF_PUTTER
62
3
10
0.00269578
20
0.00384549
30
0.11936
11
0.00381241
21
0.00298867
31
0.11936
12
0.00269578
22
0.00384549
32
0.0922327
13
0.00269578
23
0.00384549
33
0.0922327
0
3DFACE
8
GOLF_PUTTER
62
3
10
0.00139544
20
0.00438411
30
0.0922327
11
0.00269578
21
0.00384549
31
0.11936
12
0.00269578
22
0.00384549
32
0.0922327
13
0.00269578
23
0.00384549
33
0.0922327
0
3DFACE
8
GOLF_PUTTER
62
3
10
0.00139544
20
0.00438411
30
0.11936
11
0.00269578
21
0.00384549
31
0.11936
12
0.00139544
22
0.00438411
32
0.0922327
13
0.00139544
23
0.00438411
33
0.0922327
0
3DFACE
8
GOLF_PUTTER
62
3
10
-2.61934e-010
20
0.00456782
30
0.0922327
11
0.00139544
21
0.00438411
31
0.11936
12
0.00139544
22
0.00438411
32
0.0922327
13
0.00139544
23
0.00438411
33
0.0922327
0
3DFACE
8
GOLF_PUTTER
62
3
10
-2.61934e-010
20
0.00456782
30
0.11936
11
0.00139544
21
0.00438411
31
0.11936
12
-2.61934e-010
22
0.00456782
32
0.0922327
13
-2.61934e-010
23
0.00456782
33
0.0922327
0
3DFACE
8
GOLF_PUTTER
62
3
10
-0.00139544
20
0.00438411
30
0.11936
11
-2.61934e-010
21
0.00456782
31
0.0922327
12
-0.00139544
22
0.00438411
32
0.0922327
13
-0.00139544
23
0.00438411
33
0.0922327
0
3DFACE
8
GOLF_PUTTER
62
3
10
-0.00139544
20
0.00438411
30
0.11936
11
-2.61934e-010
21
0.00456782
31
0.11936
12
-2.61934e-010
22
0.00456782
32
0.0922327
13
-2.61934e-010
23
0.00456782
33
0.0922327
0
3DFACE
8
GOLF_PUTTER
62
3
10
-0.00269578
20
0.00384549
30
0.11936
11
-0.00139544
21
0.00438411
31
0.0922327
12
-0.00269578
22
0.00384549
32
0.0922327
13
-0.00269578
23
0.00384549
33
0.0922327
0
3DFACE
8
GOLF_PUTTER
62
3
10
-0.00269578
20
0.00384549
30
0.11936
11
-0.00139544
21
0.00438411
31
0.11936
12
-0.00139544
22
0.00438411
32
0.0922327
13
-0.00139544
23
0.00438411
33
0.0922327
0
3DFACE
8
GOLF_PUTTER
62
3
10
-0.00381241
20
0.00298867
30
0.11936
11
-0.00269578
21
0.00384549
31
0.0922327
12
-0.00381241
22
0.00298867
32
0.0922327
13
-0.00381241
23
0.00298867
33
0.0922327
0
3DFACE
8
GOLF_PUTTER
62
3
10
-0.00381241
20
0.00298867
30
0.11936
11
-0.00269578
21
0.00384549
31
0.11936
12
-0.00269578
22
0.00384549
32
0.0922327
13
-0.00269578
23
0.00384549
33
0.0922327
0
3DFACE
8
GOLF_PUTTER
62
3
10
-0.00466923
20
0.00187204
30
0.11936
11
-0.00381241
21
0.00298867
31
0.0922327
12
-0.00466923
22
0.00187204
32
0.0922327
13
-0.00466923
23
0.00187204
33
0.0922327
0
3DFACE
8
GOLF_PUTTER
62
3
10
-0.00466923
20
0.00187204
30
0.11936
11
-0.00381241
21
0.00298867
31
0.11936
12
-0.00381241
22
0.00298867
32
0.0922327
13
-0.00381241
23
0.00298867
33
0.0922327
0
3DFACE
8
GOLF_PUTTER
62
3
10
-0.00520785
20
0.000571698
30
0.11936
11
-0.00466923
21
0.00187204
31
0.0922327
12
-0.00520785
22
0.000571698
32
0.0922327
13
-0.00520785
23
0.000571698
33
0.0922327
0
3DFACE
8
GOLF_PUTTER
62
3
10
-0.00520785
20
0.000571698
30
0.11936
11
-0.00466923
21
0.00187204
31
0.11936
12
-0.00466923
22
0.00187204
32
0.0922327
13
-0.00466923
23
0.00187204
33
0.0922327
0
3DFACE
8
GOLF_PUTTER
62
3
10
-0.00539156
20
-0.00082374
30
0.11936
11
-0.00520785
21
0.000571698
31
0.0922327
12
-0.00539156
22
-0.00082374
32
0.0922327
13
-0.00539156
23
-0.00082374
33
0.0922327
0
3DFACE
8
GOLF_PUTTER
62
3
10
-0.00539156
20
-0.00082374
30
0.11936
11
-0.00520785
21
0.000571698
31
0.11936
12
-0.00520785
22
0.000571698
32
0.0922327
13
-0.00520785
23
0.000571698
33
0.0922327
0
3DFACE
8
GOLF_PUTTER
62
3
10
-0.00520785
20
-0.00221918
30
0.11936
11
-0.00539156
21
-0.00082374
31
0.0922327
12
-0.00520785
22
-0.00221918
32
0.0922327
13
-0.00520785
23
-0.00221918
33
0.0922327
0
3DFACE
8
GOLF_PUTTER
62
3
10
-0.00520785
20
-0.00221918
30
0.11936
11
-0.00539156
21
-0.00082374
31
0.11936
12
-0.00539156
22
-0.00082374
32
0.0922327
13
-0.00539156
23
-0.00082374
33
0.0922327
0
3DFACE
8
GOLF_PUTTER
62
3
10
-0.00466923
20
-0.00351952
30
0.11936
11
-0.00520785
21
-0.00221918
31
0.0922327
12
-0.00466923
22
-0.00351952
32
0.0922327
13
-0.00466923
23
-0.00351952
33
0.0922327
0
3DFACE
8
GOLF_PUTTER
62
3
10
-0.00466923
20
-0.00351952
30
0.11936
11
-0.00520785
21
-0.00221918
31
0.11936
12
-0.00520785
22
-0.00221918
32
0.0922327
13
-0.00520785
23
-0.00221918
33
0.0922327
0
3DFACE
8
GOLF_PUTTER
62
3
10
-0.00381241
20
-0.00463615
30
0.11936
11
-0.00466923
21
-0.00351952
31
0.0922327
12
-0.00381241
22
-0.00463615
32
0.0922327
13
-0.00381241
23
-0.00463615
33
0.0922327
0
3DFACE
8
GOLF_PUTTER
62
3
10
-0.00381241
20
-0.00463615
30
0.11936
11
-0.00466923
21
-0.00351952
31
0.11936
12
-0.00466923
22
-0.00351952
32
0.0922327
13
-0.00466923
23
-0.00351952
33
0.0922327
0
3DFACE
8
GOLF_PUTTER
62
3
10
-0.00269578
20
-0.00549297
30
0.11936
11
-0.00381241
21
-0.00463615
31
0.0922327
12
-0.00269578
22
-0.00549297
32
0.0922327
13
-0.00269578
23
-0.00549297
33
0.0922327
0
3DFACE
8
GOLF_PUTTER
62
3
10
-0.00269578
20
-0.00549297
30
0.11936
11
-0.00381241
21
-0.00463615
31
0.11936
12
-0.00381241
22
-0.00463615
32
0.0922327
13
-0.00381241
23
-0.00463615
33
0.0922327
0
3DFACE
8
GOLF_PUTTER
62
3
10
-0.00139544
20
-0.00603159
30
0.11936
11
-0.00269578
21
-0.00549297
31
0.0922327
12
-0.00139544
22
-0.00603159
32
0.0922327
13
-0.00139544
23
-0.00603159
33
0.0922327
0
3DFACE
8
GOLF_PUTTER
62
3
10
-0.00139544
20
-0.00603159
30
0.11936
11
-0.00269578
21
-0.00549297
31
0.11936
12
-0.00269578
22
-0.00549297
32
0.0922327
13
-0.00269578
23
-0.00549297
33
0.0922327
0
3DFACE
8
GOLF_PUTTER
62
3
10
-2.61934e-010
20
-0.0062153
30
0.11936
11
-0.00139544
21
-0.00603159
31
0.0922327
12
-2.61934e-010
22
-0.0062153
32
0.0922327
13
-2.61934e-010
23
-0.0062153
33
0.0922327
0
3DFACE
8
GOLF_PUTTER
62
3
10
-2.61934e-010
20
-0.0062153
30
0.11936
11
-0.00139544
21
-0.00603159
31
0.11936
12
-0.00139544
22
-0.00603159
32
0.0922327
13
-0.00139544
23
-0.00603159
33
0.0922327
0
3DFACE
8
GOLF_PUTTER
62
3
10
0.00139544
20
-0.00603159
30
0.0922327
11
-2.61934e-010
21
-0.0062153
31
0.11936
12
-2.61934e-010
22
-0.0062153
32
0.0922327
13
-2.61934e-010
23
-0.0062153
33
0.0922327
0
3DFACE
8
GOLF_PUTTER
62
3
10
0.00139544
20
-0.00603159
30
0.11936
11
-2.61934e-010
21
-0.0062153
31
0.11936
12
0.00139544
22
-0.00603159
32
0.0922327
13
0.00139544
23
-0.00603159
33
0.0922327
0
3DFACE
8
GOLF_PUTTER
62
3
10
0.00269578
20
-0.00549297
30
0.0922327
11
0.00139544
21
-0.00603159
31
0.11936
12
0.00139544
22
-0.00603159
32
0.0922327
13
0.00139544
23
-0.00603159
33
0.0922327
0
3DFACE
8
GOLF_PUTTER
62
3
10
0.00269578
20
-0.00549297
30
0.11936
11
0.00139544
21
-0.00603159
31
0.11936
12
0.00269578
22
-0.00549297
32
0.0922327
13
0.00269578
23
-0.00549297
33
0.0922327
0
3DFACE
8
GOLF_PUTTER
62
3
10
0.00381241
20
-0.00463615
30
0.0922327
11
0.00269578
21
-0.00549297
31
0.11936
12
0.00269578
22
-0.00549297
32
0.0922327
13
0.00269578
23
-0.00549297
33
0.0922327
0
3DFACE
8
GOLF_PUTTER
62
3
10
0.00381241
20
-0.00463615
30
0.11936
11
0.00269578
21
-0.00549297
31
0.11936
12
0.00381241
22
-0.00463615
32
0.0922327
13
0.00381241
23
-0.00463615
33
0.0922327
0
3DFACE
8
GOLF_PUTTER
62
3
10
0.00466923
20
-0.00351952
30
0.0922327
11
0.00381241
21
-0.00463615
31
0.11936
12
0.00381241
22
-0.00463615
32
0.0922327
13
0.00381241
23
-0.00463615
33
0.0922327
0
3DFACE
8
GOLF_PUTTER
62
3
10
0.00466923
20
-0.00351952
30
0.11936
11
0.00381241
21
-0.00463615
31
0.11936
12
0.00466923
22
-0.00351952
32
0.0922327
13
0.00466923
23
-0.00351952
33
0.0922327
0
3DFACE
8
GOLF_PUTTER
62
3
10
0.00520785
20
-0.00221918
30
0.0922327
11
0.00466923
21
-0.00351952
31
0.11936
12
0.00466923
22
-0.00351952
32
0.0922327
13
0.00466923
23
-0.00351952
33
0.0922327
0
3DFACE
8
GOLF_PUTTER
62
3
10
0.00520785
20
-0.00221918
30
0.11936
11
0.00466923
21
-0.00351952
31
0.11936
12
0.00520785
22
-0.00221918
32
0.0922327
13
0.00520785
23
-0.00221918
33
0.0922327
0
3DFACE
8
GOLF_PUTTER
62
3
10
0.00539156
20
-0.00082374
30
0.0922327
11
0.00520785
21
-0.00221918
31
0.11936
12
0.00520785
22
-0.00221918
32
0.0922327
13
0.00520785
23
-0.00221918
33
0.0922327
0
3DFACE
8
GOLF_PUTTER
62
3
10
0.00539156
20
-0.00082374
30
0.11936
11
0.00520785
21
-0.00221918
31
0.11936
12
0.00539156
22
-0.00082374
32
0.0922327
13
0.00539156
23
-0.00082374
33
0.0922327
0
3DFACE
8
GOLF_PUTTER
62
1
10
0.00446528
20
0.000372729
30
0.11936
11
0.006604
21
-0.00082374
31
0.649016
12
0.0046228
22
-0.00082374
32
0.11936
13
0.0046228
23
-0.00082374
33
0.11936
0
3DFACE
8
GOLF_PUTTER
62
1
10
0.00637897
20
0.000885501
30
0.649016
11
0.006604
21
-0.00082374
31
0.649016
12
0.00446528
22
0.000372729
32
0.11936
13
0.00446528
23
0.000372729
33
0.11936
0
3DFACE
8
GOLF_PUTTER
62
1
10
0.00400346
20
0.00148766
30
0.11936
11
0.00637897
21
0.000885501
31
0.649016
12
0.00446528
22
0.000372729
32
0.11936
13
0.00446528
23
0.000372729
33
0.11936
0
3DFACE
8
GOLF_PUTTER
62
1
10
0.00571923
20
0.00247826
30
0.649016
11
0.00637897
21
0.000885501
31
0.649016
12
0.00400346
22
0.00148766
32
0.11936
13
0.00400346
23
0.00148766
33
0.11936
0
3DFACE
8
GOLF_PUTTER
62
1
10
0.00326881
20
0.00244507
30
0.11936
11
0.00571923
21
0.00247826
31
0.649016
12
0.00400346
22
0.00148766
32
0.11936
13
0.00400346
23
0.00148766
33
0.11936
0
3DFACE
8
GOLF_PUTTER
62
1
10
0.00466973
20
0.00384599
30
0.649016
11
0.00571923
21
0.00247826
31
0.649016
12
0.00326881
22
0.00244507
32
0.11936
13
0.00326881
23
0.00244507
33
0.11936
0
3DFACE
8
GOLF_PUTTER
62
1
10
0.003302
20
0.00489549
30
0.649016
11
0.00466973
21
0.00384599
31
0.649016
12
0.00326881
22
0.00244507
32
0.11936
13
0.00326881
23
0.00244507
33
0.11936
0
3DFACE
8
GOLF_PUTTER
62
1
10
0.0023114
20
0.00317972
30
0.11936
11
0.003302
21
0.00489549
31
0.649016
12
0.00326881
22
0.00244507
32
0.11936
13
0.00326881
23
0.00244507
33
0.11936
0
3DFACE
8
GOLF_PUTTER
62
1
10
0.00170924
20
0.00555523
30
0.649016
11
0.003302
21
0.00489549
31
0.649016
12
0.0023114
22
0.00317972
32
0.11936
13
0.0023114
23
0.00317972
33
0.11936
0
3DFACE
8
GOLF_PUTTER
62
1
10
0.00119647
20
0.00364154
30
0.11936
11
0.00170924
21
0.00555523
31
0.649016
12
0.0023114
22
0.00317972
32
0.11936
13
0.0023114
23
0.00317972
33
0.11936
0
3DFACE
8
GOLF_PUTTER
62
1
10
-2.61934e-010
20
0.00578026
30
0.649016
11
0.00170924
21
0.00555523
31
0.649016
12
0.00119647
22
0.00364154
32
0.11936
13
0.00119647
23
0.00364154
33
0.11936
0
3DFACE
8
GOLF_PUTTER
62
1
10
-2.61934e-010
20
0.00379906
30
0.11936
11
-2.61934e-010
21
0.00578026
31
0.649016
12
0.00119647
22
0.00364154
32
0.11936
13
0.00119647
23
0.00364154
33
0.11936
0
3DFACE
8
GOLF_PUTTER
62
1
10
-2.61934e-010
20
0.00578026
30
0.649016
11
-2.61934e-010
21
0.00379906
31
0.11936
12
-0.00119647
22
0.00364154
32
0.11936
13
-0.00119647
23
0.00364154
33
0.11936
0
3DFACE
8
GOLF_PUTTER
62
1
10
-0.00170924
20
0.00555523
30
0.649016
11
-2.61934e-010
21
0.00578026
31
0.649016
12
-0.00119647
22
0.00364154
32
0.11936
13
-0.00119647
23
0.00364154
33
0.11936
0
3DFACE
8
GOLF_PUTTER
62
1
10
-0.00170924
20
0.00555523
30
0.649016
11
-0.00119647
21
0.00364154
31
0.11936
12
-0.0023114
22
0.00317972
32
0.11936
13
-0.0023114
23
0.00317972
33
0.11936
0
3DFACE
8
GOLF_PUTTER
62
1
10
-0.003302
20
0.00489549
30
0.649016
11
-0.00170924
21
0.00555523
31
0.649016
12
-0.0023114
22
0.00317972
32
0.11936
13
-0.0023114
23
0.00317972
33
0.11936
0
3DFACE
8
GOLF_PUTTER
62
1
10
-0.003302
20
0.00489549
30
0.649016
11
-0.0023114
21
0.00317972
31
0.11936
12
-0.00326881
22
0.00244507
32
0.11936
13
-0.00326881
23
0.00244507
33
0.11936
0
3DFACE
8
GOLF_PUTTER
62
1
10
-0.00466973
20
0.00384599
30
0.649016
11
-0.003302
21
0.00489549
31
0.649016
12
-0.00326881
22
0.00244507
32
0.11936
13
-0.00326881
23
0.00244507
33
0.11936
0
3DFACE
8
GOLF_PUTTER
62
1
10
-0.00571923
20
0.00247826
30
0.649016
11
-0.00466973
21
0.00384599
31
0.649016
12
-0.00326881
22
0.00244507
32
0.11936
13
-0.00326881
23
0.00244507
33
0.11936
0
3DFACE
8
GOLF_PUTTER
62
1
10
-0.00571923
20
0.00247826
30
0.649016
11
-0.00326881
21
0.00244507
31
0.11936
12
-0.00400346
22
0.00148766
32
0.11936
13
-0.00400346
23
0.00148766
33
0.11936
0
3DFACE
8
GOLF_PUTTER
62
1
10
-0.00637897
20
0.000885501
30
0.649016
11
-0.00400346
21
0.00148766
31
0.11936
12
-0.00446528
22
0.000372729
32
0.11936
13
-0.00446528
23
0.000372729
33
0.11936
0
3DFACE
8
GOLF_PUTTER
62
1
10
-0.00637897
20
0.000885501
30
0.649016
11
-0.00571923
21
0.00247826
31
0.649016
12
-0.00400346
22
0.00148766
32
0.11936
13
-0.00400346
23
0.00148766
33
0.11936
0
3DFACE
8
GOLF_PUTTER
62
1
10
-0.006604
20
-0.00082374
30
0.649016
11
-0.00446528
21
0.000372729
31
0.11936
12
-0.0046228
22
-0.00082374
32
0.11936
13
-0.0046228
23
-0.00082374
33
0.11936
0
3DFACE
8
GOLF_PUTTER
62
1
10
-0.006604
20
-0.00082374
30
0.649016
11
-0.00637897
21
0.000885501
31
0.649016
12
-0.00446528
22
0.000372729
32
0.11936
13
-0.00446528
23
0.000372729
33
0.11936
0
3DFACE
8
GOLF_PUTTER
62
1
10
-0.006604
20
-0.00082374
30
0.649016
11
-0.0046228
21
-0.00082374
31
0.11936
12
-0.00446528
22
-0.00202021
32
0.11936
13
-0.00446528
23
-0.00202021
33
0.11936
0
3DFACE
8
GOLF_PUTTER
62
1
10
-0.00637897
20
-0.00253298
30
0.649016
11
-0.006604
21
-0.00082374
31
0.649016
12
-0.00446528
22
-0.00202021
32
0.11936
13
-0.00446528
23
-0.00202021
33
0.11936
0
3DFACE
8
GOLF_PUTTER
62
1
10
-0.00637897
20
-0.00253298
30
0.649016
11
-0.00446528
21
-0.00202021
31
0.11936
12
-0.00400346
22
-0.00313514
32
0.11936
13
-0.00400346
23
-0.00313514
33
0.11936
0
3DFACE
8
GOLF_PUTTER
62
1
10
-0.00571923
20
-0.00412574
30
0.649016
11
-0.00637897
21
-0.00253298
31
0.649016
12
-0.00400346
22
-0.00313514
32
0.11936
13
-0.00400346
23
-0.00313514
33
0.11936
0
3DFACE
8
GOLF_PUTTER
62
1
10
-0.00571923
20
-0.00412574
30
0.649016
11
-0.00400346
21
-0.00313514
31
0.11936
12
-0.00326881
22
-0.00409255
32
0.11936
13
-0.00326881
23
-0.00409255
33
0.11936
0
3DFACE
8
GOLF_PUTTER
62
1
10
-0.00466973
20
-0.00549347
30
0.649016
11
-0.00571923
21
-0.00412574
31
0.649016
12
-0.00326881
22
-0.00409255
32
0.11936
13
-0.00326881
23
-0.00409255
33
0.11936
0
3DFACE
8
GOLF_PUTTER
62
1
10
-0.003302
20
-0.00654297
30
0.649016
11
-0.00466973
21
-0.00549347
31
0.649016
12
-0.00326881
22
-0.00409255
32
0.11936
13
-0.00326881
23
-0.00409255
33
0.11936
0
3DFACE
8
GOLF_PUTTER
62
1
10
-0.003302
20
-0.00654297
30
0.649016
11
-0.00326881
21
-0.00409255
31
0.11936
12
-0.0023114
22
-0.0048272
32
0.11936
13
-0.0023114
23
-0.0048272
33
0.11936
0
3DFACE
8
GOLF_PUTTER
62
1
10
-0.00170924
20
-0.00720271
30
0.649016
11
-0.0023114
21
-0.0048272
31
0.11936
12
-0.00119647
22
-0.00528902
32
0.11936
13
-0.00119647
23
-0.00528902
33
0.11936
0
3DFACE
8
GOLF_PUTTER
62
1
10
-0.00170924
20
-0.00720271
30
0.649016
11
-0.003302
21
-0.00654297
31
0.649016
12
-0.0023114
22
-0.0048272
32
0.11936
13
-0.0023114
23
-0.0048272
33
0.11936
0
3DFACE
8
GOLF_PUTTER
62
1
10
-2.61934e-010
20
-0.00742774
30
0.649016
11
-0.00119647
21
-0.00528902
31
0.11936
12
-2.61934e-010
22
-0.00544654
32
0.11936
13
-2.61934e-010
23
-0.00544654
33
0.11936
0
3DFACE
8
GOLF_PUTTER
62
1
10
-2.61934e-010
20
-0.00742774
30
0.649016
11
-0.00170924
21
-0.00720271
31
0.649016
12
-0.00119647
22
-0.00528902
32
0.11936
13
-0.00119647
23
-0.00528902
33
0.11936
0
3DFACE
8
GOLF_PUTTER
62
1
10
0.00119647
20
-0.00528902
30
0.11936
11
-2.61934e-010
21
-0.00742774
31
0.649016
12
-2.61934e-010
22
-0.00544654
32
0.11936
13
-2.61934e-010
23
-0.00544654
33
0.11936
0
3DFACE
8
GOLF_PUTTER
62
1
10
0.00170924
20
-0.00720271
30
0.649016
11
-2.61934e-010
21
-0.00742774
31
0.649016
12
0.00119647
22
-0.00528902
32
0.11936
13
0.00119647
23
-0.00528902
33
0.11936
0
3DFACE
8
GOLF_PUTTER
62
1
10
0.0023114
20
-0.0048272
30
0.11936
11
0.00170924
21
-0.00720271
31
0.649016
12
0.00119647
22
-0.00528902
32
0.11936
13
0.00119647
23
-0.00528902
33
0.11936
0
3DFACE
8
GOLF_PUTTER
62
1
10
0.003302
20
-0.00654297
30
0.649016
11
0.00170924
21
-0.00720271
31
0.649016
12
0.0023114
22
-0.0048272
32
0.11936
13
0.0023114
23
-0.0048272
33
0.11936
0
3DFACE
8
GOLF_PUTTER
62
1
10
0.00326881
20
-0.00409255
30
0.11936
11
0.003302
21
-0.00654297
31
0.649016
12
0.0023114
22
-0.0048272
32
0.11936
13
0.0023114
23
-0.0048272
33
0.11936
0
3DFACE
8
GOLF_PUTTER
62
1
10
0.00466973
20
-0.00549347
30
0.649016
11
0.003302
21
-0.00654297
31
0.649016
12
0.00326881
22
-0.00409255
32
0.11936
13
0.00326881
23
-0.00409255
33
0.11936
0
3DFACE
8
GOLF_PUTTER
62
1
10
0.00571923
20
-0.00412574
30
0.649016
11
0.00466973
21
-0.00549347
31
0.649016
12
0.00326881
22
-0.00409255
32
0.11936
13
0.00326881
23
-0.00409255
33
0.11936
0
3DFACE
8
GOLF_PUTTER
62
1
10
0.00400346
20
-0.00313514
30
0.11936
11
0.00571923
21
-0.00412574
31
0.649016
12
0.00326881
22
-0.00409255
32
0.11936
13
0.00326881
23
-0.00409255
33
0.11936
0
3DFACE
8
GOLF_PUTTER
62
1
10
0.00637897
20
-0.00253298
30
0.649016
11
0.00571923
21
-0.00412574
31
0.649016
12
0.00400346
22
-0.00313514
32
0.11936
13
0.00400346
23
-0.00313514
33
0.11936
0
3DFACE
8
GOLF_PUTTER
62
1
10
0.00446528
20
-0.00202021
30
0.11936
11
0.00637897
21
-0.00253298
31
0.649016
12
0.00400346
22
-0.00313514
32
0.11936
13
0.00400346
23
-0.00313514
33
0.11936
0
3DFACE
8
GOLF_PUTTER
62
1
10
0.006604
20
-0.00082374
30
0.649016
11
0.00637897
21
-0.00253298
31
0.649016
12
0.00446528
22
-0.00202021
32
0.11936
13
0.00446528
23
-0.00202021
33
0.11936
0
3DFACE
8
GOLF_PUTTER
62
1
10
0.0046228
20
-0.00082374
30
0.11936
11
0.006604
21
-0.00082374
31
0.649016
12
0.00446528
22
-0.00202021
32
0.11936
13
0.00446528
23
-0.00202021
33
0.11936
0
3DFACE
8
GOLF_PUTTER
62
2
10
0.00688315
20
0.0010206
30
0.649016
11
0.00712596
21
-0.00082374
31
0.662898
12
0.00712596
22
-0.00082374
32
0.649016
13
0.00712596
23
-0.00082374
33
0.649016
0
3DFACE
8
GOLF_PUTTER
62
2
10
0.00688315
20
0.0010206
30
0.662898
11
0.00712596
21
-0.00082374
31
0.662898
12
0.00688315
22
0.0010206
32
0.649016
13
0.00688315
23
0.0010206
33
0.649016
0
3DFACE
8
GOLF_PUTTER
62
2
10
0.00617126
20
0.00273924
30
0.649016
11
0.00688315
21
0.0010206
31
0.662898
12
0.00688315
22
0.0010206
32
0.649016
13
0.00688315
23
0.0010206
33
0.649016
0
3DFACE
8
GOLF_PUTTER
62
2
10
0.00617126
20
0.00273924
30
0.662898
11
0.00688315
21
0.0010206
31
0.662898
12
0.00617126
22
0.00273924
32
0.649016
13
0.00617126
23
0.00273924
33
0.649016
0
3DFACE
8
GOLF_PUTTER
62
2
10
0.00503882
20
0.00421508
30
0.649016
11
0.00617126
21
0.00273924
31
0.662898
12
0.00617126
22
0.00273924
32
0.649016
13
0.00617126
23
0.00273924
33
0.649016
0
3DFACE
8
GOLF_PUTTER
62
2
10
0.00503882
20
0.00421508
30
0.662898
11
0.00617126
21
0.00273924
31
0.662898
12
0.00503882
22
0.00421508
32
0.649016
13
0.00503882
23
0.00421508
33
0.649016
0
3DFACE
8
GOLF_PUTTER
62
2
10
0.00356298
20
0.00534752
30
0.649016
11
0.00503882
21
0.00421508
31
0.662898
12
0.00503882
22
0.00421508
32
0.649016
13
0.00503882
23
0.00421508
33
0.649016
0
3DFACE
8
GOLF_PUTTER
62
2
10
0.00356298
20
0.00534752
30
0.662898
11
0.00503882
21
0.00421508
31
0.662898
12
0.00356298
22
0.00534752
32
0.649016
13
0.00356298
23
0.00534752
33
0.649016
0
3DFACE
8
GOLF_PUTTER
62
2
10
0.00184433
20
0.00605941
30
0.649016
11
0.00356298
21
0.00534752
31
0.662898
12
0.00356298
22
0.00534752
32
0.649016
13
0.00356298
23
0.00534752
33
0.649016
0
3DFACE
8
GOLF_PUTTER
62
2
10
0.00184433
20
0.00605941
30
0.662898
11
0.00356298
21
0.00534752
31
0.662898
12
0.00184433
22
0.00605941
32
0.649016
13
0.00184433
23
0.00605941
33
0.649016
0
3DFACE
8
GOLF_PUTTER
62
2
10
-2.61934e-010
20
0.00630222
30
0.649016
11
0.00184433
21
0.00605941
31
0.662898
12
0.00184433
22
0.00605941
32
0.649016
13
0.00184433
23
0.00605941
33
0.649016
0
3DFACE
8
GOLF_PUTTER
62
2
10
-2.61934e-010
20
0.00630222
30
0.662898
11
0.00184433
21
0.00605941
31
0.662898
12
-2.61934e-010
22
0.00630222
32
0.649016
13
-2.61934e-010
23
0.00630222
33
0.649016
0
3DFACE
8
GOLF_PUTTER
62
2
10
-0.00184434
20
0.00605941
30
0.662898
11
-2.61934e-010
21
0.00630222
31
0.649016
12
-0.00184434
22
0.00605941
32
0.649016
13
-0.00184434
23
0.00605941
33
0.649016
0
3DFACE
8
GOLF_PUTTER
62
2
10
-0.00184434
20
0.00605941
30
0.662898
11
-2.61934e-010
21
0.00630222
31
0.662898
12
-2.61934e-010
22
0.00630222
32
0.649016
13
-2.61934e-010
23
0.00630222
33
0.649016
0
3DFACE
8
GOLF_PUTTER
62
2
10
-0.00356298
20
0.00534752
30
0.662898
11
-0.00184434
21
0.00605941
31
0.649016
12
-0.00356298
22
0.00534752
32
0.649016
13
-0.00356298
23
0.00534752
33
0.649016
0
3DFACE
8
GOLF_PUTTER
62
2
10
-0.00356298
20
0.00534752
30
0.662898
11
-0.00184434
21
0.00605941
31
0.662898
12
-0.00184434
22
0.00605941
32
0.649016
13
-0.00184434
23
0.00605941
33
0.649016
0
3DFACE
8
GOLF_PUTTER
62
2
10
-0.00503882
20
0.00421508
30
0.662898
11
-0.00356298
21
0.00534752
31
0.649016
12
-0.00503882
22
0.00421508
32
0.649016
13
-0.00503882
23
0.00421508
33
0.649016
0
3DFACE
8
GOLF_PUTTER
62
2
10
-0.00503882
20
0.00421508
30
0.662898
11
-0.00356298
21
0.00534752
31
0.662898
12
-0.00356298
22
0.00534752
32
0.649016
13
-0.00356298
23
0.00534752
33
0.649016
0
3DFACE
8
GOLF_PUTTER
62
2
10
-0.00617127
20
0.00273924
30
0.662898
11
-0.00503882
21
0.00421508
31
0.649016
12
-0.00617127
22
0.00273924
32
0.649016
13
-0.00617127
23
0.00273924
33
0.649016
0
3DFACE
8
GOLF_PUTTER
62
2
10
-0.00617127
20
0.00273924
30
0.662898
11
-0.00503882
21
0.00421508
31
0.662898
12
-0.00503882
22
0.00421508
32
0.649016
13
-0.00503882
23
0.00421508
33
0.649016
0
3DFACE
8
GOLF_PUTTER
62
2
10
-0.00688315
20
0.0010206
30
0.662898
11
-0.00617127
21
0.00273924
31
0.649016
12
-0.00688315
22
0.0010206
32
0.649016
13
-0.00688315
23
0.0010206
33
0.649016
0
3DFACE
8
GOLF_PUTTER
62
2
10
-0.00688315
20
0.0010206
30
0.662898
11
-0.00617127
21
0.00273924
31
0.662898
12
-0.00617127
22
0.00273924
32
0.649016
13
-0.00617127
23
0.00273924
33
0.649016
0
3DFACE
8
GOLF_PUTTER
62
2
10
-0.00712596
20
-0.00082374
30
0.662898
11
-0.00688315
21
0.0010206
31
0.649016
12
-0.00712596
22
-0.00082374
32
0.649016
13
-0.00712596
23
-0.00082374
33
0.649016
0
3DFACE
8
GOLF_PUTTER
62
2
10
-0.00712596
20
-0.00082374
30
0.662898
11
-0.00688315
21
0.0010206
31
0.662898
12
-0.00688315
22
0.0010206
32
0.649016
13
-0.00688315
23
0.0010206
33
0.649016
0
3DFACE
8
GOLF_PUTTER
62
2
10
-0.00688315
20
-0.00266808
30
0.662898
11
-0.00712596
21
-0.00082374
31
0.649016
12
-0.00688315
22
-0.00266808
32
0.649016
13
-0.00688315
23
-0.00266808
33
0.649016
0
3DFACE
8
GOLF_PUTTER
62
2
10
-0.00688315
20
-0.00266808
30
0.662898
11
-0.00712596
21
-0.00082374
31
0.662898
12
-0.00712596
22
-0.00082374
32
0.649016
13
-0.00712596
23
-0.00082374
33
0.649016
0
3DFACE
8
GOLF_PUTTER
62
2
10
-0.00617127
20
-0.00438672
30
0.662898
11
-0.00688315
21
-0.00266808
31
0.649016
12
-0.00617127
22
-0.00438672
32
0.649016
13
-0.00617127
23
-0.00438672
33
0.649016
0
3DFACE
8
GOLF_PUTTER
62
2
10
-0.00617127
20
-0.00438672
30
0.662898
11
-0.00688315
21
-0.00266808
31
0.662898
12
-0.00688315
22
-0.00266808
32
0.649016
13
-0.00688315
23
-0.00266808
33
0.649016
0
3DFACE
8
GOLF_PUTTER
62
2
10
-0.00503882
20
-0.00586256
30
0.662898
11
-0.00617127
21
-0.00438672
31
0.649016
12
-0.00503882
22
-0.00586256
32
0.649016
13
-0.00503882
23
-0.00586256
33
0.649016
0
3DFACE
8
GOLF_PUTTER
62
2
10
-0.00503882
20
-0.00586256
30
0.662898
11
-0.00617127
21
-0.00438672
31
0.662898
12
-0.00617127
22
-0.00438672
32
0.649016
13
-0.00617127
23
-0.00438672
33
0.649016
0
3DFACE
8
GOLF_PUTTER
62
2
10
-0.00356298
20
-0.00699501
30
0.662898
11
-0.00503882
21
-0.00586256
31
0.649016
12
-0.00356298
22
-0.00699501
32
0.649016
13
-0.00356298
23
-0.00699501
33
0.649016
0
3DFACE
8
GOLF_PUTTER
62
2
10
-0.00356298
20
-0.00699501
30
0.662898
11
-0.00503882
21
-0.00586256
31
0.662898
12
-0.00503882
22
-0.00586256
32
0.649016
13
-0.00503882
23
-0.00586256
33
0.649016
0
3DFACE
8
GOLF_PUTTER
62
2
10
-0.00184434
20
-0.00770689
30
0.662898
11
-0.00356298
21
-0.00699501
31
0.649016
12
-0.00184434
22
-0.00770689
32
0.649016
13
-0.00184434
23
-0.00770689
33
0.649016
0
3DFACE
8
GOLF_PUTTER
62
2
10
-0.00184434
20
-0.00770689
30
0.662898
11
-0.00356298
21
-0.00699501
31
0.662898
12
-0.00356298
22
-0.00699501
32
0.649016
13
-0.00356298
23
-0.00699501
33
0.649016
0
3DFACE
8
GOLF_PUTTER
62
2
10
-2.61934e-010
20
-0.0079497
30
0.662898
11
-0.00184434
21
-0.00770689
31
0.649016
12
-2.61934e-010
22
-0.0079497
32
0.649016
13
-2.61934e-010
23
-0.0079497
33
0.649016
0
3DFACE
8
GOLF_PUTTER
62
2
10
-2.61934e-010
20
-0.0079497
30
0.662898
11
-0.00184434
21
-0.00770689
31
0.662898
12
-0.00184434
22
-0.00770689
32
0.649016
13
-0.00184434
23
-0.00770689
33
0.649016
0
3DFACE
8
GOLF_PUTTER
62
2
10
0.00184433
20
-0.00770689
30
0.649016
11
-2.61934e-010
21
-0.0079497
31
0.662898
12
-2.61934e-010
22
-0.0079497
32
0.649016
13
-2.61934e-010
23
-0.0079497
33
0.649016
0
3DFACE
8
GOLF_PUTTER
62
2
10
0.00184433
20
-0.00770689
30
0.662898
11
-2.61934e-010
21
-0.0079497
31
0.662898
12
0.00184433
22
-0.00770689
32
0.649016
13
0.00184433
23
-0.00770689
33
0.649016
0
3DFACE
8
GOLF_PUTTER
62
2
10
0.00356298
20
-0.00699501
30
0.649016
11
0.00184433
21
-0.00770689
31
0.662898
12
0.00184433
22
-0.00770689
32
0.649016
13
0.00184433
23
-0.00770689
33
0.649016
0
3DFACE
8
GOLF_PUTTER
62
2
10
0.00356298
20
-0.00699501
30
0.662898
11
0.00184433
21
-0.00770689
31
0.662898
12
0.00356298
22
-0.00699501
32
0.649016
13
0.00356298
23
-0.00699501
33
0.649016
0
3DFACE
8
GOLF_PUTTER
62
2
10
0.00503882
20
-0.00586256
30
0.649016
11
0.00356298
21
-0.00699501
31
0.662898
12
0.00356298
22
-0.00699501
32
0.649016
13
0.00356298
23
-0.00699501
33
0.649016
0
3DFACE
8
GOLF_PUTTER
62
2
10
0.00503882
20
-0.00586256
30
0.662898
11
0.00356298
21
-0.00699501
31
0.662898
12
0.00503882
22
-0.00586256
32
0.649016
13
0.00503882
23
-0.00586256
33
0.649016
0
3DFACE
8
GOLF_PUTTER
62
2
10
0.00617126
20
-0.00438672
30
0.649016
11
0.00503882
21
-0.00586256
31
0.662898
12
0.00503882
22
-0.00586256
32
0.649016
13
0.00503882
23
-0.00586256
33
0.649016
0
3DFACE
8
GOLF_PUTTER
62
2
10
0.00617126
20
-0.00438672
30
0.662898
11
0.00503882
21
-0.00586256
31
0.662898
12
0.00617126
22
-0.00438672
32
0.649016
13
0.00617126
23
-0.00438672
33
0.649016
0
3DFACE
8
GOLF_PUTTER
62
2
10
0.00688315
20
-0.00266808
30
0.649016
11
0.00617126
21
-0.00438672
31
0.662898
12
0.00617126
22
-0.00438672
32
0.649016
13
0.00617126
23
-0.00438672
33
0.649016
0
3DFACE
8
GOLF_PUTTER
62
2
10
0.00688315
20
-0.00266808
30
0.662898
11
0.00617126
21
-0.00438672
31
0.662898
12
0.00688315
22
-0.00266808
32
0.649016
13
0.00688315
23
-0.00266808
33
0.649016
0
3DFACE
8
GOLF_PUTTER
62
2
10
0.00712596
20
-0.00082374
30
0.649016
11
0.00688315
21
-0.00266808
31
0.662898
12
0.00688315
22
-0.00266808
32
0.649016
13
0.00688315
23
-0.00266808
33
0.649016
0
3DFACE
8
GOLF_PUTTER
62
2
10
0.00712596
20
-0.00082374
30
0.662898
11
0.00688315
21
-0.00266808
31
0.662898
12
0.00712596
22
-0.00082374
32
0.649016
13
0.00712596
23
-0.00082374
33
0.649016
0
3DFACE
8
GOLF_PUTTER
62
2
10
0.00637897
20
0.000885501
30
0.662898
11
0.008255
21
-0.00082374
31
0.849738
12
0.006604
22
-0.00082374
32
0.662898
13
0.006604
23
-0.00082374
33
0.662898
0
3DFACE
8
GOLF_PUTTER
62
2
10
0.00797372
20
0.00131281
30
0.849738
11
0.008255
21
-0.00082374
31
0.849738
12
0.00637897
22
0.000885501
32
0.662898
13
0.00637897
23
0.000885501
33
0.662898
0
3DFACE
8
GOLF_PUTTER
62
2
10
0.00714904
20
0.00330376
30
0.849738
11
0.00797372
21
0.00131281
31
0.849738
12
0.00571923
22
0.00247826
32
0.662898
13
0.00571923
23
0.00247826
33
0.662898
0
3DFACE
8
GOLF_PUTTER
62
2
10
0.00571923
20
0.00247826
30
0.662898
11
0.00797372
21
0.00131281
31
0.849738
12
0.00637897
22
0.000885501
32
0.662898
13
0.00637897
23
0.000885501
33
0.662898
0
3DFACE
8
GOLF_PUTTER
62
2
10
0.00583717
20
0.00501343
30
0.849738
11
0.00714904
21
0.00330376
31
0.849738
12
0.00466973
22
0.00384599
32
0.662898
13
0.00466973
23
0.00384599
33
0.662898
0
3DFACE
8
GOLF_PUTTER
62
2
10
0.00466973
20
0.00384599
30
0.662898
11
0.00714904
21
0.00330376
31
0.849738
12
0.00571923
22
0.00247826
32
0.662898
13
0.00571923
23
0.00247826
33
0.662898
0
3DFACE
8
GOLF_PUTTER
62
2
10
0.003302
20
0.00489549
30
0.662898
11
0.0041275
21
0.0063253
31
0.849738
12
0.00466973
22
0.00384599
32
0.662898
13
0.00466973
23
0.00384599
33
0.662898
0
3DFACE
8
GOLF_PUTTER
62
2
10
0.0041275
20
0.0063253
30
0.849738
11
0.00583717
21
0.00501343
31
0.849738
12
0.00466973
22
0.00384599
32
0.662898
13
0.00466973
23
0.00384599
33
0.662898
0
3DFACE
8
GOLF_PUTTER
62
2
10
0.00170924
20
0.00555523
30
0.662898
11
0.00213655
21
0.00714998
31
0.849738
12
0.003302
22
0.00489549
32
0.662898
13
0.003302
23
0.00489549
33
0.662898
0
3DFACE
8
GOLF_PUTTER
62
2
10
0.00213655
20
0.00714998
30
0.849738
11
0.0041275
21
0.0063253
31
0.849738
12
0.003302
22
0.00489549
32
0.662898
13
0.003302
23
0.00489549
33
0.662898
0
3DFACE
8
GOLF_PUTTER
62
2
10
-2.61934e-010
20
0.00743126
30
0.849738
11
0.00213655
21
0.00714998
31
0.849738
12
0.00170924
22
0.00555523
32
0.662898
13
0.00170924
23
0.00555523
33
0.662898
0
3DFACE
8
GOLF_PUTTER
62
2
10
-2.61934e-010
20
0.00578026
30
0.662898
11
-2.61934e-010
21
0.00743126
31
0.849738
12
0.00170924
22
0.00555523
32
0.662898
13
0.00170924
23
0.00555523
33
0.662898
0
3DFACE
8
GOLF_PUTTER
62
2
10
-2.61934e-010
20
0.00743126
30
0.849738
11
-2.61934e-010
21
0.00578026
31
0.662898
12
-0.00170924
22
0.00555523
32
0.662898
13
-0.00170924
23
0.00555523
33
0.662898
0
3DFACE
8
GOLF_PUTTER
62
2
10
-0.00213655
20
0.00714998
30
0.849738
11
-2.61934e-010
21
0.00743126
31
0.849738
12
-0.00170924
22
0.00555523
32
0.662898
13
-0.00170924
23
0.00555523
33
0.662898
0
3DFACE
8
GOLF_PUTTER
62
2
10
-0.0041275
20
0.0063253
30
0.849738
11
-0.00213655
21
0.00714998
31
0.849738
12
-0.003302
22
0.00489549
32
0.662898
13
-0.003302
23
0.00489549
33
0.662898
0
3DFACE
8
GOLF_PUTTER
62
2
10
-0.00213655
20
0.00714998
30
0.849738
11
-0.00170924
21
0.00555523
31
0.662898
12
-0.003302
22
0.00489549
32
0.662898
13
-0.003302
23
0.00489549
33
0.662898
0
3DFACE
8
GOLF_PUTTER
62
2
10
-0.00583717
20
0.00501343
30
0.849738
11
-0.0041275
21
0.0063253
31
0.849738
12
-0.00466973
22
0.00384599
32
0.662898
13
-0.00466973
23
0.00384599
33
0.662898
0
3DFACE
8
GOLF_PUTTER
62
2
10
-0.0041275
20
0.0063253
30
0.849738
11
-0.003302
21
0.00489549
31
0.662898
12
-0.00466973
22
0.00384599
32
0.662898
13
-0.00466973
23
0.00384599
33
0.662898
0
3DFACE
8
GOLF_PUTTER
62
2
10
-0.00714904
20
0.00330376
30
0.849738
11
-0.00466973
21
0.00384599
31
0.662898
12
-0.00571923
22
0.00247826
32
0.662898
13
-0.00571923
23
0.00247826
33
0.662898
0
3DFACE
8
GOLF_PUTTER
62
2
10
-0.00714904
20
0.00330376
30
0.849738
11
-0.00583717
21
0.00501343
31
0.849738
12
-0.00466973
22
0.00384599
32
0.662898
13
-0.00466973
23
0.00384599
33
0.662898
0
3DFACE
8
GOLF_PUTTER
62
2
10
-0.00797372
20
0.00131281
30
0.849738
11
-0.00571923
21
0.00247826
31
0.662898
12
-0.00637897
22
0.000885501
32
0.662898
13
-0.00637897
23
0.000885501
33
0.662898
0
3DFACE
8
GOLF_PUTTER
62
2
10
-0.00797372
20
0.00131281
30
0.849738
11
-0.00714904
21
0.00330376
31
0.849738
12
-0.00571923
22
0.00247826
32
0.662898
13
-0.00571923
23
0.00247826
33
0.662898
0
3DFACE
8
GOLF_PUTTER
62
2
10
-0.008255
20
-0.00082374
30
0.849738
11
-0.00637897
21
0.000885501
31
0.662898
12
-0.006604
22
-0.00082374
32
0.662898
13
-0.006604
23
-0.00082374
33
0.662898
0
3DFACE
8
GOLF_PUTTER
62
2
10
-0.008255
20
-0.00082374
30
0.849738
11
-0.00797372
21
0.00131281
31
0.849738
12
-0.00637897
22
0.000885501
32
0.662898
13
-0.00637897
23
0.000885501
33
0.662898
0
3DFACE
8
GOLF_PUTTER
62
2
10
-0.008255
20
-0.00082374
30
0.849738
11
-0.006604
21
-0.00082374
31
0.662898
12
-0.00637897
22
-0.00253298
32
0.662898
13
-0.00637897
23
-0.00253298
33
0.662898
0
3DFACE
8
GOLF_PUTTER
62
2
10
-0.00797372
20
-0.00296029
30
0.849738
11
-0.008255
21
-0.00082374
31
0.849738
12
-0.00637897
22
-0.00253298
32
0.662898
13
-0.00637897
23
-0.00253298
33
0.662898
0
3DFACE
8
GOLF_PUTTER
62
2
10
-0.00714904
20
-0.00495124
30
0.849738
11
-0.00797372
21
-0.00296029
31
0.849738
12
-0.00571923
22
-0.00412574
32
0.662898
13
-0.00571923
23
-0.00412574
33
0.662898
0
3DFACE
8
GOLF_PUTTER
62
2
10
-0.00797372
20
-0.00296029
30
0.849738
11
-0.00637897
21
-0.00253298
31
0.662898
12
-0.00571923
22
-0.00412574
32
0.662898
13
-0.00571923
23
-0.00412574
33
0.662898
0
3DFACE
8
GOLF_PUTTER
62
2
10
-0.00583717
20
-0.00666091
30
0.849738
11
-0.00714904
21
-0.00495124
31
0.849738
12
-0.00466973
22
-0.00549347
32
0.662898
13
-0.00466973
23
-0.00549347
33
0.662898
0
3DFACE
8
GOLF_PUTTER
62
2
10
-0.00714904
20
-0.00495124
30
0.849738
11
-0.00571923
21
-0.00412574
31
0.662898
12
-0.00466973
22
-0.00549347
32
0.662898
13
-0.00466973
23
-0.00549347
33
0.662898
0
3DFACE
8
GOLF_PUTTER
62
2
10
-0.0041275
20
-0.00797278
30
0.849738
11
-0.00466973
21
-0.00549347
31
0.662898
12
-0.003302
22
-0.00654297
32
0.662898
13
-0.003302
23
-0.00654297
33
0.662898
0
3DFACE
8
GOLF_PUTTER
62
2
10
-0.0041275
20
-0.00797278
30
0.849738
11
-0.00583717
21
-0.00666091
31
0.849738
12
-0.00466973
22
-0.00549347
32
0.662898
13
-0.00466973
23
-0.00549347
33
0.662898
0
3DFACE
8
GOLF_PUTTER
62
2
10
-0.00213655
20
-0.00879746
30
0.849738
11
-0.003302
21
-0.00654297
31
0.662898
12
-0.00170924
22
-0.00720271
32
0.662898
13
-0.00170924
23
-0.00720271
33
0.662898
0
3DFACE
8
GOLF_PUTTER
62
2
10
-0.00213655
20
-0.00879746
30
0.849738
11
-0.0041275
21
-0.00797278
31
0.849738
12
-0.003302
22
-0.00654297
32
0.662898
13
-0.003302
23
-0.00654297
33
0.662898
0
3DFACE
8
GOLF_PUTTER
62
2
10
-2.61934e-010
20
-0.00907874
30
0.849738
11
-0.00170924
21
-0.00720271
31
0.662898
12
-2.61934e-010
22
-0.00742774
32
0.662898
13
-2.61934e-010
23
-0.00742774
33
0.662898
0
3DFACE
8
GOLF_PUTTER
62
2
10
-2.61934e-010
20
-0.00907874
30
0.849738
11
-0.00213655
21
-0.00879746
31
0.849738
12
-0.00170924
22
-0.00720271
32
0.662898
13
-0.00170924
23
-0.00720271
33
0.662898
0
3DFACE
8
GOLF_PUTTER
62
2
10
0.00170924
20
-0.00720271
30
0.662898
11
-2.61934e-010
21
-0.00907874
31
0.849738
12
-2.61934e-010
22
-0.00742774
32
0.662898
13
-2.61934e-010
23
-0.00742774
33
0.662898
0
3DFACE
8
GOLF_PUTTER
62
2
10
0.00213655
20
-0.00879746
30
0.849738
11
-2.61934e-010
21
-0.00907874
31
0.849738
12
0.00170924
22
-0.00720271
32
0.662898
13
0.00170924
23
-0.00720271
33
0.662898
0
3DFACE
8
GOLF_PUTTER
62
2
10
0.0041275
20
-0.00797278
30
0.849738
11
0.00213655
21
-0.00879746
31
0.849738
12
0.003302
22
-0.00654297
32
0.662898
13
0.003302
23
-0.00654297
33
0.662898
0
3DFACE
8
GOLF_PUTTER
62
2
10
0.003302
20
-0.00654297
30
0.662898
11
0.00213655
21
-0.00879746
31
0.849738
12
0.00170924
22
-0.00720271
32
0.662898
13
0.00170924
23
-0.00720271
33
0.662898
0
3DFACE
8
GOLF_PUTTER
62
2
10
0.00583717
20
-0.00666091
30
0.849738
11
0.0041275
21
-0.00797278
31
0.849738
12
0.00466973
22
-0.00549347
32
0.662898
13
0.00466973
23
-0.00549347
33
0.662898
0
3DFACE
8
GOLF_PUTTER
62
2
10
0.00466973
20
-0.00549347
30
0.662898
11
0.0041275
21
-0.00797278
31
0.849738
12
0.003302
22
-0.00654297
32
0.662898
13
0.003302
23
-0.00654297
33
0.662898
0
3DFACE
8
GOLF_PUTTER
62
2
10
0.00571923
20
-0.00412574
30
0.662898
11
0.00714904
21
-0.00495124
31
0.849738
12
0.00466973
22
-0.00549347
32
0.662898
13
0.00466973
23
-0.00549347
33
0.662898
0
3DFACE
8
GOLF_PUTTER
62
2
10
0.00714904
20
-0.00495124
30
0.849738
11
0.00583717
21
-0.00666091
31
0.849738
12
0.00466973
22
-0.00549347
32
0.662898
13
0.00466973
23
-0.00549347
33
0.662898
0
3DFACE
8
GOLF_PUTTER
62
2
10
0.00637897
20
-0.00253298
30
0.662898
11
0.00797372
21
-0.00296029
31
0.849738
12
0.00571923
22
-0.00412574
32
0.662898
13
0.00571923
23
-0.00412574
33
0.662898
0
3DFACE
8
GOLF_PUTTER
62
2
10
0.00797372
20
-0.00296029
30
0.849738
11
0.00714904
21
-0.00495124
31
0.849738
12
0.00571923
22
-0.00412574
32
0.662898
13
0.00571923
23
-0.00412574
33
0.662898
0
3DFACE
8
GOLF_PUTTER
62
2
10
0.008255
20
-0.00082374
30
0.849738
11
0.00797372
21
-0.00296029
31
0.849738
12
0.00637897
22
-0.00253298
32
0.662898
13
0.00637897
23
-0.00253298
33
0.662898
0
3DFACE
8
GOLF_PUTTER
62
2
10
0.006604
20
-0.00082374
30
0.662898
11
0.008255
21
-0.00082374
31
0.849738
12
0.00637897
22
-0.00253298
32
0.662898
13
0.00637897
23
-0.00253298
33
0.662898
0
3DFACE
8
GOLF_PUTTER
62
2
10
0.00860394
20
0.00148168
30
0.849738
11
0.00890745
21
-0.00082374
31
0.860889
12
0.00890745
22
-0.00082374
32
0.849738
13
0.00890745
23
-0.00082374
33
0.849738
0
3DFACE
8
GOLF_PUTTER
62
2
10
0.00860394
20
0.00148168
30
0.860889
11
0.00890745
21
-0.00082374
31
0.860889
12
0.00860394
22
0.00148168
32
0.849738
13
0.00860394
23
0.00148168
33
0.849738
0
3DFACE
8
GOLF_PUTTER
62
2
10
0.00771408
20
0.00362999
30
0.849738
11
0.00860394
21
0.00148168
31
0.860889
12
0.00860394
22
0.00148168
32
0.849738
13
0.00860394
23
0.00148168
33
0.849738
0
3DFACE
8
GOLF_PUTTER
62
2
10
0.00771408
20
0.00362999
30
0.860889
11
0.00860394
21
0.00148168
31
0.860889
12
0.00771408
22
0.00362999
32
0.849738
13
0.00771408
23
0.00362999
33
0.849738
0
3DFACE
8
GOLF_PUTTER
62
2
10
0.00629852
20
0.00547478
30
0.849738
11
0.00771408
21
0.00362999
31
0.860889
12
0.00771408
22
0.00362999
32
0.849738
13
0.00771408
23
0.00362999
33
0.849738
0
3DFACE
8
GOLF_PUTTER
62
2
10
0.00629852
20
0.00547478
30
0.860889
11
0.00771408
21
0.00362999
31
0.860889
12
0.00629852
22
0.00547478
32
0.849738
13
0.00629852
23
0.00547478
33
0.849738
0
3DFACE
8
GOLF_PUTTER
62
2
10
0.00445373
20
0.00689034
30
0.849738
11
0.00629852
21
0.00547478
31
0.860889
12
0.00629852
22
0.00547478
32
0.849738
13
0.00629852
23
0.00547478
33
0.849738
0
3DFACE
8
GOLF_PUTTER
62
2
10
0.00445373
20
0.00689034
30
0.860889
11
0.00629852
21
0.00547478
31
0.860889
12
0.00445373
22
0.00689034
32
0.849738
13
0.00445373
23
0.00689034
33
0.849738
0
3DFACE
8
GOLF_PUTTER
62
2
10
0.00230542
20
0.0077802
30
0.849738
11
0.00445373
21
0.00689034
31
0.860889
12
0.00445373
22
0.00689034
32
0.849738
13
0.00445373
23
0.00689034
33
0.849738
0
3DFACE
8
GOLF_PUTTER
62
2
10
0.00230542
20
0.0077802
30
0.860889
11
0.00445373
21
0.00689034
31
0.860889
12
0.00230542
22
0.0077802
32
0.849738
13
0.00230542
23
0.0077802
33
0.849738
0
3DFACE
8
GOLF_PUTTER
62
2
10
-2.61934e-010
20
0.00808371
30
0.849738
11
0.00230542
21
0.0077802
31
0.860889
12
0.00230542
22
0.0077802
32
0.849738
13
0.00230542
23
0.0077802
33
0.849738
0
3DFACE
8
GOLF_PUTTER
62
2
10
-2.61934e-010
20
0.00808371
30
0.860889
11
0.00230542
21
0.0077802
31
0.860889
12
-2.61934e-010
22
0.00808371
32
0.849738
13
-2.61934e-010
23
0.00808371
33
0.849738
0
3DFACE
8
GOLF_PUTTER
62
2
10
-0.00230542
20
0.0077802
30
0.860889
11
-2.61934e-010
21
0.00808371
31
0.849738
12
-0.00230542
22
0.0077802
32
0.849738
13
-0.00230542
23
0.0077802
33
0.849738
0
3DFACE
8
GOLF_PUTTER
62
2
10
-0.00230542
20
0.0077802
30
0.860889
11
-2.61934e-010
21
0.00808371
31
0.860889
12
-2.61934e-010
22
0.00808371
32
0.849738
13
-2.61934e-010
23
0.00808371
33
0.849738
0
3DFACE
8
GOLF_PUTTER
62
2
10
-0.00445373
20
0.00689034
30
0.860889
11
-0.00230542
21
0.0077802
31
0.849738
12
-0.00445373
22
0.00689034
32
0.849738
13
-0.00445373
23
0.00689034
33
0.849738
0
3DFACE
8
GOLF_PUTTER
62
2
10
-0.00445373
20
0.00689034
30
0.860889
11
-0.00230542
21
0.0077802
31
0.860889
12
-0.00230542
22
0.0077802
32
0.849738
13
-0.00230542
23
0.0077802
33
0.849738
0
3DFACE
8
GOLF_PUTTER
62
2
10
-0.00629852
20
0.00547478
30
0.860889
11
-0.00445373
21
0.00689034
31
0.849738
12
-0.00629852
22
0.00547478
32
0.849738
13
-0.00629852
23
0.00547478
33
0.849738
0
3DFACE
8
GOLF_PUTTER
62
2
10
-0.00629852
20
0.00547478
30
0.860889
11
-0.00445373
21
0.00689034
31
0.860889
12
-0.00445373
22
0.00689034
32
0.849738
13
-0.00445373
23
0.00689034
33
0.849738
0
3DFACE
8
GOLF_PUTTER
62
2
10
-0.00771408
20
0.00362999
30
0.860889
11
-0.00629852
21
0.00547478
31
0.849738
12
-0.00771408
22
0.00362999
32
0.849738
13
-0.00771408
23
0.00362999
33
0.849738
0
3DFACE
8
GOLF_PUTTER
62
2
10
-0.00771408
20
0.00362999
30
0.860889
11
-0.00629852
21
0.00547478
31
0.860889
12
-0.00629852
22
0.00547478
32
0.849738
13
-0.00629852
23
0.00547478
33
0.849738
0
3DFACE
8
GOLF_PUTTER
62
2
10
-0.00860394
20
0.00148168
30
0.860889
11
-0.00771408
21
0.00362999
31
0.849738
12
-0.00860394
22
0.00148168
32
0.849738
13
-0.00860394
23
0.00148168
33
0.849738
0
3DFACE
8
GOLF_PUTTER
62
2
10
-0.00860394
20
0.00148168
30
0.860889
11
-0.00771408
21
0.00362999
31
0.860889
12
-0.00771408
22
0.00362999
32
0.849738
13
-0.00771408
23
0.00362999
33
0.849738
0
3DFACE
8
GOLF_PUTTER
62
2
10
-0.00890745
20
-0.00082374
30
0.860889
11
-0.00860394
21
0.00148168
31
0.849738
12
-0.00890745
22
-0.00082374
32
0.849738
13
-0.00890745
23
-0.00082374
33
0.849738
0
3DFACE
8
GOLF_PUTTER
62
2
10
-0.00890745
20
-0.00082374
30
0.860889
11
-0.00860394
21
0.00148168
31
0.860889
12
-0.00860394
22
0.00148168
32
0.849738
13
-0.00860394
23
0.00148168
33
0.849738
0
3DFACE
8
GOLF_PUTTER
62
2
10
-0.00860394
20
-0.00312916
30
0.860889
11
-0.00890745
21
-0.00082374
31
0.849738
12
-0.00860394
22
-0.00312916
32
0.849738
13
-0.00860394
23
-0.00312916
33
0.849738
0
3DFACE
8
GOLF_PUTTER
62
2
10
-0.00860394
20
-0.00312916
30
0.860889
11
-0.00890745
21
-0.00082374
31
0.860889
12
-0.00890745
22
-0.00082374
32
0.849738
13
-0.00890745
23
-0.00082374
33
0.849738
0
3DFACE
8
GOLF_PUTTER
62
2
10
-0.00771408
20
-0.00527747
30
0.860889
11
-0.00860394
21
-0.00312916
31
0.849738
12
-0.00771408
22
-0.00527747
32
0.849738
13
-0.00771408
23
-0.00527747
33
0.849738
0
3DFACE
8
GOLF_PUTTER
62
2
10
-0.00771408
20
-0.00527747
30
0.860889
11
-0.00860394
21
-0.00312916
31
0.860889
12
-0.00860394
22
-0.00312916
32
0.849738
13
-0.00860394
23
-0.00312916
33
0.849738
0
3DFACE
8
GOLF_PUTTER
62
2
10
-0.00629852
20
-0.00712226
30
0.860889
11
-0.00771408
21
-0.00527747
31
0.849738
12
-0.00629852
22
-0.00712226
32
0.849738
13
-0.00629852
23
-0.00712226
33
0.849738
0
3DFACE
8
GOLF_PUTTER
62
2
10
-0.00629852
20
-0.00712226
30
0.860889
11
-0.00771408
21
-0.00527747
31
0.860889
12
-0.00771408
22
-0.00527747
32
0.849738
13
-0.00771408
23
-0.00527747
33
0.849738
0
3DFACE
8
GOLF_PUTTER
62
2
10
-0.00445373
20
-0.00853782
30
0.860889
11
-0.00629852
21
-0.00712226
31
0.849738
12
-0.00445373
22
-0.00853782
32
0.849738
13
-0.00445373
23
-0.00853782
33
0.849738
0
3DFACE
8
GOLF_PUTTER
62
2
10
-0.00445373
20
-0.00853782
30
0.860889
11
-0.00629852
21
-0.00712226
31
0.860889
12
-0.00629852
22
-0.00712226
32
0.849738
13
-0.00629852
23
-0.00712226
33
0.849738
0
3DFACE
8
GOLF_PUTTER
62
2
10
-0.00230542
20
-0.00942768
30
0.860889
11
-0.00445373
21
-0.00853782
31
0.849738
12
-0.00230542
22
-0.00942768
32
0.849738
13
-0.00230542
23
-0.00942768
33
0.849738
0
3DFACE
8
GOLF_PUTTER
62
2
10
-0.00230542
20
-0.00942768
30
0.860889
11
-0.00445373
21
-0.00853782
31
0.860889
12
-0.00445373
22
-0.00853782
32
0.849738
13
-0.00445373
23
-0.00853782
33
0.849738
0
3DFACE
8
GOLF_PUTTER
62
2
10
-2.61934e-010
20
-0.00973119
30
0.860889
11
-0.00230542
21
-0.00942768
31
0.849738
12
-2.61934e-010
22
-0.00973119
32
0.849738
13
-2.61934e-010
23
-0.00973119
33
0.849738
0
3DFACE
8
GOLF_PUTTER
62
2
10
-2.61934e-010
20
-0.00973119
30
0.860889
11
-0.00230542
21
-0.00942768
31
0.860889
12
-0.00230542
22
-0.00942768
32
0.849738
13
-0.00230542
23
-0.00942768
33
0.849738
0
3DFACE
8
GOLF_PUTTER
62
2
10
0.00230542
20
-0.00942768
30
0.849738
11
-2.61934e-010
21
-0.00973119
31
0.860889
12
-2.61934e-010
22
-0.00973119
32
0.849738
13
-2.61934e-010
23
-0.00973119
33
0.849738
0
3DFACE
8
GOLF_PUTTER
62
2
10
0.00230542
20
-0.00942768
30
0.860889
11
-2.61934e-010
21
-0.00973119
31
0.860889
12
0.00230542
22
-0.00942768
32
0.849738
13
0.00230542
23
-0.00942768
33
0.849738
0
3DFACE
8
GOLF_PUTTER
62
2
10
0.00445373
20
-0.00853782
30
0.849738
11
0.00230542
21
-0.00942768
31
0.860889
12
0.00230542
22
-0.00942768
32
0.849738
13
0.00230542
23
-0.00942768
33
0.849738
0
3DFACE
8
GOLF_PUTTER
62
2
10
0.00445373
20
-0.00853782
30
0.860889
11
0.00230542
21
-0.00942768
31
0.860889
12
0.00445373
22
-0.00853782
32
0.849738
13
0.00445373
23
-0.00853782
33
0.849738
0
3DFACE
8
GOLF_PUTTER
62
2
10
0.00629852
20
-0.00712226
30
0.849738
11
0.00445373
21
-0.00853782
31
0.860889
12
0.00445373
22
-0.00853782
32
0.849738
13
0.00445373
23
-0.00853782
33
0.849738
0
3DFACE
8
GOLF_PUTTER
62
2
10
0.00629852
20
-0.00712226
30
0.860889
11
0.00445373
21
-0.00853782
31
0.860889
12
0.00629852
22
-0.00712226
32
0.849738
13
0.00629852
23
-0.00712226
33
0.849738
0
3DFACE
8
GOLF_PUTTER
62
2
10
0.00771408
20
-0.00527747
30
0.849738
11
0.00629852
21
-0.00712226
31
0.860889
12
0.00629852
22
-0.00712226
32
0.849738
13
0.00629852
23
-0.00712226
33
0.849738
0
3DFACE
8
GOLF_PUTTER
62
2
10
0.00771408
20
-0.00527747
30
0.860889
11
0.00629852
21
-0.00712226
31
0.860889
12
0.00771408
22
-0.00527747
32
0.849738
13
0.00771408
23
-0.00527747
33
0.849738
0
3DFACE
8
GOLF_PUTTER
62
2
10
0.00860394
20
-0.00312916
30
0.849738
11
0.00771408
21
-0.00527747
31
0.860889
12
0.00771408
22
-0.00527747
32
0.849738
13
0.00771408
23
-0.00527747
33
0.849738
0
3DFACE
8
GOLF_PUTTER
62
2
10
0.00860394
20
-0.00312916
30
0.860889
11
0.00771408
21
-0.00527747
31
0.860889
12
0.00860394
22
-0.00312916
32
0.849738
13
0.00860394
23
-0.00312916
33
0.849738
0
3DFACE
8
GOLF_PUTTER
62
2
10
0.00890745
20
-0.00082374
30
0.849738
11
0.00860394
21
-0.00312916
31
0.860889
12
0.00860394
22
-0.00312916
32
0.849738
13
0.00860394
23
-0.00312916
33
0.849738
0
3DFACE
8
GOLF_PUTTER
62
2
10
0.00890745
20
-0.00082374
30
0.860889
11
0.00860394
21
-0.00312916
31
0.860889
12
0.00890745
22
-0.00082374
32
0.849738
13
0.00890745
23
-0.00082374
33
0.849738
0
3DFACE
8
GOLF_PUTTER
62
2
10
0.00714904
20
-0.00495124
30
0.861411
11
0.00797372
21
-0.00296029
31
0.861411
12
0.00583717
22
-0.00666091
32
0.861411
13
0.00583717
23
-0.00666091
33
0.861411
0
3DFACE
8
GOLF_PUTTER
62
2
10
0.00797372
20
-0.00296029
30
0.861411
11
0.008255
21
-0.00082374
31
0.861411
12
0.00583717
22
-0.00666091
32
0.861411
13
0.00583717
23
-0.00666091
33
0.861411
0
3DFACE
8
GOLF_PUTTER
62
2
10
0.008255
20
-0.00082374
30
0.861411
11
0.00797372
21
0.00131281
31
0.861411
12
0.00583717
22
-0.00666091
32
0.861411
13
0.00583717
23
-0.00666091
33
0.861411
0
3DFACE
8
GOLF_PUTTER
62
2
10
0.00797372
20
0.00131281
30
0.861411
11
0.00714904
21
0.00330376
31
0.861411
12
0.00583717
22
-0.00666091
32
0.861411
13
0.00583717
23
-0.00666091
33
0.861411
0
3DFACE
8
GOLF_PUTTER
62
2
10
0.00714904
20
0.00330376
30
0.861411
11
0.00583717
21
0.00501343
31
0.861411
12
0.00583717
22
-0.00666091
32
0.861411
13
0.00583717
23
-0.00666091
33
0.861411
0
3DFACE
8
GOLF_PUTTER
62
2
10
0.00583717
20
-0.00666091
30
0.861411
11
0.00583717
21
0.00501343
31
0.861411
12
0.0041275
22
-0.00797278
32
0.861411
13
0.0041275
23
-0.00797278
33
0.861411
0
3DFACE
8
GOLF_PUTTER
62
2
10
0.0041275
20
-0.00797278
30
0.861411
11
0.00583717
21
0.00501343
31
0.861411
12
0.00213655
22
-0.00879746
32
0.861411
13
0.00213655
23
-0.00879746
33
0.861411
0
3DFACE
8
GOLF_PUTTER
62
2
10
0.00213655
20
-0.00879746
30
0.861411
11
0.00583717
21
0.00501343
31
0.861411
12
-2.61934e-010
22
-0.00907874
32
0.861411
13
-2.61934e-010
23
-0.00907874
33
0.861411
0
3DFACE
8
GOLF_PUTTER
62
2
10
0.00583717
20
0.00501343
30
0.861411
11
-0.00213655
21
-0.00879746
31
0.861411
12
-2.61934e-010
22
-0.00907874
32
0.861411
13
-2.61934e-010
23
-0.00907874
33
0.861411
0
3DFACE
8
GOLF_PUTTER
62
2
10
0.00583717
20
0.00501343
30
0.861411
11
-0.0041275
21
-0.00797278
31
0.861411
12
-0.00213655
22
-0.00879746
32
0.861411
13
-0.00213655
23
-0.00879746
33
0.861411
0
3DFACE
8
GOLF_PUTTER
62
2
10
0.00583717
20
0.00501343
30
0.861411
11
-0.00583717
21
-0.00666091
31
0.861411
12
-0.0041275
22
-0.00797278
32
0.861411
13
-0.0041275
23
-0.00797278
33
0.861411
0
3DFACE
8
GOLF_PUTTER
62
2
10
0.00583717
20
0.00501343
30
0.861411
11
-0.00714904
21
-0.00495124
31
0.861411
12
-0.00583717
22
-0.00666091
32
0.861411
13
-0.00583717
23
-0.00666091
33
0.861411
0
3DFACE
8
GOLF_PUTTER
62
2
10
0.00583717
20
0.00501343
30
0.861411
11
0.0041275
21
0.0063253
31
0.861411
12
-0.00714904
22
-0.00495124
32
0.861411
13
-0.00714904
23
-0.00495124
33
0.861411
0
3DFACE
8
GOLF_PUTTER
62
2
10
0.0041275
20
0.0063253
30
0.861411
11
-0.00797372
21
-0.00296029
31
0.861411
12
-0.00714904
22
-0.00495124
32
0.861411
13
-0.00714904
23
-0.00495124
33
0.861411
0
3DFACE
8
GOLF_PUTTER
62
2
10
0.0041275
20
0.0063253
30
0.861411
11
-0.008255
21
-0.00082374
31
0.861411
12
-0.00797372
22
-0.00296029
32
0.861411
13
-0.00797372
23
-0.00296029
33
0.861411
0
3DFACE
8
GOLF_PUTTER
62
2
10
0.0041275
20
0.0063253
30
0.861411
11
0.00213655
21
0.00714998
31
0.861411
12
-0.008255
22
-0.00082374
32
0.861411
13
-0.008255
23
-0.00082374
33
0.861411
0
3DFACE
8
GOLF_PUTTER
62
2
10
0.00213655
20
0.00714998
30
0.861411
11
-2.61934e-010
21
0.00743126
31
0.861411
12
-0.008255
22
-0.00082374
32
0.861411
13
-0.008255
23
-0.00082374
33
0.861411
0
3DFACE
8
GOLF_PUTTER
62
2
10
-2.61934e-010
20
0.00743126
30
0.861411
11
-0.00797372
21
0.00131281
31
0.861411
12
-0.008255
22
-0.00082374
32
0.861411
13
-0.008255
23
-0.00082374
33
0.861411
0
3DFACE
8
GOLF_PUTTER
62
2
10
-2.61934e-010
20
0.00743126
30
0.861411
11
-0.00714904
21
0.00330376
31
0.861411
12
-0.00797372
22
0.00131281
32
0.861411
13
-0.00797372
23
0.00131281
33
0.861411
0
3DFACE
8
GOLF_PUTTER
62
2
10
-2.61934e-010
20
0.00743126
30
0.861411
11
-0.00583717
21
0.00501343
31
0.861411
12
-0.00714904
22
0.00330376
32
0.861411
13
-0.00714904
23
0.00330376
33
0.861411
0
3DFACE
8
GOLF_PUTTER
62
2
10
-0.00213655
20
0.00714998
30
0.861411
11
-0.0041275
21
0.0063253
31
0.861411
12
-0.00583717
22
0.00501343
32
0.861411
13
-0.00583717
23
0.00501343
33
0.861411
0
3DFACE
8
GOLF_PUTTER
62
2
10
-2.61934e-010
20
0.00743126
30
0.861411
11
-0.00213655
21
0.00714998
31
0.861411
12
-0.00583717
22
0.00501343
32
0.861411
13
-0.00583717
23
0.00501343
33
0.861411
0
3DFACE
8
GOLF_PUTTER
62
3
10
0.00446528
20
0.000372729
30
0.0911345
11
0.00539156
21
-0.00082374
31
0.0922327
12
0.0046228
22
-0.00082374
32
0.0911345
13
0.0046228
23
-0.00082374
33
0.0911345
0
3DFACE
8
GOLF_PUTTER
62
3
10
0.00520785
20
0.000571698
30
0.0922327
11
0.00539156
21
-0.00082374
31
0.0922327
12
0.00446528
22
0.000372729
32
0.0911345
13
0.00446528
23
0.000372729
33
0.0911345
0
3DFACE
8
GOLF_PUTTER
62
3
10
0.00400346
20
0.00148766
30
0.0911345
11
0.00520785
21
0.000571698
31
0.0922327
12
0.00446528
22
0.000372729
32
0.0911345
13
0.00446528
23
0.000372729
33
0.0911345
0
3DFACE
8
GOLF_PUTTER
62
3
10
0.00466923
20
0.00187204
30
0.0922327
11
0.00520785
21
0.000571698
31
0.0922327
12
0.00400346
22
0.00148766
32
0.0911345
13
0.00400346
23
0.00148766
33
0.0911345
0
3DFACE
8
GOLF_PUTTER
62
3
10
0.00326881
20
0.00244507
30
0.0911345
11
0.00466923
21
0.00187204
31
0.0922327
12
0.00400346
22
0.00148766
32
0.0911345
13
0.00400346
23
0.00148766
33
0.0911345
0
3DFACE
8
GOLF_PUTTER
62
3
10
0.00381241
20
0.00298867
30
0.0922327
11
0.00466923
21
0.00187204
31
0.0922327
12
0.00326881
22
0.00244507
32
0.0911345
13
0.00326881
23
0.00244507
33
0.0911345
0
3DFACE
8
GOLF_PUTTER
62
3
10
0.00269578
20
0.00384549
30
0.0922327
11
0.00381241
21
0.00298867
31
0.0922327
12
0.00326881
22
0.00244507
32
0.0911345
13
0.00326881
23
0.00244507
33
0.0911345
0
3DFACE
8
GOLF_PUTTER
62
3
10
0.0023114
20
0.00317972
30
0.0911345
11
0.00269578
21
0.00384549
31
0.0922327
12
0.00326881
22
0.00244507
32
0.0911345
13
0.00326881
23
0.00244507
33
0.0911345
0
3DFACE
8
GOLF_PUTTER
62
3
10
0.00139544
20
0.00438411
30
0.0922327
11
0.00269578
21
0.00384549
31
0.0922327
12
0.0023114
22
0.00317972
32
0.0911345
13
0.0023114
23
0.00317972
33
0.0911345
0
3DFACE
8
GOLF_PUTTER
62
3
10
0.00119647
20
0.00364154
30
0.0911345
11
0.00139544
21
0.00438411
31
0.0922327
12
0.0023114
22
0.00317972
32
0.0911345
13
0.0023114
23
0.00317972
33
0.0911345
0
3DFACE
8
GOLF_PUTTER
62
3
10
-2.61934e-010
20
0.00456782
30
0.0922327
11
0.00139544
21
0.00438411
31
0.0922327
12
0.00119647
22
0.00364154
32
0.0911345
13
0.00119647
23
0.00364154
33
0.0911345
0
3DFACE
8
GOLF_PUTTER
62
3
10
-2.61934e-010
20
0.00379906
30
0.0911345
11
-2.61934e-010
21
0.00456782
31
0.0922327
12
0.00119647
22
0.00364154
32
0.0911345
13
0.00119647
23
0.00364154
33
0.0911345
0
3DFACE
8
GOLF_PUTTER
62
3
10
-2.61934e-010
20
0.00456782
30
0.0922327
11
-2.61934e-010
21
0.00379906
31
0.0911345
12
-0.00119647
22
0.00364154
32
0.0911345
13
-0.00119647
23
0.00364154
33
0.0911345
0
3DFACE
8
GOLF_PUTTER
62
3
10
-0.00139544
20
0.00438411
30
0.0922327
11
-2.61934e-010
21
0.00456782
31
0.0922327
12
-0.00119647
22
0.00364154
32
0.0911345
13
-0.00119647
23
0.00364154
33
0.0911345
0
3DFACE
8
GOLF_PUTTER
62
3
10
-0.00139544
20
0.00438411
30
0.0922327
11
-0.00119647
21
0.00364154
31
0.0911345
12
-0.0023114
22
0.00317972
32
0.0911345
13
-0.0023114
23
0.00317972
33
0.0911345
0
3DFACE
8
GOLF_PUTTER
62
3
10
-0.00269578
20
0.00384549
30
0.0922327
11
-0.00139544
21
0.00438411
31
0.0922327
12
-0.0023114
22
0.00317972
32
0.0911345
13
-0.0023114
23
0.00317972
33
0.0911345
0
3DFACE
8
GOLF_PUTTER
62
3
10
-0.00269578
20
0.00384549
30
0.0922327
11
-0.0023114
21
0.00317972
31
0.0911345
12
-0.00326881
22
0.00244507
32
0.0911345
13
-0.00326881
23
0.00244507
33
0.0911345
0
3DFACE
8
GOLF_PUTTER
62
3
10
-0.00381241
20
0.00298867
30
0.0922327
11
-0.00269578
21
0.00384549
31
0.0922327
12
-0.00326881
22
0.00244507
32
0.0911345
13
-0.00326881
23
0.00244507
33
0.0911345
0
3DFACE
8
GOLF_PUTTER
62
3
10
-0.00466923
20
0.00187204
30
0.0922327
11
-0.00326881
21
0.00244507
31
0.0911345
12
-0.00400346
22
0.00148766
32
0.0911345
13
-0.00400346
23
0.00148766
33
0.0911345
0
3DFACE
8
GOLF_PUTTER
62
3
10
-0.00466923
20
0.00187204
30
0.0922327
11
-0.00381241
21
0.00298867
31
0.0922327
12
-0.00326881
22
0.00244507
32
0.0911345
13
-0.00326881
23
0.00244507
33
0.0911345
0
3DFACE
8
GOLF_PUTTER
62
3
10
-0.00520785
20
0.000571698
30
0.0922327
11
-0.00400346
21
0.00148766
31
0.0911345
12
-0.00446528
22
0.000372729
32
0.0911345
13
-0.00446528
23
0.000372729
33
0.0911345
0
3DFACE
8
GOLF_PUTTER
62
3
10
-0.00520785
20
0.000571698
30
0.0922327
11
-0.00466923
21
0.00187204
31
0.0922327
12
-0.00400346
22
0.00148766
32
0.0911345
13
-0.00400346
23
0.00148766
33
0.0911345
0
3DFACE
8
GOLF_PUTTER
62
3
10
-0.00539156
20
-0.00082374
30
0.0922327
11
-0.00446528
21
0.000372729
31
0.0911345
12
-0.0046228
22
-0.00082374
32
0.0911345
13
-0.0046228
23
-0.00082374
33
0.0911345
0
3DFACE
8
GOLF_PUTTER
62
3
10
-0.00539156
20
-0.00082374
30
0.0922327
11
-0.00520785
21
0.000571698
31
0.0922327
12
-0.00446528
22
0.000372729
32
0.0911345
13
-0.00446528
23
0.000372729
33
0.0911345
0
3DFACE
8
GOLF_PUTTER
62
3
10
-0.00539156
20
-0.00082374
30
0.0922327
11
-0.0046228
21
-0.00082374
31
0.0911345
12
-0.00446528
22
-0.00202021
32
0.0911345
13
-0.00446528
23
-0.00202021
33
0.0911345
0
3DFACE
8
GOLF_PUTTER
62
3
10
-0.00520785
20
-0.00221918
30
0.0922327
11
-0.00539156
21
-0.00082374
31
0.0922327
12
-0.00446528
22
-0.00202021
32
0.0911345
13
-0.00446528
23
-0.00202021
33
0.0911345
0
3DFACE
8
GOLF_PUTTER
62
3
10
-0.00520785
20
-0.00221918
30
0.0922327
11
-0.00446528
21
-0.00202021
31
0.0911345
12
-0.00400346
22
-0.00313514
32
0.0911345
13
-0.00400346
23
-0.00313514
33
0.0911345
0
3DFACE
8
GOLF_PUTTER
62
3
10
-0.00466923
20
-0.00351952
30
0.0922327
11
-0.00520785
21
-0.00221918
31
0.0922327
12
-0.00400346
22
-0.00313514
32
0.0911345
13
-0.00400346
23
-0.00313514
33
0.0911345
0
3DFACE
8
GOLF_PUTTER
62
3
10
-0.00466923
20
-0.00351952
30
0.0922327
11
-0.00400346
21
-0.00313514
31
0.0911345
12
-0.00326881
22
-0.00409255
32
0.0911345
13
-0.00326881
23
-0.00409255
33
0.0911345
0
3DFACE
8
GOLF_PUTTER
62
3
10
-0.00381241
20
-0.00463615
30
0.0922327
11
-0.00466923
21
-0.00351952
31
0.0922327
12
-0.00326881
22
-0.00409255
32
0.0911345
13
-0.00326881
23
-0.00409255
33
0.0911345
0
3DFACE
8
GOLF_PUTTER
62
3
10
-0.00269578
20
-0.00549297
30
0.0922327
11
-0.00326881
21
-0.00409255
31
0.0911345
12
-0.0023114
22
-0.0048272
32
0.0911345
13
-0.0023114
23
-0.0048272
33
0.0911345
0
3DFACE
8
GOLF_PUTTER
62
3
10
-0.00269578
20
-0.00549297
30
0.0922327
11
-0.00381241
21
-0.00463615
31
0.0922327
12
-0.00326881
22
-0.00409255
32
0.0911345
13
-0.00326881
23
-0.00409255
33
0.0911345
0
3DFACE
8
GOLF_PUTTER
62
3
10
-0.00139544
20
-0.00603159
30
0.0922327
11
-0.0023114
21
-0.0048272
31
0.0911345
12
-0.00119647
22
-0.00528902
32
0.0911345
13
-0.00119647
23
-0.00528902
33
0.0911345
0
3DFACE
8
GOLF_PUTTER
62
3
10
-0.00139544
20
-0.00603159
30
0.0922327
11
-0.00269578
21
-0.00549297
31
0.0922327
12
-0.0023114
22
-0.0048272
32
0.0911345
13
-0.0023114
23
-0.0048272
33
0.0911345
0
3DFACE
8
GOLF_PUTTER
62
3
10
-2.61934e-010
20
-0.0062153
30
0.0922327
11
-0.00119647
21
-0.00528902
31
0.0911345
12
-2.61934e-010
22
-0.00544654
32
0.0911345
13
-2.61934e-010
23
-0.00544654
33
0.0911345
0
3DFACE
8
GOLF_PUTTER
62
3
10
-2.61934e-010
20
-0.0062153
30
0.0922327
11
-0.00139544
21
-0.00603159
31
0.0922327
12
-0.00119647
22
-0.00528902
32
0.0911345
13
-0.00119647
23
-0.00528902
33
0.0911345
0
3DFACE
8
GOLF_PUTTER
62
3
10
0.00119647
20
-0.00528902
30
0.0911345
11
-2.61934e-010
21
-0.0062153
31
0.0922327
12
-2.61934e-010
22
-0.00544654
32
0.0911345
13
-2.61934e-010
23
-0.00544654
33
0.0911345
0
3DFACE
8
GOLF_PUTTER
62
3
10
0.00139544
20
-0.00603159
30
0.0922327
11
-2.61934e-010
21
-0.0062153
31
0.0922327
12
0.00119647
22
-0.00528902
32
0.0911345
13
0.00119647
23
-0.00528902
33
0.0911345
0
3DFACE
8
GOLF_PUTTER
62
3
10
0.0023114
20
-0.0048272
30
0.0911345
11
0.00139544
21
-0.00603159
31
0.0922327
12
0.00119647
22
-0.00528902
32
0.0911345
13
0.00119647
23
-0.00528902
33
0.0911345
0
3DFACE
8
GOLF_PUTTER
62
3
10
0.00269578
20
-0.00549297
30
0.0922327
11
0.00139544
21
-0.00603159
31
0.0922327
12
0.0023114
22
-0.0048272
32
0.0911345
13
0.0023114
23
-0.0048272
33
0.0911345
0
3DFACE
8
GOLF_PUTTER
62
3
10
0.00326881
20
-0.00409255
30
0.0911345
11
0.00269578
21
-0.00549297
31
0.0922327
12
0.0023114
22
-0.0048272
32
0.0911345
13
0.0023114
23
-0.0048272
33
0.0911345
0
3DFACE
8
GOLF_PUTTER
62
3
10
0.00381241
20
-0.00463615
30
0.0922327
11
0.00269578
21
-0.00549297
31
0.0922327
12
0.00326881
22
-0.00409255
32
0.0911345
13
0.00326881
23
-0.00409255
33
0.0911345
0
3DFACE
8
GOLF_PUTTER
62
3
10
0.00466923
20
-0.00351952
30
0.0922327
11
0.00381241
21
-0.00463615
31
0.0922327
12
0.00326881
22
-0.00409255
32
0.0911345
13
0.00326881
23
-0.00409255
33
0.0911345
0
3DFACE
8
GOLF_PUTTER
62
3
10
0.00400346
20
-0.00313514
30
0.0911345
11
0.00466923
21
-0.00351952
31
0.0922327
12
0.00326881
22
-0.00409255
32
0.0911345
13
0.00326881
23
-0.00409255
33
0.0911345
0
3DFACE
8
GOLF_PUTTER
62
3
10
0.00520785
20
-0.00221918
30
0.0922327
11
0.00466923
21
-0.00351952
31
0.0922327
12
0.00400346
22
-0.00313514
32
0.0911345
13
0.00400346
23
-0.00313514
33
0.0911345
0
3DFACE
8
GOLF_PUTTER
62
3
10
0.00446528
20
-0.00202021
30
0.0911345
11
0.00520785
21
-0.00221918
31
0.0922327
12
0.00400346
22
-0.00313514
32
0.0911345
13
0.00400346
23
-0.00313514
33
0.0911345
0
3DFACE
8
GOLF_PUTTER
62
3
10
0.00539156
20
-0.00082374
30
0.0922327
11
0.00520785
21
-0.00221918
31
0.0922327
12
0.00446528
22
-0.00202021
32
0.0911345
13
0.00446528
23
-0.00202021
33
0.0911345
0
3DFACE
8
GOLF_PUTTER
62
3
10
0.0046228
20
-0.00082374
30
0.0911345
11
0.00539156
21
-0.00082374
31
0.0922327
12
0.00446528
22
-0.00202021
32
0.0911345
13
0.00446528
23
-0.00202021
33
0.0911345
0
3DFACE
8
GOLF_PUTTER
62
3
10
0.00539156
20
-0.00082374
30
0.11936
11
0.00446528
21
0.000372729
31
0.11936
12
0.0046228
22
-0.00082374
32
0.11936
13
0.0046228
23
-0.00082374
33
0.11936
0
3DFACE
8
GOLF_PUTTER
62
3
10
0.00520785
20
0.000571698
30
0.11936
11
0.00446528
21
0.000372729
31
0.11936
12
0.00539156
22
-0.00082374
32
0.11936
13
0.00539156
23
-0.00082374
33
0.11936
0
3DFACE
8
GOLF_PUTTER
62
3
10
0.00466923
20
0.00187204
30
0.11936
11
0.00400346
21
0.00148766
31
0.11936
12
0.00446528
22
0.000372729
32
0.11936
13
0.00446528
23
0.000372729
33
0.11936
0
3DFACE
8
GOLF_PUTTER
62
3
10
0.00520785
20
0.000571698
30
0.11936
11
0.00466923
21
0.00187204
31
0.11936
12
0.00446528
22
0.000372729
32
0.11936
13
0.00446528
23
0.000372729
33
0.11936
0
3DFACE
8
GOLF_PUTTER
62
3
10
0.00381241
20
0.00298867
30
0.11936
11
0.00326881
21
0.00244507
31
0.11936
12
0.00400346
22
0.00148766
32
0.11936
13
0.00400346
23
0.00148766
33
0.11936
0
3DFACE
8
GOLF_PUTTER
62
3
10
0.00466923
20
0.00187204
30
0.11936
11
0.00381241
21
0.00298867
31
0.11936
12
0.00400346
22
0.00148766
32
0.11936
13
0.00400346
23
0.00148766
33
0.11936
0
3DFACE
8
GOLF_PUTTER
62
3
10
0.00381241
20
0.00298867
30
0.11936
11
0.0023114
21
0.00317972
31
0.11936
12
0.00326881
22
0.00244507
32
0.11936
13
0.00326881
23
0.00244507
33
0.11936
0
3DFACE
8
GOLF_PUTTER
62
3
10
0.00269578
20
0.00384549
30
0.11936
11
0.0023114
21
0.00317972
31
0.11936
12
0.00381241
22
0.00298867
32
0.11936
13
0.00381241
23
0.00298867
33
0.11936
0
3DFACE
8
GOLF_PUTTER
62
3
10
0.00269578
20
0.00384549
30
0.11936
11
0.00119647
21
0.00364154
31
0.11936
12
0.0023114
22
0.00317972
32
0.11936
13
0.0023114
23
0.00317972
33
0.11936
0
3DFACE
8
GOLF_PUTTER
62
3
10
0.00269578
20
0.00384549
30
0.11936
11
0.00139544
21
0.00438411
31
0.11936
12
0.00119647
22
0.00364154
32
0.11936
13
0.00119647
23
0.00364154
33
0.11936
0
3DFACE
8
GOLF_PUTTER
62
3
10
-2.61934e-010
20
0.00456782
30
0.11936
11
-2.61934e-010
21
0.00379906
31
0.11936
12
0.00119647
22
0.00364154
32
0.11936
13
0.00119647
23
0.00364154
33
0.11936
0
3DFACE
8
GOLF_PUTTER
62
3
10
0.00139544
20
0.00438411
30
0.11936
11
-2.61934e-010
21
0.00456782
31
0.11936
12
0.00119647
22
0.00364154
32
0.11936
13
0.00119647
23
0.00364154
33
0.11936
0
3DFACE
8
GOLF_PUTTER
62
3
10
-2.61934e-010
20
0.00456782
30
0.11936
11
-0.00139544
21
0.00438411
31
0.11936
12
-0.00119647
22
0.00364154
32
0.11936
13
-0.00119647
23
0.00364154
33
0.11936
0
3DFACE
8
GOLF_PUTTER
62
3
10
-2.61934e-010
20
0.00379906
30
0.11936
11
-2.61934e-010
21
0.00456782
31
0.11936
12
-0.00119647
22
0.00364154
32
0.11936
13
-0.00119647
23
0.00364154
33
0.11936
0
3DFACE
8
GOLF_PUTTER
62
3
10
-0.00119647
20
0.00364154
30
0.11936
11
-0.00269578
21
0.00384549
31
0.11936
12
-0.0023114
22
0.00317972
32
0.11936
13
-0.0023114
23
0.00317972
33
0.11936
0
3DFACE
8
GOLF_PUTTER
62
3
10
-0.00139544
20
0.00438411
30
0.11936
11
-0.00269578
21
0.00384549
31
0.11936
12
-0.00119647
22
0.00364154
32
0.11936
13
-0.00119647
23
0.00364154
33
0.11936
0
3DFACE
8
GOLF_PUTTER
62
3
10
-0.0023114
20
0.00317972
30
0.11936
11
-0.00381241
21
0.00298867
31
0.11936
12
-0.00326881
22
0.00244507
32
0.11936
13
-0.00326881
23
0.00244507
33
0.11936
0
3DFACE
8
GOLF_PUTTER
62
3
10
-0.0023114
20
0.00317972
30
0.11936
11
-0.00269578
21
0.00384549
31
0.11936
12
-0.00381241
22
0.00298867
32
0.11936
13
-0.00381241
23
0.00298867
33
0.11936
0
3DFACE
8
GOLF_PUTTER
62
3
10
-0.00381241
20
0.00298867
30
0.11936
11
-0.00466923
21
0.00187204
31
0.11936
12
-0.00400346
22
0.00148766
32
0.11936
13
-0.00400346
23
0.00148766
33
0.11936
0
3DFACE
8
GOLF_PUTTER
62
3
10
-0.00326881
20
0.00244507
30
0.11936
11
-0.00381241
21
0.00298867
31
0.11936
12
-0.00400346
22
0.00148766
32
0.11936
13
-0.00400346
23
0.00148766
33
0.11936
0
3DFACE
8
GOLF_PUTTER
62
3
10
-0.00466923
20
0.00187204
30
0.11936
11
-0.00520785
21
0.000571698
31
0.11936
12
-0.00446528
22
0.000372729
32
0.11936
13
-0.00446528
23
0.000372729
33
0.11936
0
3DFACE
8
GOLF_PUTTER
62
3
10
-0.00400346
20
0.00148766
30
0.11936
11
-0.00466923
21
0.00187204
31
0.11936
12
-0.00446528
22
0.000372729
32
0.11936
13
-0.00446528
23
0.000372729
33
0.11936
0
3DFACE
8
GOLF_PUTTER
62
3
10
-0.00446528
20
0.000372729
30
0.11936
11
-0.00539156
21
-0.00082374
31
0.11936
12
-0.0046228
22
-0.00082374
32
0.11936
13
-0.0046228
23
-0.00082374
33
0.11936
0
3DFACE
8
GOLF_PUTTER
62
3
10
-0.00446528
20
0.000372729
30
0.11936
11
-0.00520785
21
0.000571698
31
0.11936
12
-0.00539156
22
-0.00082374
32
0.11936
13
-0.00539156
23
-0.00082374
33
0.11936
0
3DFACE
8
GOLF_PUTTER
62
3
10
-0.00446528
20
-0.00202021
30
0.11936
11
-0.00539156
21
-0.00082374
31
0.11936
12
-0.00520785
22
-0.00221918
32
0.11936
13
-0.00520785
23
-0.00221918
33
0.11936
0
3DFACE
8
GOLF_PUTTER
62
3
10
-0.0046228
20
-0.00082374
30
0.11936
11
-0.00539156
21
-0.00082374
31
0.11936
12
-0.00446528
22
-0.00202021
32
0.11936
13
-0.00446528
23
-0.00202021
33
0.11936
0
3DFACE
8
GOLF_PUTTER
62
3
10
-0.00446528
20
-0.00202021
30
0.11936
11
-0.00520785
21
-0.00221918
31
0.11936
12
-0.00466923
22
-0.00351952
32
0.11936
13
-0.00466923
23
-0.00351952
33
0.11936
0
3DFACE
8
GOLF_PUTTER
62
3
10
-0.00400346
20
-0.00313514
30
0.11936
11
-0.00446528
21
-0.00202021
31
0.11936
12
-0.00466923
22
-0.00351952
32
0.11936
13
-0.00466923
23
-0.00351952
33
0.11936
0
3DFACE
8
GOLF_PUTTER
62
3
10
-0.00400346
20
-0.00313514
30
0.11936
11
-0.00466923
21
-0.00351952
31
0.11936
12
-0.00381241
22
-0.00463615
32
0.11936
13
-0.00381241
23
-0.00463615
33
0.11936
0
3DFACE
8
GOLF_PUTTER
62
3
10
-0.00326881
20
-0.00409255
30
0.11936
11
-0.00400346
21
-0.00313514
31
0.11936
12
-0.00381241
22
-0.00463615
32
0.11936
13
-0.00381241
23
-0.00463615
33
0.11936
0
3DFACE
8
GOLF_PUTTER
62
3
10
-0.0023114
20
-0.0048272
30
0.11936
11
-0.00381241
21
-0.00463615
31
0.11936
12
-0.00269578
22
-0.00549297
32
0.11936
13
-0.00269578
23
-0.00549297
33
0.11936
0
3DFACE
8
GOLF_PUTTER
62
3
10
-0.00326881
20
-0.00409255
30
0.11936
11
-0.00381241
21
-0.00463615
31
0.11936
12
-0.0023114
22
-0.0048272
32
0.11936
13
-0.0023114
23
-0.0048272
33
0.11936
0
3DFACE
8
GOLF_PUTTER
62
3
10
-0.00119647
20
-0.00528902
30
0.11936
11
-0.00269578
21
-0.00549297
31
0.11936
12
-0.00139544
22
-0.00603159
32
0.11936
13
-0.00139544
23
-0.00603159
33
0.11936
0
3DFACE
8
GOLF_PUTTER
62
3
10
-0.00119647
20
-0.00528902
30
0.11936
11
-0.0023114
21
-0.0048272
31
0.11936
12
-0.00269578
22
-0.00549297
32
0.11936
13
-0.00269578
23
-0.00549297
33
0.11936
0
3DFACE
8
GOLF_PUTTER
62
3
10
-0.00119647
20
-0.00528902
30
0.11936
11
-0.00139544
21
-0.00603159
31
0.11936
12
-2.61934e-010
22
-0.0062153
32
0.11936
13
-2.61934e-010
23
-0.0062153
33
0.11936
0
3DFACE
8
GOLF_PUTTER
62
3
10
-2.61934e-010
20
-0.00544654
30
0.11936
11
-0.00119647
21
-0.00528902
31
0.11936
12
-2.61934e-010
22
-0.0062153
32
0.11936
13
-2.61934e-010
23
-0.0062153
33
0.11936
0
3DFACE
8
GOLF_PUTTER
62
3
10
0.00119647
20
-0.00528902
30
0.11936
11
-2.61934e-010
21
-0.00544654
31
0.11936
12
-2.61934e-010
22
-0.0062153
32
0.11936
13
-2.61934e-010
23
-0.0062153
33
0.11936
0
3DFACE
8
GOLF_PUTTER
62
3
10
0.00139544
20
-0.00603159
30
0.11936
11
0.00119647
21
-0.00528902
31
0.11936
12
-2.61934e-010
22
-0.0062153
32
0.11936
13
-2.61934e-010
23
-0.0062153
33
0.11936
0
3DFACE
8
GOLF_PUTTER
62
3
10
0.00269578
20
-0.00549297
30
0.11936
11
0.00119647
21
-0.00528902
31
0.11936
12
0.00139544
22
-0.00603159
32
0.11936
13
0.00139544
23
-0.00603159
33
0.11936
0
3DFACE
8
GOLF_PUTTER
62
3
10
0.0023114
20
-0.0048272
30
0.11936
11
0.00119647
21
-0.00528902
31
0.11936
12
0.00269578
22
-0.00549297
32
0.11936
13
0.00269578
23
-0.00549297
33
0.11936
0
3DFACE
8
GOLF_PUTTER
62
3
10
0.00381241
20
-0.00463615
30
0.11936
11
0.0023114
21
-0.0048272
31
0.11936
12
0.00269578
22
-0.00549297
32
0.11936
13
0.00269578
23
-0.00549297
33
0.11936
0
3DFACE
8
GOLF_PUTTER
62
3
10
0.00381241
20
-0.00463615
30
0.11936
11
0.00326881
21
-0.00409255
31
0.11936
12
0.0023114
22
-0.0048272
32
0.11936
13
0.0023114
23
-0.0048272
33
0.11936
0
3DFACE
8
GOLF_PUTTER
62
3
10
0.00400346
20
-0.00313514
30
0.11936
11
0.00326881
21
-0.00409255
31
0.11936
12
0.00381241
22
-0.00463615
32
0.11936
13
0.00381241
23
-0.00463615
33
0.11936
0
3DFACE
8
GOLF_PUTTER
62
3
10
0.00466923
20
-0.00351952
30
0.11936
11
0.00400346
21
-0.00313514
31
0.11936
12
0.00381241
22
-0.00463615
32
0.11936
13
0.00381241
23
-0.00463615
33
0.11936
0
3DFACE
8
GOLF_PUTTER
62
3
10
0.00446528
20
-0.00202021
30
0.11936
11
0.00400346
21
-0.00313514
31
0.11936
12
0.00466923
22
-0.00351952
32
0.11936
13
0.00466923
23
-0.00351952
33
0.11936
0
3DFACE
8
GOLF_PUTTER
62
3
10
0.00520785
20
-0.00221918
30
0.11936
11
0.00446528
21
-0.00202021
31
0.11936
12
0.00466923
22
-0.00351952
32
0.11936
13
0.00466923
23
-0.00351952
33
0.11936
0
3DFACE
8
GOLF_PUTTER
62
3
10
0.00539156
20
-0.00082374
30
0.11936
11
0.00446528
21
-0.00202021
31
0.11936
12
0.00520785
22
-0.00221918
32
0.11936
13
0.00520785
23
-0.00221918
33
0.11936
0
3DFACE
8
GOLF_PUTTER
62
3
10
0.00539156
20
-0.00082374
30
0.11936
11
0.0046228
21
-0.00082374
31
0.11936
12
0.00446528
22
-0.00202021
32
0.11936
13
0.00446528
23
-0.00202021
33
0.11936
0
3DFACE
8
GOLF_PUTTER
62
2
10
0.00712596
20
-0.00082374
30
0.662898
11
0.00637897
21
0.000885501
31
0.662898
12
0.006604
22
-0.00082374
32
0.662898
13
0.006604
23
-0.00082374
33
0.662898
0
3DFACE
8
GOLF_PUTTER
62
2
10
0.00688315
20
0.0010206
30
0.662898
11
0.00637897
21
0.000885501
31
0.662898
12
0.00712596
22
-0.00082374
32
0.662898
13
0.00712596
23
-0.00082374
33
0.662898
0
3DFACE
8
GOLF_PUTTER
62
2
10
0.00637897
20
0.000885501
30
0.649016
11
0.00712596
21
-0.00082374
31
0.649016
12
0.006604
22
-0.00082374
32
0.649016
13
0.006604
23
-0.00082374
33
0.649016
0
3DFACE
8
GOLF_PUTTER
62
2
10
0.00637897
20
0.000885501
30
0.649016
11
0.00688315
21
0.0010206
31
0.649016
12
0.00712596
22
-0.00082374
32
0.649016
13
0.00712596
23
-0.00082374
33
0.649016
0
3DFACE
8
GOLF_PUTTER
62
2
10
0.00617126
20
0.00273924
30
0.662898
11
0.00571923
21
0.00247826
31
0.662898
12
0.00637897
22
0.000885501
32
0.662898
13
0.00637897
23
0.000885501
33
0.662898
0
3DFACE
8
GOLF_PUTTER
62
2
10
0.00688315
20
0.0010206
30
0.662898
11
0.00617126
21
0.00273924
31
0.662898
12
0.00637897
22
0.000885501
32
0.662898
13
0.00637897
23
0.000885501
33
0.662898
0
3DFACE
8
GOLF_PUTTER
62
2
10
0.00617126
20
0.00273924
30
0.649016
11
0.00688315
21
0.0010206
31
0.649016
12
0.00637897
22
0.000885501
32
0.649016
13
0.00637897
23
0.000885501
33
0.649016
0
3DFACE
8
GOLF_PUTTER
62
2
10
0.00571923
20
0.00247826
30
0.649016
11
0.00617126
21
0.00273924
31
0.649016
12
0.00637897
22
0.000885501
32
0.649016
13
0.00637897
23
0.000885501
33
0.649016
0
3DFACE
8
GOLF_PUTTER
62
2
10
0.00617126
20
0.00273924
30
0.662898
11
0.00466973
21
0.00384599
31
0.662898
12
0.00571923
22
0.00247826
32
0.662898
13
0.00571923
23
0.00247826
33
0.662898
0
3DFACE
8
GOLF_PUTTER
62
2
10
0.00503882
20
0.00421508
30
0.662898
11
0.00466973
21
0.00384599
31
0.662898
12
0.00617126
22
0.00273924
32
0.662898
13
0.00617126
23
0.00273924
33
0.662898
0
3DFACE
8
GOLF_PUTTER
62
2
10
0.00466973
20
0.00384599
30
0.649016
11
0.00617126
21
0.00273924
31
0.649016
12
0.00571923
22
0.00247826
32
0.649016
13
0.00571923
23
0.00247826
33
0.649016
0
3DFACE
8
GOLF_PUTTER
62
2
10
0.00466973
20
0.00384599
30
0.649016
11
0.00503882
21
0.00421508
31
0.649016
12
0.00617126
22
0.00273924
32
0.649016
13
0.00617126
23
0.00273924
33
0.649016
0
3DFACE
8
GOLF_PUTTER
62
2
10
0.00356298
20
0.00534752
30
0.662898
11
0.003302
21
0.00489549
31
0.662898
12
0.00466973
22
0.00384599
32
0.662898
13
0.00466973
23
0.00384599
33
0.662898
0
3DFACE
8
GOLF_PUTTER
62
2
10
0.00503882
20
0.00421508
30
0.662898
11
0.00356298
21
0.00534752
31
0.662898
12
0.00466973
22
0.00384599
32
0.662898
13
0.00466973
23
0.00384599
33
0.662898
0
3DFACE
8
GOLF_PUTTER
62
2
10
0.00356298
20
0.00534752
30
0.649016
11
0.00503882
21
0.00421508
31
0.649016
12
0.00466973
22
0.00384599
32
0.649016
13
0.00466973
23
0.00384599
33
0.649016
0
3DFACE
8
GOLF_PUTTER
62
2
10
0.003302
20
0.00489549
30
0.649016
11
0.00356298
21
0.00534752
31
0.649016
12
0.00466973
22
0.00384599
32
0.649016
13
0.00466973
23
0.00384599
33
0.649016
0
3DFACE
8
GOLF_PUTTER
62
2
10
0.00356298
20
0.00534752
30
0.662898
11
0.00170924
21
0.00555523
31
0.662898
12
0.003302
22
0.00489549
32
0.662898
13
0.003302
23
0.00489549
33
0.662898
0
3DFACE
8
GOLF_PUTTER
62
2
10
0.00184433
20
0.00605941
30
0.662898
11
0.00170924
21
0.00555523
31
0.662898
12
0.00356298
22
0.00534752
32
0.662898
13
0.00356298
23
0.00534752
33
0.662898
0
3DFACE
8
GOLF_PUTTER
62
2
10
0.00170924
20
0.00555523
30
0.649016
11
0.00356298
21
0.00534752
31
0.649016
12
0.003302
22
0.00489549
32
0.649016
13
0.003302
23
0.00489549
33
0.649016
0
3DFACE
8
GOLF_PUTTER
62
2
10
0.00170924
20
0.00555523
30
0.649016
11
0.00184433
21
0.00605941
31
0.649016
12
0.00356298
22
0.00534752
32
0.649016
13
0.00356298
23
0.00534752
33
0.649016
0
3DFACE
8
GOLF_PUTTER
62
2
10
-2.61934e-010
20
0.00630222
30
0.662898
11
-2.61934e-010
21
0.00578026
31
0.662898
12
0.00170924
22
0.00555523
32
0.662898
13
0.00170924
23
0.00555523
33
0.662898
0
3DFACE
8
GOLF_PUTTER
62
2
10
0.00184433
20
0.00605941
30
0.662898
11
-2.61934e-010
21
0.00630222
31
0.662898
12
0.00170924
22
0.00555523
32
0.662898
13
0.00170924
23
0.00555523
33
0.662898
0
3DFACE
8
GOLF_PUTTER
62
2
10
-2.61934e-010
20
0.00630222
30
0.649016
11
0.00184433
21
0.00605941
31
0.649016
12
0.00170924
22
0.00555523
32
0.649016
13
0.00170924
23
0.00555523
33
0.649016
0
3DFACE
8
GOLF_PUTTER
62
2
10
-2.61934e-010
20
0.00578026
30
0.649016
11
-2.61934e-010
21
0.00630222
31
0.649016
12
0.00170924
22
0.00555523
32
0.649016
13
0.00170924
23
0.00555523
33
0.649016
0
3DFACE
8
GOLF_PUTTER
62
2
10
-2.61934e-010
20
0.00630222
30
0.649016
11
-2.61934e-010
21
0.00578026
31
0.649016
12
-0.00170924
22
0.00555523
32
0.649016
13
-0.00170924
23
0.00555523
33
0.649016
0
3DFACE
8
GOLF_PUTTER
62
2
10
-0.00184434
20
0.00605941
30
0.649016
11
-2.61934e-010
21
0.00630222
31
0.649016
12
-0.00170924
22
0.00555523
32
0.649016
13
-0.00170924
23
0.00555523
33
0.649016
0
3DFACE
8
GOLF_PUTTER
62
2
10
-2.61934e-010
20
0.00630222
30
0.662898
11
-0.00184434
21
0.00605941
31
0.662898
12
-0.00170924
22
0.00555523
32
0.662898
13
-0.00170924
23
0.00555523
33
0.662898
0
3DFACE
8
GOLF_PUTTER
62
2
10
-2.61934e-010
20
0.00578026
30
0.662898
11
-2.61934e-010
21
0.00630222
31
0.662898
12
-0.00170924
22
0.00555523
32
0.662898
13
-0.00170924
23
0.00555523
33
0.662898
0
3DFACE
8
GOLF_PUTTER
62
2
10
-0.00356298
20
0.00534752
30
0.649016
11
-0.00170924
21
0.00555523
31
0.649016
12
-0.003302
22
0.00489549
32
0.649016
13
-0.003302
23
0.00489549
33
0.649016
0
3DFACE
8
GOLF_PUTTER
62
2
10
-0.00184434
20
0.00605941
30
0.649016
11
-0.00170924
21
0.00555523
31
0.649016
12
-0.00356298
22
0.00534752
32
0.649016
13
-0.00356298
23
0.00534752
33
0.649016
0
3DFACE
8
GOLF_PUTTER
62
2
10
-0.00170924
20
0.00555523
30
0.662898
11
-0.00356298
21
0.00534752
31
0.662898
12
-0.003302
22
0.00489549
32
0.662898
13
-0.003302
23
0.00489549
33
0.662898
0
3DFACE
8
GOLF_PUTTER
62
2
10
-0.00170924
20
0.00555523
30
0.662898
11
-0.00184434
21
0.00605941
31
0.662898
12
-0.00356298
22
0.00534752
32
0.662898
13
-0.00356298
23
0.00534752
33
0.662898
0
3DFACE
8
GOLF_PUTTER
62
2
10
-0.00356298
20
0.00534752
30
0.649016
11
-0.003302
21
0.00489549
31
0.649016
12
-0.00466973
22
0.00384599
32
0.649016
13
-0.00466973
23
0.00384599
33
0.649016
0
3DFACE
8
GOLF_PUTTER
62
2
10
-0.00503882
20
0.00421508
30
0.649016
11
-0.00356298
21
0.00534752
31
0.649016
12
-0.00466973
22
0.00384599
32
0.649016
13
-0.00466973
23
0.00384599
33
0.649016
0
3DFACE
8
GOLF_PUTTER
62
2
10
-0.00356298
20
0.00534752
30
0.662898
11
-0.00503882
21
0.00421508
31
0.662898
12
-0.00466973
22
0.00384599
32
0.662898
13
-0.00466973
23
0.00384599
33
0.662898
0
3DFACE
8
GOLF_PUTTER
62
2
10
-0.003302
20
0.00489549
30
0.662898
11
-0.00356298
21
0.00534752
31
0.662898
12
-0.00466973
22
0.00384599
32
0.662898
13
-0.00466973
23
0.00384599
33
0.662898
0
3DFACE
8
GOLF_PUTTER
62
2
10
-0.00617127
20
0.00273924
30
0.649016
11
-0.00466973
21
0.00384599
31
0.649016
12
-0.00571923
22
0.00247826
32
0.649016
13
-0.00571923
23
0.00247826
33
0.649016
0
3DFACE
8
GOLF_PUTTER
62
2
10
-0.00503882
20
0.00421508
30
0.649016
11
-0.00466973
21
0.00384599
31
0.649016
12
-0.00617127
22
0.00273924
32
0.649016
13
-0.00617127
23
0.00273924
33
0.649016
0
3DFACE
8
GOLF_PUTTER
62
2
10
-0.00466973
20
0.00384599
30
0.662898
11
-0.00617127
21
0.00273924
31
0.662898
12
-0.00571923
22
0.00247826
32
0.662898
13
-0.00571923
23
0.00247826
33
0.662898
0
3DFACE
8
GOLF_PUTTER
62
2
10
-0.00466973
20
0.00384599
30
0.662898
11
-0.00503882
21
0.00421508
31
0.662898
12
-0.00617127
22
0.00273924
32
0.662898
13
-0.00617127
23
0.00273924
33
0.662898
0
3DFACE
8
GOLF_PUTTER
62
2
10
-0.00617127
20
0.00273924
30
0.649016
11
-0.00571923
21
0.00247826
31
0.649016
12
-0.00637897
22
0.000885501
32
0.649016
13
-0.00637897
23
0.000885501
33
0.649016
0
3DFACE
8
GOLF_PUTTER
62
2
10
-0.00688315
20
0.0010206
30
0.649016
11
-0.00617127
21
0.00273924
31
0.649016
12
-0.00637897
22
0.000885501
32
0.649016
13
-0.00637897
23
0.000885501
33
0.649016
0
3DFACE
8
GOLF_PUTTER
62
2
10
-0.00617127
20
0.00273924
30
0.662898
11
-0.00688315
21
0.0010206
31
0.662898
12
-0.00637897
22
0.000885501
32
0.662898
13
-0.00637897
23
0.000885501
33
0.662898
0
3DFACE
8
GOLF_PUTTER
62
2
10
-0.00571923
20
0.00247826
30
0.662898
11
-0.00617127
21
0.00273924
31
0.662898
12
-0.00637897
22
0.000885501
32
0.662898
13
-0.00637897
23
0.000885501
33
0.662898
0
3DFACE
8
GOLF_PUTTER
62
2
10
-0.00712596
20
-0.00082374
30
0.649016
11
-0.00637897
21
0.000885501
31
0.649016
12
-0.006604
22
-0.00082374
32
0.649016
13
-0.006604
23
-0.00082374
33
0.649016
0
3DFACE
8
GOLF_PUTTER
62
2
10
-0.00688315
20
0.0010206
30
0.649016
11
-0.00637897
21
0.000885501
31
0.649016
12
-0.00712596
22
-0.00082374
32
0.649016
13
-0.00712596
23
-0.00082374
33
0.649016
0
3DFACE
8
GOLF_PUTTER
62
2
10
-0.00637897
20
0.000885501
30
0.662898
11
-0.00712596
21
-0.00082374
31
0.662898
12
-0.006604
22
-0.00082374
32
0.662898
13
-0.006604
23
-0.00082374
33
0.662898
0
3DFACE
8
GOLF_PUTTER
62
2
10
-0.00637897
20
0.000885501
30
0.662898
11
-0.00688315
21
0.0010206
31
0.662898
12
-0.00712596
22
-0.00082374
32
0.662898
13
-0.00712596
23
-0.00082374
33
0.662898
0
3DFACE
8
GOLF_PUTTER
62
2
10
-0.00712596
20
-0.00082374
30
0.649016
11
-0.00637897
21
-0.00253298
31
0.649016
12
-0.00688315
22
-0.00266808
32
0.649016
13
-0.00688315
23
-0.00266808
33
0.649016
0
3DFACE
8
GOLF_PUTTER
62
2
10
-0.00712596
20
-0.00082374
30
0.649016
11
-0.006604
21
-0.00082374
31
0.649016
12
-0.00637897
22
-0.00253298
32
0.649016
13
-0.00637897
23
-0.00253298
33
0.649016
0
3DFACE
8
GOLF_PUTTER
62
2
10
-0.00637897
20
-0.00253298
30
0.662898
11
-0.00712596
21
-0.00082374
31
0.662898
12
-0.00688315
22
-0.00266808
32
0.662898
13
-0.00688315
23
-0.00266808
33
0.662898
0
3DFACE
8
GOLF_PUTTER
62
2
10
-0.006604
20
-0.00082374
30
0.662898
11
-0.00712596
21
-0.00082374
31
0.662898
12
-0.00637897
22
-0.00253298
32
0.662898
13
-0.00637897
23
-0.00253298
33
0.662898
0
3DFACE
8
GOLF_PUTTER
62
2
10
-0.00637897
20
-0.00253298
30
0.649016
11
-0.00571923
21
-0.00412574
31
0.649016
12
-0.00617127
22
-0.00438672
32
0.649016
13
-0.00617127
23
-0.00438672
33
0.649016
0
3DFACE
8
GOLF_PUTTER
62
2
10
-0.00688315
20
-0.00266808
30
0.649016
11
-0.00637897
21
-0.00253298
31
0.649016
12
-0.00617127
22
-0.00438672
32
0.649016
13
-0.00617127
23
-0.00438672
33
0.649016
0
3DFACE
8
GOLF_PUTTER
62
2
10
-0.00637897
20
-0.00253298
30
0.662898
11
-0.00688315
21
-0.00266808
31
0.662898
12
-0.00617127
22
-0.00438672
32
0.662898
13
-0.00617127
23
-0.00438672
33
0.662898
0
3DFACE
8
GOLF_PUTTER
62
2
10
-0.00571923
20
-0.00412574
30
0.662898
11
-0.00637897
21
-0.00253298
31
0.662898
12
-0.00617127
22
-0.00438672
32
0.662898
13
-0.00617127
23
-0.00438672
33
0.662898
0
3DFACE
8
GOLF_PUTTER
62
2
10
-0.00617127
20
-0.00438672
30
0.649016
11
-0.00466973
21
-0.00549347
31
0.649016
12
-0.00503882
22
-0.00586256
32
0.649016
13
-0.00503882
23
-0.00586256
33
0.649016
0
3DFACE
8
GOLF_PUTTER
62
2
10
-0.00617127
20
-0.00438672
30
0.649016
11
-0.00571923
21
-0.00412574
31
0.649016
12
-0.00466973
22
-0.00549347
32
0.649016
13
-0.00466973
23
-0.00549347
33
0.649016
0
3DFACE
8
GOLF_PUTTER
62
2
10
-0.00466973
20
-0.00549347
30
0.662898
11
-0.00617127
21
-0.00438672
31
0.662898
12
-0.00503882
22
-0.00586256
32
0.662898
13
-0.00503882
23
-0.00586256
33
0.662898
0
3DFACE
8
GOLF_PUTTER
62
2
10
-0.00571923
20
-0.00412574
30
0.662898
11
-0.00617127
21
-0.00438672
31
0.662898
12
-0.00466973
22
-0.00549347
32
0.662898
13
-0.00466973
23
-0.00549347
33
0.662898
0
3DFACE
8
GOLF_PUTTER
62
2
10
-0.00466973
20
-0.00549347
30
0.649016
11
-0.003302
21
-0.00654297
31
0.649016
12
-0.00356298
22
-0.00699501
32
0.649016
13
-0.00356298
23
-0.00699501
33
0.649016
0
3DFACE
8
GOLF_PUTTER
62
2
10
-0.00503882
20
-0.00586256
30
0.649016
11
-0.00466973
21
-0.00549347
31
0.649016
12
-0.00356298
22
-0.00699501
32
0.649016
13
-0.00356298
23
-0.00699501
33
0.649016
0
3DFACE
8
GOLF_PUTTER
62
2
10
-0.00466973
20
-0.00549347
30
0.662898
11
-0.00503882
21
-0.00586256
31
0.662898
12
-0.00356298
22
-0.00699501
32
0.662898
13
-0.00356298
23
-0.00699501
33
0.662898
0
3DFACE
8
GOLF_PUTTER
62
2
10
-0.003302
20
-0.00654297
30
0.662898
11
-0.00466973
21
-0.00549347
31
0.662898
12
-0.00356298
22
-0.00699501
32
0.662898
13
-0.00356298
23
-0.00699501
33
0.662898
0
3DFACE
8
GOLF_PUTTER
62
2
10
-0.00356298
20
-0.00699501
30
0.649016
11
-0.00170924
21
-0.00720271
31
0.649016
12
-0.00184434
22
-0.00770689
32
0.649016
13
-0.00184434
23
-0.00770689
33
0.649016
0
3DFACE
8
GOLF_PUTTER
62
2
10
-0.00356298
20
-0.00699501
30
0.649016
11
-0.003302
21
-0.00654297
31
0.649016
12
-0.00170924
22
-0.00720271
32
0.649016
13
-0.00170924
23
-0.00720271
33
0.649016
0
3DFACE
8
GOLF_PUTTER
62
2
10
-0.00170924
20
-0.00720271
30
0.662898
11
-0.00356298
21
-0.00699501
31
0.662898
12
-0.00184434
22
-0.00770689
32
0.662898
13
-0.00184434
23
-0.00770689
33
0.662898
0
3DFACE
8
GOLF_PUTTER
62
2
10
-0.003302
20
-0.00654297
30
0.662898
11
-0.00356298
21
-0.00699501
31
0.662898
12
-0.00170924
22
-0.00720271
32
0.662898
13
-0.00170924
23
-0.00720271
33
0.662898
0
3DFACE
8
GOLF_PUTTER
62
2
10
-0.00170924
20
-0.00720271
30
0.649016
11
-2.61934e-010
21
-0.00742774
31
0.649016
12
-2.61934e-010
22
-0.0079497
32
0.649016
13
-2.61934e-010
23
-0.0079497
33
0.649016
0
3DFACE
8
GOLF_PUTTER
62
2
10
-0.00184434
20
-0.00770689
30
0.649016
11
-0.00170924
21
-0.00720271
31
0.649016
12
-2.61934e-010
22
-0.0079497
32
0.649016
13
-2.61934e-010
23
-0.0079497
33
0.649016
0
3DFACE
8
GOLF_PUTTER
62
2
10
-0.00170924
20
-0.00720271
30
0.662898
11
-0.00184434
21
-0.00770689
31
0.662898
12
-2.61934e-010
22
-0.0079497
32
0.662898
13
-2.61934e-010
23
-0.0079497
33
0.662898
0
3DFACE
8
GOLF_PUTTER
62
2
10
-2.61934e-010
20
-0.00742774
30
0.662898
11
-0.00170924
21
-0.00720271
31
0.662898
12
-2.61934e-010
22
-0.0079497
32
0.662898
13
-2.61934e-010
23
-0.0079497
33
0.662898
0
3DFACE
8
GOLF_PUTTER
62
2
10
0.00170924
20
-0.00720271
30
0.662898
11
-2.61934e-010
21
-0.00742774
31
0.662898
12
-2.61934e-010
22
-0.0079497
32
0.662898
13
-2.61934e-010
23
-0.0079497
33
0.662898
0
3DFACE
8
GOLF_PUTTER
62
2
10
0.00184433
20
-0.00770689
30
0.662898
11
0.00170924
21
-0.00720271
31
0.662898
12
-2.61934e-010
22
-0.0079497
32
0.662898
13
-2.61934e-010
23
-0.0079497
33
0.662898
0
3DFACE
8
GOLF_PUTTER
62
2
10
0.00170924
20
-0.00720271
30
0.649016
11
0.00184433
21
-0.00770689
31
0.649016
12
-2.61934e-010
22
-0.0079497
32
0.649016
13
-2.61934e-010
23
-0.0079497
33
0.649016
0
3DFACE
8
GOLF_PUTTER
62
2
10
-2.61934e-010
20
-0.00742774
30
0.649016
11
0.00170924
21
-0.00720271
31
0.649016
12
-2.61934e-010
22
-0.0079497
32
0.649016
13
-2.61934e-010
23
-0.0079497
33
0.649016
0
3DFACE
8
GOLF_PUTTER
62
2
10
0.00356298
20
-0.00699501
30
0.662898
11
0.00170924
21
-0.00720271
31
0.662898
12
0.00184433
22
-0.00770689
32
0.662898
13
0.00184433
23
-0.00770689
33
0.662898
0
3DFACE
8
GOLF_PUTTER
62
2
10
0.00356298
20
-0.00699501
30
0.662898
11
0.003302
21
-0.00654297
31
0.662898
12
0.00170924
22
-0.00720271
32
0.662898
13
0.00170924
23
-0.00720271
33
0.662898
0
3DFACE
8
GOLF_PUTTER
62
2
10
0.00170924
20
-0.00720271
30
0.649016
11
0.00356298
21
-0.00699501
31
0.649016
12
0.00184433
22
-0.00770689
32
0.649016
13
0.00184433
23
-0.00770689
33
0.649016
0
3DFACE
8
GOLF_PUTTER
62
2
10
0.003302
20
-0.00654297
30
0.649016
11
0.00356298
21
-0.00699501
31
0.649016
12
0.00170924
22
-0.00720271
32
0.649016
13
0.00170924
23
-0.00720271
33
0.649016
0
3DFACE
8
GOLF_PUTTER
62
2
10
0.00466973
20
-0.00549347
30
0.662898
11
0.003302
21
-0.00654297
31
0.662898
12
0.00356298
22
-0.00699501
32
0.662898
13
0.00356298
23
-0.00699501
33
0.662898
0
3DFACE
8
GOLF_PUTTER
62
2
10
0.00503882
20
-0.00586256
30
0.662898
11
0.00466973
21
-0.00549347
31
0.662898
12
0.00356298
22
-0.00699501
32
0.662898
13
0.00356298
23
-0.00699501
33
0.662898
0
3DFACE
8
GOLF_PUTTER
62
2
10
0.00466973
20
-0.00549347
30
0.649016
11
0.00503882
21
-0.00586256
31
0.649016
12
0.00356298
22
-0.00699501
32
0.649016
13
0.00356298
23
-0.00699501
33
0.649016
0
3DFACE
8
GOLF_PUTTER
62
2
10
0.003302
20
-0.00654297
30
0.649016
11
0.00466973
21
-0.00549347
31
0.649016
12
0.00356298
22
-0.00699501
32
0.649016
13
0.00356298
23
-0.00699501
33
0.649016
0
3DFACE
8
GOLF_PUTTER
62
2
10
0.00617126
20
-0.00438672
30
0.662898
11
0.00466973
21
-0.00549347
31
0.662898
12
0.00503882
22
-0.00586256
32
0.662898
13
0.00503882
23
-0.00586256
33
0.662898
0
3DFACE
8
GOLF_PUTTER
62
2
10
0.00617126
20
-0.00438672
30
0.662898
11
0.00571923
21
-0.00412574
31
0.662898
12
0.00466973
22
-0.00549347
32
0.662898
13
0.00466973
23
-0.00549347
33
0.662898
0
3DFACE
8
GOLF_PUTTER
62
2
10
0.00466973
20
-0.00549347
30
0.649016
11
0.00617126
21
-0.00438672
31
0.649016
12
0.00503882
22
-0.00586256
32
0.649016
13
0.00503882
23
-0.00586256
33
0.649016
0
3DFACE
8
GOLF_PUTTER
62
2
10
0.00571923
20
-0.00412574
30
0.649016
11
0.00617126
21
-0.00438672
31
0.649016
12
0.00466973
22
-0.00549347
32
0.649016
13
0.00466973
23
-0.00549347
33
0.649016
0
3DFACE
8
GOLF_PUTTER
62
2
10
0.00637897
20
-0.00253298
30
0.662898
11
0.00571923
21
-0.00412574
31
0.662898
12
0.00617126
22
-0.00438672
32
0.662898
13
0.00617126
23
-0.00438672
33
0.662898
0
3DFACE
8
GOLF_PUTTER
62
2
10
0.00688315
20
-0.00266808
30
0.662898
11
0.00637897
21
-0.00253298
31
0.662898
12
0.00617126
22
-0.00438672
32
0.662898
13
0.00617126
23
-0.00438672
33
0.662898
0
3DFACE
8
GOLF_PUTTER
62
2
10
0.00637897
20
-0.00253298
30
0.649016
11
0.00688315
21
-0.00266808
31
0.649016
12
0.00617126
22
-0.00438672
32
0.649016
13
0.00617126
23
-0.00438672
33
0.649016
0
3DFACE
8
GOLF_PUTTER
62
2
10
0.00571923
20
-0.00412574
30
0.649016
11
0.00637897
21
-0.00253298
31
0.649016
12
0.00617126
22
-0.00438672
32
0.649016
13
0.00617126
23
-0.00438672
33
0.649016
0
3DFACE
8
GOLF_PUTTER
62
2
10
0.00712596
20
-0.00082374
30
0.662898
11
0.00637897
21
-0.00253298
31
0.662898
12
0.00688315
22
-0.00266808
32
0.662898
13
0.00688315
23
-0.00266808
33
0.662898
0
3DFACE
8
GOLF_PUTTER
62
2
10
0.00712596
20
-0.00082374
30
0.662898
11
0.006604
21
-0.00082374
31
0.662898
12
0.00637897
22
-0.00253298
32
0.662898
13
0.00637897
23
-0.00253298
33
0.662898
0
3DFACE
8
GOLF_PUTTER
62
2
10
0.00637897
20
-0.00253298
30
0.649016
11
0.00712596
21
-0.00082374
31
0.649016
12
0.00688315
22
-0.00266808
32
0.649016
13
0.00688315
23
-0.00266808
33
0.649016
0
3DFACE
8
GOLF_PUTTER
62
2
10
0.006604
20
-0.00082374
30
0.649016
11
0.00712596
21
-0.00082374
31
0.649016
12
0.00637897
22
-0.00253298
32
0.649016
13
0.00637897
23
-0.00253298
33
0.649016
0
3DFACE
8
GOLF_PUTTER
62
2
10
0.00860394
20
0.00148168
30
0.860889
11
0.008255
21
-0.00082374
31
0.861411
12
0.00890745
22
-0.00082374
32
0.860889
13
0.00890745
23
-0.00082374
33
0.860889
0
3DFACE
8
GOLF_PUTTER
62
2
10
0.00797372
20
0.00131281
30
0.861411
11
0.008255
21
-0.00082374
31
0.861411
12
0.00860394
22
0.00148168
32
0.860889
13
0.00860394
23
0.00148168
33
0.860889
0
3DFACE
8
GOLF_PUTTER
62
2
10
0.00860394
20
0.00148168
30
0.849738
11
0.00890745
21
-0.00082374
31
0.849738
12
0.008255
22
-0.00082374
32
0.849738
13
0.008255
23
-0.00082374
33
0.849738
0
3DFACE
8
GOLF_PUTTER
62
2
10
0.00797372
20
0.00131281
30
0.849738
11
0.00860394
21
0.00148168
31
0.849738
12
0.008255
22
-0.00082374
32
0.849738
13
0.008255
23
-0.00082374
33
0.849738
0
3DFACE
8
GOLF_PUTTER
62
2
10
0.00714904
20
0.00330376
30
0.861411
11
0.00797372
21
0.00131281
31
0.861411
12
0.00860394
22
0.00148168
32
0.860889
13
0.00860394
23
0.00148168
33
0.860889
0
3DFACE
8
GOLF_PUTTER
62
2
10
0.00771408
20
0.00362999
30
0.860889
11
0.00714904
21
0.00330376
31
0.861411
12
0.00860394
22
0.00148168
32
0.860889
13
0.00860394
23
0.00148168
33
0.860889
0
3DFACE
8
GOLF_PUTTER
62
2
10
0.00714904
20
0.00330376
30
0.849738
11
0.00860394
21
0.00148168
31
0.849738
12
0.00797372
22
0.00131281
32
0.849738
13
0.00797372
23
0.00131281
33
0.849738
0
3DFACE
8
GOLF_PUTTER
62
2
10
0.00714904
20
0.00330376
30
0.849738
11
0.00771408
21
0.00362999
31
0.849738
12
0.00860394
22
0.00148168
32
0.849738
13
0.00860394
23
0.00148168
33
0.849738
0
3DFACE
8
GOLF_PUTTER
62
2
10
0.00629852
20
0.00547478
30
0.860889
11
0.00714904
21
0.00330376
31
0.861411
12
0.00771408
22
0.00362999
32
0.860889
13
0.00771408
23
0.00362999
33
0.860889
0
3DFACE
8
GOLF_PUTTER
62
2
10
0.00583717
20
0.00501343
30
0.861411
11
0.00714904
21
0.00330376
31
0.861411
12
0.00629852
22
0.00547478
32
0.860889
13
0.00629852
23
0.00547478
33
0.860889
0
3DFACE
8
GOLF_PUTTER
62
2
10
0.00629852
20
0.00547478
30
0.849738
11
0.00771408
21
0.00362999
31
0.849738
12
0.00714904
22
0.00330376
32
0.849738
13
0.00714904
23
0.00330376
33
0.849738
0
3DFACE
8
GOLF_PUTTER
62
2
10
0.00583717
20
0.00501343
30
0.849738
11
0.00629852
21
0.00547478
31
0.849738
12
0.00714904
22
0.00330376
32
0.849738
13
0.00714904
23
0.00330376
33
0.849738
0
3DFACE
8
GOLF_PUTTER
62
2
10
0.0041275
20
0.0063253
30
0.861411
11
0.00583717
21
0.00501343
31
0.861411
12
0.00629852
22
0.00547478
32
0.860889
13
0.00629852
23
0.00547478
33
0.860889
0
3DFACE
8
GOLF_PUTTER
62
2
10
0.00445373
20
0.00689034
30
0.860889
11
0.0041275
21
0.0063253
31
0.861411
12
0.00629852
22
0.00547478
32
0.860889
13
0.00629852
23
0.00547478
33
0.860889
0
3DFACE
8
GOLF_PUTTER
62
2
10
0.0041275
20
0.0063253
30
0.849738
11
0.00629852
21
0.00547478
31
0.849738
12
0.00583717
22
0.00501343
32
0.849738
13
0.00583717
23
0.00501343
33
0.849738
0
3DFACE
8
GOLF_PUTTER
62
2
10
0.0041275
20
0.0063253
30
0.849738
11
0.00445373
21
0.00689034
31
0.849738
12
0.00629852
22
0.00547478
32
0.849738
13
0.00629852
23
0.00547478
33
0.849738
0
3DFACE
8
GOLF_PUTTER
62
2
10
0.00230542
20
0.0077802
30
0.860889
11
0.0041275
21
0.0063253
31
0.861411
12
0.00445373
22
0.00689034
32
0.860889
13
0.00445373
23
0.00689034
33
0.860889
0
3DFACE
8
GOLF_PUTTER
62
2
10
0.00213655
20
0.00714998
30
0.861411
11
0.0041275
21
0.0063253
31
0.861411
12
0.00230542
22
0.0077802
32
0.860889
13
0.00230542
23
0.0077802
33
0.860889
0
3DFACE
8
GOLF_PUTTER
62
2
10
0.00230542
20
0.0077802
30
0.849738
11
0.00445373
21
0.00689034
31
0.849738
12
0.0041275
22
0.0063253
32
0.849738
13
0.0041275
23
0.0063253
33
0.849738
0
3DFACE
8
GOLF_PUTTER
62
2
10
0.00213655
20
0.00714998
30
0.849738
11
0.00230542
21
0.0077802
31
0.849738
12
0.0041275
22
0.0063253
32
0.849738
13
0.0041275
23
0.0063253
33
0.849738
0
3DFACE
8
GOLF_PUTTER
62
2
10
-2.61934e-010
20
0.00743126
30
0.861411
11
0.00213655
21
0.00714998
31
0.861411
12
0.00230542
22
0.0077802
32
0.860889
13
0.00230542
23
0.0077802
33
0.860889
0
3DFACE
8
GOLF_PUTTER
62
2
10
-2.61934e-010
20
0.00808371
30
0.860889
11
-2.61934e-010
21
0.00743126
31
0.861411
12
0.00230542
22
0.0077802
32
0.860889
13
0.00230542
23
0.0077802
33
0.860889
0
3DFACE
8
GOLF_PUTTER
62
2
10
-2.61934e-010
20
0.00743126
30
0.849738
11
0.00230542
21
0.0077802
31
0.849738
12
0.00213655
22
0.00714998
32
0.849738
13
0.00213655
23
0.00714998
33
0.849738
0
3DFACE
8
GOLF_PUTTER
62
2
10
-2.61934e-010
20
0.00808371
30
0.849738
11
0.00230542
21
0.0077802
31
0.849738
12
-2.61934e-010
22
0.00743126
32
0.849738
13
-2.61934e-010
23
0.00743126
33
0.849738
0
3DFACE
8
GOLF_PUTTER
62
2
10
-0.00230542
20
0.0077802
30
0.849738
11
-2.61934e-010
21
0.00743126
31
0.849738
12
-0.00213655
22
0.00714998
32
0.849738
13
-0.00213655
23
0.00714998
33
0.849738
0
3DFACE
8
GOLF_PUTTER
62
2
10
-0.00230542
20
0.0077802
30
0.849738
11
-2.61934e-010
21
0.00808371
31
0.849738
12
-2.61934e-010
22
0.00743126
32
0.849738
13
-2.61934e-010
23
0.00743126
33
0.849738
0
3DFACE
8
GOLF_PUTTER
62
2
10
-2.61934e-010
20
0.00743126
30
0.861411
11
-2.61934e-010
21
0.00808371
31
0.860889
12
-0.00230542
22
0.0077802
32
0.860889
13
-0.00230542
23
0.0077802
33
0.860889
0
3DFACE
8
GOLF_PUTTER
62
2
10
-0.00213655
20
0.00714998
30
0.861411
11
-2.61934e-010
21
0.00743126
31
0.861411
12
-0.00230542
22
0.0077802
32
0.860889
13
-0.00230542
23
0.0077802
33
0.860889
0
3DFACE
8
GOLF_PUTTER
62
2
10
-0.00230542
20
0.0077802
30
0.849738
11
-0.00213655
21
0.00714998
31
0.849738
12
-0.0041275
22
0.0063253
32
0.849738
13
-0.0041275
23
0.0063253
33
0.849738
0
3DFACE
8
GOLF_PUTTER
62
2
10
-0.00445373
20
0.00689034
30
0.849738
11
-0.00230542
21
0.0077802
31
0.849738
12
-0.0041275
22
0.0063253
32
0.849738
13
-0.0041275
23
0.0063253
33
0.849738
0
3DFACE
8
GOLF_PUTTER
62
2
10
-0.0041275
20
0.0063253
30
0.861411
11
-0.00230542
21
0.0077802
31
0.860889
12
-0.00445373
22
0.00689034
32
0.860889
13
-0.00445373
23
0.00689034
33
0.860889
0
3DFACE
8
GOLF_PUTTER
62
2
10
-0.0041275
20
0.0063253
30
0.861411
11
-0.00213655
21
0.00714998
31
0.861411
12
-0.00230542
22
0.0077802
32
0.860889
13
-0.00230542
23
0.0077802
33
0.860889
0
3DFACE
8
GOLF_PUTTER
62
2
10
-0.00629852
20
0.00547478
30
0.849738
11
-0.0041275
21
0.0063253
31
0.849738
12
-0.00583717
22
0.00501343
32
0.849738
13
-0.00583717
23
0.00501343
33
0.849738
0
3DFACE
8
GOLF_PUTTER
62
2
10
-0.00445373
20
0.00689034
30
0.849738
11
-0.0041275
21
0.0063253
31
0.849738
12
-0.00629852
22
0.00547478
32
0.849738
13
-0.00629852
23
0.00547478
33
0.849738
0
3DFACE
8
GOLF_PUTTER
62
2
10
-0.0041275
20
0.0063253
30
0.861411
11
-0.00445373
21
0.00689034
31
0.860889
12
-0.00629852
22
0.00547478
32
0.860889
13
-0.00629852
23
0.00547478
33
0.860889
0
3DFACE
8
GOLF_PUTTER
62
2
10
-0.00583717
20
0.00501343
30
0.861411
11
-0.0041275
21
0.0063253
31
0.861411
12
-0.00629852
22
0.00547478
32
0.860889
13
-0.00629852
23
0.00547478
33
0.860889
0
3DFACE
8
GOLF_PUTTER
62
2
10
-0.00629852
20
0.00547478
30
0.849738
11
-0.00583717
21
0.00501343
31
0.849738
12
-0.00714904
22
0.00330376
32
0.849738
13
-0.00714904
23
0.00330376
33
0.849738
0
3DFACE
8
GOLF_PUTTER
62
2
10
-0.00771408
20
0.00362999
30
0.849738
11
-0.00629852
21
0.00547478
31
0.849738
12
-0.00714904
22
0.00330376
32
0.849738
13
-0.00714904
23
0.00330376
33
0.849738
0
3DFACE
8
GOLF_PUTTER
62
2
10
-0.00714904
20
0.00330376
30
0.861411
11
-0.00629852
21
0.00547478
31
0.860889
12
-0.00771408
22
0.00362999
32
0.860889
13
-0.00771408
23
0.00362999
33
0.860889
0
3DFACE
8
GOLF_PUTTER
62
2
10
-0.00714904
20
0.00330376
30
0.861411
11
-0.00583717
21
0.00501343
31
0.861411
12
-0.00629852
22
0.00547478
32
0.860889
13
-0.00629852
23
0.00547478
33
0.860889
0
3DFACE
8
GOLF_PUTTER
62
2
10
-0.00860394
20
0.00148168
30
0.849738
11
-0.00714904
21
0.00330376
31
0.849738
12
-0.00797372
22
0.00131281
32
0.849738
13
-0.00797372
23
0.00131281
33
0.849738
0
3DFACE
8
GOLF_PUTTER
62
2
10
-0.00771408
20
0.00362999
30
0.849738
11
-0.00714904
21
0.00330376
31
0.849738
12
-0.00860394
22
0.00148168
32
0.849738
13
-0.00860394
23
0.00148168
33
0.849738
0
3DFACE
8
GOLF_PUTTER
62
2
10
-0.00714904
20
0.00330376
30
0.861411
11
-0.00771408
21
0.00362999
31
0.860889
12
-0.00860394
22
0.00148168
32
0.860889
13
-0.00860394
23
0.00148168
33
0.860889
0
3DFACE
8
GOLF_PUTTER
62
2
10
-0.00797372
20
0.00131281
30
0.861411
11
-0.00714904
21
0.00330376
31
0.861411
12
-0.00860394
22
0.00148168
32
0.860889
13
-0.00860394
23
0.00148168
33
0.860889
0
3DFACE
8
GOLF_PUTTER
62
2
10
-0.00860394
20
0.00148168
30
0.849738
11
-0.00797372
21
0.00131281
31
0.849738
12
-0.008255
22
-0.00082374
32
0.849738
13
-0.008255
23
-0.00082374
33
0.849738
0
3DFACE
8
GOLF_PUTTER
62
2
10
-0.00890745
20
-0.00082374
30
0.849738
11
-0.00860394
21
0.00148168
31
0.849738
12
-0.008255
22
-0.00082374
32
0.849738
13
-0.008255
23
-0.00082374
33
0.849738
0
3DFACE
8
GOLF_PUTTER
62
2
10
-0.008255
20
-0.00082374
30
0.861411
11
-0.00860394
21
0.00148168
31
0.860889
12
-0.00890745
22
-0.00082374
32
0.860889
13
-0.00890745
23
-0.00082374
33
0.860889
0
3DFACE
8
GOLF_PUTTER
62
2
10
-0.008255
20
-0.00082374
30
0.861411
11
-0.00797372
21
0.00131281
31
0.861411
12
-0.00860394
22
0.00148168
32
0.860889
13
-0.00860394
23
0.00148168
33
0.860889
0
3DFACE
8
GOLF_PUTTER
62
2
10
-0.008255
20
-0.00082374
30
0.849738
11
-0.00797372
21
-0.00296029
31
0.849738
12
-0.00860394
22
-0.00312916
32
0.849738
13
-0.00860394
23
-0.00312916
33
0.849738
0
3DFACE
8
GOLF_PUTTER
62
2
10
-0.00890745
20
-0.00082374
30
0.849738
11
-0.008255
21
-0.00082374
31
0.849738
12
-0.00860394
22
-0.00312916
32
0.849738
13
-0.00860394
23
-0.00312916
33
0.849738
0
3DFACE
8
GOLF_PUTTER
62
2
10
-0.008255
20
-0.00082374
30
0.861411
11
-0.00890745
21
-0.00082374
31
0.860889
12
-0.00860394
22
-0.00312916
32
0.860889
13
-0.00860394
23
-0.00312916
33
0.860889
0
3DFACE
8
GOLF_PUTTER
62
2
10
-0.00797372
20
-0.00296029
30
0.861411
11
-0.008255
21
-0.00082374
31
0.861411
12
-0.00860394
22
-0.00312916
32
0.860889
13
-0.00860394
23
-0.00312916
33
0.860889
0
3DFACE
8
GOLF_PUTTER
62
2
10
-0.00860394
20
-0.00312916
30
0.849738
11
-0.00714904
21
-0.00495124
31
0.849738
12
-0.00771408
22
-0.00527747
32
0.849738
13
-0.00771408
23
-0.00527747
33
0.849738
0
3DFACE
8
GOLF_PUTTER
62
2
10
-0.00860394
20
-0.00312916
30
0.849738
11
-0.00797372
21
-0.00296029
31
0.849738
12
-0.00714904
22
-0.00495124
32
0.849738
13
-0.00714904
23
-0.00495124
33
0.849738
0
3DFACE
8
GOLF_PUTTER
62
2
10
-0.00714904
20
-0.00495124
30
0.861411
11
-0.00860394
21
-0.00312916
31
0.860889
12
-0.00771408
22
-0.00527747
32
0.860889
13
-0.00771408
23
-0.00527747
33
0.860889
0
3DFACE
8
GOLF_PUTTER
62
2
10
-0.00714904
20
-0.00495124
30
0.861411
11
-0.00797372
21
-0.00296029
31
0.861411
12
-0.00860394
22
-0.00312916
32
0.860889
13
-0.00860394
23
-0.00312916
33
0.860889
0
3DFACE
8
GOLF_PUTTER
62
2
10
-0.00714904
20
-0.00495124
30
0.849738
11
-0.00583717
21
-0.00666091
31
0.849738
12
-0.00629852
22
-0.00712226
32
0.849738
13
-0.00629852
23
-0.00712226
33
0.849738
0
3DFACE
8
GOLF_PUTTER
62
2
10
-0.00771408
20
-0.00527747
30
0.849738
11
-0.00714904
21
-0.00495124
31
0.849738
12
-0.00629852
22
-0.00712226
32
0.849738
13
-0.00629852
23
-0.00712226
33
0.849738
0
3DFACE
8
GOLF_PUTTER
62
2
10
-0.00714904
20
-0.00495124
30
0.861411
11
-0.00771408
21
-0.00527747
31
0.860889
12
-0.00629852
22
-0.00712226
32
0.860889
13
-0.00629852
23
-0.00712226
33
0.860889
0
3DFACE
8
GOLF_PUTTER
62
2
10
-0.00583717
20
-0.00666091
30
0.861411
11
-0.00714904
21
-0.00495124
31
0.861411
12
-0.00629852
22
-0.00712226
32
0.860889
13
-0.00629852
23
-0.00712226
33
0.860889
0
3DFACE
8
GOLF_PUTTER
62
2
10
-0.00629852
20
-0.00712226
30
0.849738
11
-0.0041275
21
-0.00797278
31
0.849738
12
-0.00445373
22
-0.00853782
32
0.849738
13
-0.00445373
23
-0.00853782
33
0.849738
0
3DFACE
8
GOLF_PUTTER
62
2
10
-0.00629852
20
-0.00712226
30
0.849738
11
-0.00583717
21
-0.00666091
31
0.849738
12
-0.0041275
22
-0.00797278
32
0.849738
13
-0.0041275
23
-0.00797278
33
0.849738
0
3DFACE
8
GOLF_PUTTER
62
2
10
-0.0041275
20
-0.00797278
30
0.861411
11
-0.00629852
21
-0.00712226
31
0.860889
12
-0.00445373
22
-0.00853782
32
0.860889
13
-0.00445373
23
-0.00853782
33
0.860889
0
3DFACE
8
GOLF_PUTTER
62
2
10
-0.0041275
20
-0.00797278
30
0.861411
11
-0.00583717
21
-0.00666091
31
0.861411
12
-0.00629852
22
-0.00712226
32
0.860889
13
-0.00629852
23
-0.00712226
33
0.860889
0
3DFACE
8
GOLF_PUTTER
62
2
10
-0.0041275
20
-0.00797278
30
0.849738
11
-0.00213655
21
-0.00879746
31
0.849738
12
-0.00230542
22
-0.00942768
32
0.849738
13
-0.00230542
23
-0.00942768
33
0.849738
0
3DFACE
8
GOLF_PUTTER
62
2
10
-0.00445373
20
-0.00853782
30
0.849738
11
-0.0041275
21
-0.00797278
31
0.849738
12
-0.00230542
22
-0.00942768
32
0.849738
13
-0.00230542
23
-0.00942768
33
0.849738
0
3DFACE
8
GOLF_PUTTER
62
2
10
-0.0041275
20
-0.00797278
30
0.861411
11
-0.00445373
21
-0.00853782
31
0.860889
12
-0.00230542
22
-0.00942768
32
0.860889
13
-0.00230542
23
-0.00942768
33
0.860889
0
3DFACE
8
GOLF_PUTTER
62
2
10
-0.00213655
20
-0.00879746
30
0.861411
11
-0.0041275
21
-0.00797278
31
0.861411
12
-0.00230542
22
-0.00942768
32
0.860889
13
-0.00230542
23
-0.00942768
33
0.860889
0
3DFACE
8
GOLF_PUTTER
62
2
10
-0.00230542
20
-0.00942768
30
0.849738
11
-2.61934e-010
21
-0.00907874
31
0.849738
12
-2.61934e-010
22
-0.00973119
32
0.849738
13
-2.61934e-010
23
-0.00973119
33
0.849738
0
3DFACE
8
GOLF_PUTTER
62
2
10
-0.00213655
20
-0.00879746
30
0.849738
11
-2.61934e-010
21
-0.00907874
31
0.849738
12
-0.00230542
22
-0.00942768
32
0.849738
13
-0.00230542
23
-0.00942768
33
0.849738
0
3DFACE
8
GOLF_PUTTER
62
2
10
-2.61934e-010
20
-0.00907874
30
0.861411
11
-0.00230542
21
-0.00942768
31
0.860889
12
-2.61934e-010
22
-0.00973119
32
0.860889
13
-2.61934e-010
23
-0.00973119
33
0.860889
0
3DFACE
8
GOLF_PUTTER
62
2
10
-2.61934e-010
20
-0.00907874
30
0.861411
11
-0.00213655
21
-0.00879746
31
0.861411
12
-0.00230542
22
-0.00942768
32
0.860889
13
-0.00230542
23
-0.00942768
33
0.860889
0
3DFACE
8
GOLF_PUTTER
62
2
10
0.00230542
20
-0.00942768
30
0.860889
11
-2.61934e-010
21
-0.00907874
31
0.861411
12
-2.61934e-010
22
-0.00973119
32
0.860889
13
-2.61934e-010
23
-0.00973119
33
0.860889
0
3DFACE
8
GOLF_PUTTER
62
2
10
0.00213655
20
-0.00879746
30
0.861411
11
-2.61934e-010
21
-0.00907874
31
0.861411
12
0.00230542
22
-0.00942768
32
0.860889
13
0.00230542
23
-0.00942768
33
0.860889
0
3DFACE
8
GOLF_PUTTER
62
2
10
-2.61934e-010
20
-0.00907874
30
0.849738
11
0.00230542
21
-0.00942768
31
0.849738
12
-2.61934e-010
22
-0.00973119
32
0.849738
13
-2.61934e-010
23
-0.00973119
33
0.849738
0
3DFACE
8
GOLF_PUTTER
62
2
10
-2.61934e-010
20
-0.00907874
30
0.849738
11
0.00213655
21
-0.00879746
31
0.849738
12
0.00230542
22
-0.00942768
32
0.849738
13
0.00230542
23
-0.00942768
33
0.849738
0
3DFACE
8
GOLF_PUTTER
62
2
10
0.0041275
20
-0.00797278
30
0.861411
11
0.00213655
21
-0.00879746
31
0.861411
12
0.00230542
22
-0.00942768
32
0.860889
13
0.00230542
23
-0.00942768
33
0.860889
0
3DFACE
8
GOLF_PUTTER
62
2
10
0.00445373
20
-0.00853782
30
0.860889
11
0.0041275
21
-0.00797278
31
0.861411
12
0.00230542
22
-0.00942768
32
0.860889
13
0.00230542
23
-0.00942768
33
0.860889
0
3DFACE
8
GOLF_PUTTER
62
2
10
0.0041275
20
-0.00797278
30
0.849738
11
0.00445373
21
-0.00853782
31
0.849738
12
0.00230542
22
-0.00942768
32
0.849738
13
0.00230542
23
-0.00942768
33
0.849738
0
3DFACE
8
GOLF_PUTTER
62
2
10
0.00213655
20
-0.00879746
30
0.849738
11
0.0041275
21
-0.00797278
31
0.849738
12
0.00230542
22
-0.00942768
32
0.849738
13
0.00230542
23
-0.00942768
33
0.849738
0
3DFACE
8
GOLF_PUTTER
62
2
10
0.00629852
20
-0.00712226
30
0.860889
11
0.0041275
21
-0.00797278
31
0.861411
12
0.00445373
22
-0.00853782
32
0.860889
13
0.00445373
23
-0.00853782
33
0.860889
0
3DFACE
8
GOLF_PUTTER
62
2
10
0.00583717
20
-0.00666091
30
0.861411
11
0.0041275
21
-0.00797278
31
0.861411
12
0.00629852
22
-0.00712226
32
0.860889
13
0.00629852
23
-0.00712226
33
0.860889
0
3DFACE
8
GOLF_PUTTER
62
2
10
0.0041275
20
-0.00797278
30
0.849738
11
0.00629852
21
-0.00712226
31
0.849738
12
0.00445373
22
-0.00853782
32
0.849738
13
0.00445373
23
-0.00853782
33
0.849738
0
3DFACE
8
GOLF_PUTTER
62
2
10
0.00583717
20
-0.00666091
30
0.849738
11
0.00629852
21
-0.00712226
31
0.849738
12
0.0041275
22
-0.00797278
32
0.849738
13
0.0041275
23
-0.00797278
33
0.849738
0
3DFACE
8
GOLF_PUTTER
62
2
10
0.00714904
20
-0.00495124
30
0.861411
11
0.00583717
21
-0.00666091
31
0.861411
12
0.00629852
22
-0.00712226
32
0.860889
13
0.00629852
23
-0.00712226
33
0.860889
0
3DFACE
8
GOLF_PUTTER
62
2
10
0.00771408
20
-0.00527747
30
0.860889
11
0.00714904
21
-0.00495124
31
0.861411
12
0.00629852
22
-0.00712226
32
0.860889
13
0.00629852
23
-0.00712226
33
0.860889
0
3DFACE
8
GOLF_PUTTER
62
2
10
0.00714904
20
-0.00495124
30
0.849738
11
0.00771408
21
-0.00527747
31
0.849738
12
0.00629852
22
-0.00712226
32
0.849738
13
0.00629852
23
-0.00712226
33
0.849738
0
3DFACE
8
GOLF_PUTTER
62
2
10
0.00583717
20
-0.00666091
30
0.849738
11
0.00714904
21
-0.00495124
31
0.849738
12
0.00629852
22
-0.00712226
32
0.849738
13
0.00629852
23
-0.00712226
33
0.849738
0
3DFACE
8
GOLF_PUTTER
62
2
10
0.00860394
20
-0.00312916
30
0.860889
11
0.00714904
21
-0.00495124
31
0.861411
12
0.00771408
22
-0.00527747
32
0.860889
13
0.00771408
23
-0.00527747
33
0.860889
0
3DFACE
8
GOLF_PUTTER
62
2
10
0.00797372
20
-0.00296029
30
0.861411
11
0.00714904
21
-0.00495124
31
0.861411
12
0.00860394
22
-0.00312916
32
0.860889
13
0.00860394
23
-0.00312916
33
0.860889
0
3DFACE
8
GOLF_PUTTER
62
2
10
0.00714904
20
-0.00495124
30
0.849738
11
0.00860394
21
-0.00312916
31
0.849738
12
0.00771408
22
-0.00527747
32
0.849738
13
0.00771408
23
-0.00527747
33
0.849738
0
3DFACE
8
GOLF_PUTTER
62
2
10
0.00797372
20
-0.00296029
30
0.849738
11
0.00860394
21
-0.00312916
31
0.849738
12
0.00714904
22
-0.00495124
32
0.849738
13
0.00714904
23
-0.00495124
33
0.849738
0
3DFACE
8
GOLF_PUTTER
62
2
10
0.008255
20
-0.00082374
30
0.861411
11
0.00797372
21
-0.00296029
31
0.861411
12
0.00860394
22
-0.00312916
32
0.860889
13
0.00860394
23
-0.00312916
33
0.860889
0
3DFACE
8
GOLF_PUTTER
62
2
10
0.00890745
20
-0.00082374
30
0.860889
11
0.008255
21
-0.00082374
31
0.861411
12
0.00860394
22
-0.00312916
32
0.860889
13
0.00860394
23
-0.00312916
33
0.860889
0
3DFACE
8
GOLF_PUTTER
62
2
10
0.008255
20
-0.00082374
30
0.849738
11
0.00890745
21
-0.00082374
31
0.849738
12
0.00860394
22
-0.00312916
32
0.849738
13
0.00860394
23
-0.00312916
33
0.849738
0
3DFACE
8
GOLF_PUTTER
62
2
10
0.00797372
20
-0.00296029
30
0.849738
11
0.008255
21
-0.00082374
31
0.849738
12
0.00860394
22
-0.00312916
32
0.849738
13
0.00860394
23
-0.00312916
33
0.849738
0
3DFACE
8
GOLF_PUTTER
62
3
10
0.0046228
20
-0.00082374
30
0.0911345
11
0.00446528
21
-0.00202021
31
0.0911345
12
0.00446528
22
0.0133391
32
0.0453041
13
0.00446528
23
0.0133391
33
0.0453041
0
3DFACE
8
GOLF_PUTTER
62
3
10
0.0046228
20
0.0144769
30
0.0454789
11
0.0046228
21
-0.00082374
31
0.0911345
12
0.00446528
22
0.0133391
32
0.0453041
13
0.00446528
23
0.0133391
33
0.0453041
0
3DFACE
8
GOLF_PUTTER
62
3
10
0.00446528
20
0.000372729
30
0.0911345
11
0.0046228
21
-0.00082374
31
0.0911345
12
0.0046228
22
0.0144769
32
0.0454789
13
0.0046228
23
0.0144769
33
0.0454789
0
3DFACE
8
GOLF_PUTTER
62
3
10
0.00446528
20
0.0156148
30
0.0456538
11
0.00446528
21
0.000372729
31
0.0911345
12
0.0046228
22
0.0144769
32
0.0454789
13
0.0046228
23
0.0144769
33
0.0454789
0
3DFACE
8
GOLF_PUTTER
62
3
10
0.00400346
20
0.00148766
30
0.0911345
11
0.00446528
21
0.000372729
31
0.0911345
12
0.00446528
22
0.0156148
32
0.0456538
13
0.00446528
23
0.0156148
33
0.0456538
0
3DFACE
8
GOLF_PUTTER
62
3
10
0.00400346
20
0.0166751
30
0.0458167
11
0.00400346
21
0.00148766
31
0.0911345
12
0.00446528
22
0.0156148
32
0.0456538
13
0.00446528
23
0.0156148
33
0.0456538
0
3DFACE
8
GOLF_PUTTER
62
3
10
0.00326881
20
0.00244507
30
0.0911345
11
0.00400346
21
0.00148766
31
0.0911345
12
0.00400346
22
0.0166751
32
0.0458167
13
0.00400346
23
0.0166751
33
0.0458167
0
3DFACE
8
GOLF_PUTTER
62
3
10
0.00326881
20
0.0175857
30
0.0459566
11
0.00326881
21
0.00244507
31
0.0911345
12
0.00400346
22
0.0166751
32
0.0458167
13
0.00400346
23
0.0166751
33
0.0458167
0
3DFACE
8
GOLF_PUTTER
62
3
10
0.0023114
20
0.0182843
30
0.0460639
11
0.00326881
21
0.00244507
31
0.0911345
12
0.00326881
22
0.0175857
32
0.0459566
13
0.00326881
23
0.0175857
33
0.0459566
0
3DFACE
8
GOLF_PUTTER
62
3
10
0.0023114
20
0.00317972
30
0.0911345
11
0.00326881
21
0.00244507
31
0.0911345
12
0.0023114
22
0.0182843
32
0.0460639
13
0.0023114
23
0.0182843
33
0.0460639
0
3DFACE
8
GOLF_PUTTER
62
3
10
0.00119647
20
0.0187235
30
0.0461314
11
0.0023114
21
0.00317972
31
0.0911345
12
0.0023114
22
0.0182843
32
0.0460639
13
0.0023114
23
0.0182843
33
0.0460639
0
3DFACE
8
GOLF_PUTTER
62
3
10
0.00119647
20
0.00364154
30
0.0911345
11
0.0023114
21
0.00317972
31
0.0911345
12
0.00119647
22
0.0187235
32
0.0461314
13
0.00119647
23
0.0187235
33
0.0461314
0
3DFACE
8
GOLF_PUTTER
62
3
10
-2.61934e-010
20
0.0188733
30
0.0461545
11
0.00119647
21
0.00364154
31
0.0911345
12
0.00119647
22
0.0187235
32
0.0461314
13
0.00119647
23
0.0187235
33
0.0461314
0
3DFACE
8
GOLF_PUTTER
62
3
10
-2.61934e-010
20
0.00379906
30
0.0911345
11
0.00119647
21
0.00364154
31
0.0911345
12
-2.61934e-010
22
0.0188733
32
0.0461545
13
-2.61934e-010
23
0.0188733
33
0.0461545
0
3DFACE
8
GOLF_PUTTER
62
3
10
-0.00119647
20
0.00364154
30
0.0911345
11
-2.61934e-010
21
0.0188733
31
0.0461545
12
-0.00119647
22
0.0187235
32
0.0461314
13
-0.00119647
23
0.0187235
33
0.0461314
0
3DFACE
8
GOLF_PUTTER
62
3
10
-0.00119647
20
0.00364154
30
0.0911345
11
-2.61934e-010
21
0.00379906
31
0.0911345
12
-2.61934e-010
22
0.0188733
32
0.0461545
13
-2.61934e-010
23
0.0188733
33
0.0461545
0
3DFACE
8
GOLF_PUTTER
62
3
10
-0.0023114
20
0.00317972
30
0.0911345
11
-0.00119647
21
0.0187235
31
0.0461314
12
-0.0023114
22
0.0182843
32
0.0460639
13
-0.0023114
23
0.0182843
33
0.0460639
0
3DFACE
8
GOLF_PUTTER
62
3
10
-0.0023114
20
0.00317972
30
0.0911345
11
-0.00119647
21
0.00364154
31
0.0911345
12
-0.00119647
22
0.0187235
32
0.0461314
13
-0.00119647
23
0.0187235
33
0.0461314
0
3DFACE
8
GOLF_PUTTER
62
3
10
-0.00326881
20
0.00244507
30
0.0911345
11
-0.0023114
21
0.0182843
31
0.0460639
12
-0.00326881
22
0.0175857
32
0.0459566
13
-0.00326881
23
0.0175857
33
0.0459566
0
3DFACE
8
GOLF_PUTTER
62
3
10
-0.00326881
20
0.00244507
30
0.0911345
11
-0.0023114
21
0.00317972
31
0.0911345
12
-0.0023114
22
0.0182843
32
0.0460639
13
-0.0023114
23
0.0182843
33
0.0460639
0
3DFACE
8
GOLF_PUTTER
62
3
10
-0.00326881
20
0.00244507
30
0.0911345
11
-0.00326881
21
0.0175857
31
0.0459566
12
-0.00400346
22
0.0166751
32
0.0458167
13
-0.00400346
23
0.0166751
33
0.0458167
0
3DFACE
8
GOLF_PUTTER
62
3
10
-0.00400346
20
0.00148766
30
0.0911345
11
-0.00326881
21
0.00244507
31
0.0911345
12
-0.00400346
22
0.0166751
32
0.0458167
13
-0.00400346
23
0.0166751
33
0.0458167
0
3DFACE
8
GOLF_PUTTER
62
3
10
-0.00400346
20
0.00148766
30
0.0911345
11
-0.00400346
21
0.0166751
31
0.0458167
12
-0.00446528
22
0.0156148
32
0.0456538
13
-0.00446528
23
0.0156148
33
0.0456538
0
3DFACE
8
GOLF_PUTTER
62
3
10
-0.00446528
20
0.000372729
30
0.0911345
11
-0.00400346
21
0.00148766
31
0.0911345
12
-0.00446528
22
0.0156148
32
0.0456538
13
-0.00446528
23
0.0156148
33
0.0456538
0
3DFACE
8
GOLF_PUTTER
62
3
10
-0.0046228
20
-0.00082374
30
0.0911345
11
-0.00446528
21
0.000372729
31
0.0911345
12
-0.0046228
22
0.0144769
32
0.0454789
13
-0.0046228
23
0.0144769
33
0.0454789
0
3DFACE
8
GOLF_PUTTER
62
3
10
-0.00446528
20
0.000372729
30
0.0911345
11
-0.00446528
21
0.0156148
31
0.0456538
12
-0.0046228
22
0.0144769
32
0.0454789
13
-0.0046228
23
0.0144769
33
0.0454789
0
3DFACE
8
GOLF_PUTTER
62
3
10
-0.0046228
20
-0.00082374
30
0.0911345
11
-0.0046228
21
0.0144769
31
0.0454789
12
-0.00446528
22
0.0133391
32
0.0453041
13
-0.00446528
23
0.0133391
33
0.0453041
0
3DFACE
8
GOLF_PUTTER
62
3
10
-0.00446528
20
-0.00202021
30
0.0911345
11
-0.0046228
21
-0.00082374
31
0.0911345
12
-0.00446528
22
0.0133391
32
0.0453041
13
-0.00446528
23
0.0133391
33
0.0453041
0
3DFACE
8
GOLF_PUTTER
62
3
10
-0.00400346
20
-0.00313514
30
0.0911345
11
-0.00446528
21
-0.00202021
31
0.0911345
12
-0.00400346
22
0.0122787
32
0.0451411
13
-0.00400346
23
0.0122787
33
0.0451411
0
3DFACE
8
GOLF_PUTTER
62
3
10
-0.00446528
20
-0.00202021
30
0.0911345
11
-0.00446528
21
0.0133391
31
0.0453041
12
-0.00400346
22
0.0122787
32
0.0451411
13
-0.00400346
23
0.0122787
33
0.0451411
0
3DFACE
8
GOLF_PUTTER
62
3
10
-0.00400346
20
-0.00313514
30
0.0911345
11
-0.00400346
21
0.0122787
31
0.0451411
12
-0.00326881
22
0.0113682
32
0.0450012
13
-0.00326881
23
0.0113682
33
0.0450012
0
3DFACE
8
GOLF_PUTTER
62
3
10
-0.00326881
20
-0.00409255
30
0.0911345
11
-0.00400346
21
-0.00313514
31
0.0911345
12
-0.00326881
22
0.0113682
32
0.0450012
13
-0.00326881
23
0.0113682
33
0.0450012
0
3DFACE
8
GOLF_PUTTER
62
3
10
-0.0023114
20
-0.0048272
30
0.0911345
11
-0.00326881
21
0.0113682
31
0.0450012
12
-0.0023114
22
0.0106695
32
0.0448939
13
-0.0023114
23
0.0106695
33
0.0448939
0
3DFACE
8
GOLF_PUTTER
62
3
10
-0.0023114
20
-0.0048272
30
0.0911345
11
-0.00326881
21
-0.00409255
31
0.0911345
12
-0.00326881
22
0.0113682
32
0.0450012
13
-0.00326881
23
0.0113682
33
0.0450012
0
3DFACE
8
GOLF_PUTTER
62
3
10
-0.00119647
20
-0.00528902
30
0.0911345
11
-0.0023114
21
0.0106695
31
0.0448939
12
-0.00119647
22
0.0102303
32
0.0448264
13
-0.00119647
23
0.0102303
33
0.0448264
0
3DFACE
8
GOLF_PUTTER
62
3
10
-0.00119647
20
-0.00528902
30
0.0911345
11
-0.0023114
21
-0.0048272
31
0.0911345
12
-0.0023114
22
0.0106695
32
0.0448939
13
-0.0023114
23
0.0106695
33
0.0448939
0
3DFACE
8
GOLF_PUTTER
62
3
10
-2.61934e-010
20
-0.00544654
30
0.0911345
11
-0.00119647
21
0.0102303
31
0.0448264
12
-2.61934e-010
22
0.0100805
32
0.0448034
13
-2.61934e-010
23
0.0100805
33
0.0448034
0
3DFACE
8
GOLF_PUTTER
62
3
10
-2.61934e-010
20
-0.00544654
30
0.0911345
11
-0.00119647
21
-0.00528902
31
0.0911345
12
-0.00119647
22
0.0102303
32
0.0448264
13
-0.00119647
23
0.0102303
33
0.0448264
0
3DFACE
8
GOLF_PUTTER
62
3
10
0.00119647
20
0.0102303
30
0.0448264
11
-2.61934e-010
21
-0.00544654
31
0.0911345
12
-2.61934e-010
22
0.0100805
32
0.0448034
13
-2.61934e-010
23
0.0100805
33
0.0448034
0
3DFACE
8
GOLF_PUTTER
62
3
10
0.00119647
20
-0.00528902
30
0.0911345
11
-2.61934e-010
21
-0.00544654
31
0.0911345
12
0.00119647
22
0.0102303
32
0.0448264
13
0.00119647
23
0.0102303
33
0.0448264
0
3DFACE
8
GOLF_PUTTER
62
3
10
0.0023114
20
0.0106695
30
0.0448939
11
0.00119647
21
-0.00528902
31
0.0911345
12
0.00119647
22
0.0102303
32
0.0448264
13
0.00119647
23
0.0102303
33
0.0448264
0
3DFACE
8
GOLF_PUTTER
62
3
10
0.0023114
20
-0.0048272
30
0.0911345
11
0.00119647
21
-0.00528902
31
0.0911345
12
0.0023114
22
0.0106695
32
0.0448939
13
0.0023114
23
0.0106695
33
0.0448939
0
3DFACE
8
GOLF_PUTTER
62
3
10
0.00326881
20
0.0113682
30
0.0450012
11
0.0023114
21
-0.0048272
31
0.0911345
12
0.0023114
22
0.0106695
32
0.0448939
13
0.0023114
23
0.0106695
33
0.0448939
0
3DFACE
8
GOLF_PUTTER
62
3
10
0.00326881
20
-0.00409255
30
0.0911345
11
0.0023114
21
-0.0048272
31
0.0911345
12
0.00326881
22
0.0113682
32
0.0450012
13
0.00326881
23
0.0113682
33
0.0450012
0
3DFACE
8
GOLF_PUTTER
62
3
10
0.00400346
20
-0.00313514
30
0.0911345
11
0.00326881
21
-0.00409255
31
0.0911345
12
0.00326881
22
0.0113682
32
0.0450012
13
0.00326881
23
0.0113682
33
0.0450012
0
3DFACE
8
GOLF_PUTTER
62
3
10
0.00400346
20
0.0122787
30
0.0451411
11
0.00400346
21
-0.00313514
31
0.0911345
12
0.00326881
22
0.0113682
32
0.0450012
13
0.00326881
23
0.0113682
33
0.0450012
0
3DFACE
8
GOLF_PUTTER
62
3
10
0.00446528
20
-0.00202021
30
0.0911345
11
0.00400346
21
-0.00313514
31
0.0911345
12
0.00400346
22
0.0122787
32
0.0451411
13
0.00400346
23
0.0122787
33
0.0451411
0
3DFACE
8
GOLF_PUTTER
62
3
10
0.00446528
20
0.0133391
30
0.0453041
11
0.00446528
21
-0.00202021
31
0.0911345
12
0.00400346
22
0.0122787
32
0.0451411
13
0.00400346
23
0.0122787
33
0.0451411
0
3DFACE
8
GOLF_PUTTER
62
3
10
-0.00663104
20
-0.0991482
30
0.0280197
11
-0.00663104
21
-0.105324
31
0.0256228
12
0.00663104
22
-0.105324
32
0.0256228
13
0.00663104
23
-0.105324
33
0.0256228
0
3DFACE
8
GOLF_PUTTER
62
3
10
0.00663104
20
-0.0991482
30
0.0280197
11
-0.00663104
21
-0.0991482
31
0.0280197
12
0.00663104
22
-0.105324
32
0.0256228
13
0.00663104
23
-0.105324
33
0.0256228
0
3DFACE
8
GOLF_PUTTER
62
3
10
-0.00663104
20
-0.105324
30
0.0256228
11
-0.00663104
21
-0.109505
31
0.0199894
12
0.00663104
22
-0.109505
32
0.0199894
13
0.00663104
23
-0.109505
33
0.0199894
0
3DFACE
8
GOLF_PUTTER
62
3
10
0.00663104
20
-0.105324
30
0.0256228
11
-0.00663104
21
-0.105324
31
0.0256228
12
0.00663104
22
-0.109505
32
0.0199894
13
0.00663104
23
-0.109505
33
0.0199894
0
3DFACE
8
GOLF_PUTTER
62
3
10
-0.00663104
20
-0.109505
30
0.0199894
11
-0.00663104
21
-0.110572
31
0.0126289
12
0.00663104
22
-0.110572
32
0.0126289
13
0.00663104
23
-0.110572
33
0.0126289
0
3DFACE
8
GOLF_PUTTER
62
3
10
0.00663104
20
-0.109505
30
0.0199894
11
-0.00663104
21
-0.109505
31
0.0199894
12
0.00663104
22
-0.110572
32
0.0126289
13
0.00663104
23
-0.110572
33
0.0126289
0
3DFACE
8
GOLF_PUTTER
62
3
10
-0.00663104
20
-0.110572
30
0.0126289
11
-0.00663104
21
-0.108243
31
0.00556156
12
0.00663104
22
-0.108243
32
0.00556156
13
0.00663104
23
-0.108243
33
0.00556156
0
3DFACE
8
GOLF_PUTTER
62
3
10
0.00663104
20
-0.110572
30
0.0126289
11
-0.00663104
21
-0.110572
31
0.0126289
12
0.00663104
22
-0.108243
32
0.00556156
13
0.00663104
23
-0.108243
33
0.00556156
0
3DFACE
8
GOLF_PUTTER
62
3
10
-0.00663104
20
-0.108243
30
0.00556156
11
-0.00663104
21
-0.103146
31
0.000728872
12
0.00663104
22
-0.103146
32
0.000728872
13
0.00663104
23
-0.103146
33
0.000728872
0
3DFACE
8
GOLF_PUTTER
62
3
10
0.00663104
20
-0.108243
30
0.00556156
11
-0.00663104
21
-0.108243
31
0.00556156
12
0.00663104
22
-0.103146
32
0.000728872
13
0.00663104
23
-0.103146
33
0.000728872
0
3DFACE
8
GOLF_PUTTER
62
3
10
-0.00663104
20
-0.103146
30
0.000728872
11
-0.00663104
21
-0.0965672
31
0.000102406
12
0.00663104
22
-0.0965672
32
0.000102406
13
0.00663104
23
-0.0965672
33
0.000102406
0
3DFACE
8
GOLF_PUTTER
62
3
10
0.00663104
20
-0.103146
30
0.000728872
11
-0.00663104
21
-0.103146
31
0.000728872
12
0.00663104
22
-0.0965672
32
0.000102406
13
0.00663104
23
-0.0965672
33
0.000102406
0
3DFACE
8
GOLF_PUTTER
62
3
10
-0.00663104
20
-0.0965672
30
0.000102406
11
-0.00663104
21
-0.0823023
31
0
12
0.00663104
22
-0.0823023
32
0
13
0.00663104
23
-0.0823023
33
0
0
3DFACE
8
GOLF_PUTTER
62
3
10
0.00663104
20
-0.0965672
30
0.000102406
11
-0.00663104
21
-0.0965672
31
0.000102406
12
0.00663104
22
-0.0823023
32
0
13
0.00663104
23
-0.0823023
33
0
0
3DFACE
8
GOLF_PUTTER
62
3
10
-0.00663104
20
-0.0700657
30
0.000949444
11
0.00663104
21
-0.0700657
31
0.000949444
12
-0.00663104
22
-0.0823023
32
0
13
-0.00663104
23
-0.0823023
33
0
0
3DFACE
8
GOLF_PUTTER
62
3
10
0.00663104
20
-0.0700657
30
0.000949444
11
0.00663104
21
-0.0823023
31
0
12
-0.00663104
22
-0.0823023
32
0
13
-0.00663104
23
-0.0823023
33
0
0
3DFACE
8
GOLF_PUTTER
62
3
10
-0.00663104
20
-0.0534891
30
0.0035163
11
0.00663104
21
-0.0700657
31
0.000949444
12
-0.00663104
22
-0.0700657
32
0.000949444
13
-0.00663104
23
-0.0700657
33
0.000949444
0
3DFACE
8
GOLF_PUTTER
62
3
10
-0.00663104
20
-0.0534891
30
0.0035163
11
0.00663104
21
-0.0534891
31
0.0035163
12
0.00663104
22
-0.0700657
32
0.000949444
13
0.00663104
23
-0.0700657
33
0.000949444
0
3DFACE
8
GOLF_PUTTER
62
3
10
-0.00663104
20
-0.0326016
30
0.00791323
11
0.00663104
21
-0.0534891
31
0.0035163
12
-0.00663104
22
-0.0534891
32
0.0035163
13
-0.00663104
23
-0.0534891
33
0.0035163
0
3DFACE
8
GOLF_PUTTER
62
3
10
-0.00663104
20
-0.0326016
30
0.00791323
11
0.00663104
21
-0.0326016
31
0.00791323
12
0.00663104
22
-0.0534891
32
0.0035163
13
0.00663104
23
-0.0534891
33
0.0035163
0
3DFACE
8
GOLF_PUTTER
62
3
10
-0.00663104
20
-0.014907
30
0.0124877
11
0.00663104
21
-0.0326016
31
0.00791323
12
-0.00663104
22
-0.0326016
32
0.00791323
13
-0.00663104
23
-0.0326016
33
0.00791323
0
3DFACE
8
GOLF_PUTTER
62
3
10
-0.00663104
20
-0.014907
30
0.0124877
11
0.00663104
21
-0.014907
31
0.0124877
12
0.00663104
22
-0.0326016
32
0.00791323
13
0.00663104
23
-0.0326016
33
0.00791323
0
3DFACE
8
GOLF_PUTTER
62
3
10
-0.00663104
20
0.000612914
30
0.0171226
11
0.00663104
21
-0.014907
31
0.0124877
12
-0.00663104
22
-0.014907
32
0.0124877
13
-0.00663104
23
-0.014907
33
0.0124877
0
3DFACE
8
GOLF_PUTTER
62
3
10
-0.00663104
20
0.000612914
30
0.0171226
11
0.00663104
21
0.000612914
31
0.0171226
12
0.00663104
22
-0.014907
32
0.0124877
13
0.00663104
23
-0.014907
33
0.0124877
0
3DFACE
8
GOLF_PUTTER
62
3
10
-0.00663104
20
0.0141044
30
0.0215747
11
0.00663104
21
0.000612914
31
0.0171226
12
-0.00663104
22
0.000612914
32
0.0171226
13
-0.00663104
23
0.000612914
33
0.0171226
0
3DFACE
8
GOLF_PUTTER
62
3
10
-0.00663104
20
0.0141044
30
0.0215747
11
0.00663104
21
0.0141044
31
0.0215747
12
0.00663104
22
0.000612914
32
0.0171226
13
0.00663104
23
0.000612914
33
0.0171226
0
3DFACE
8
GOLF_PUTTER
62
3
10
-0.00663104
20
0.0272631
30
0.0263884
11
0.00663104
21
0.0141044
31
0.0215747
12
-0.00663104
22
0.0141044
32
0.0215747
13
-0.00663104
23
0.0141044
33
0.0215747
0
3DFACE
8
GOLF_PUTTER
62
3
10
-0.00663104
20
0.0272631
30
0.0263884
11
0.00663104
21
0.0272631
31
0.0263884
12
0.00663104
22
0.0141044
32
0.0215747
13
0.00663104
23
0.0141044
33
0.0215747
0
3DFACE
8
GOLF_PUTTER
62
3
10
-0.00663104
20
0.0334264
30
0.0288117
11
0.00663104
21
0.0272631
31
0.0263884
12
-0.00663104
22
0.0272631
32
0.0263884
13
-0.00663104
23
0.0272631
33
0.0263884
0
3DFACE
8
GOLF_PUTTER
62
3
10
-0.00663104
20
0.0334264
30
0.0288117
11
0.00663104
21
0.0334264
31
0.0288117
12
0.00663104
22
0.0272631
32
0.0263884
13
0.00663104
23
0.0272631
33
0.0263884
0
3DFACE
8
GOLF_PUTTER
62
3
10
-0.00663104
20
0.0368371
30
0.0334512
11
0.00663104
21
0.0334264
31
0.0288117
12
-0.00663104
22
0.0334264
32
0.0288117
13
-0.00663104
23
0.0334264
33
0.0288117
0
3DFACE
8
GOLF_PUTTER
62
3
10
-0.00663104
20
0.0368371
30
0.0334512
11
0.00663104
21
0.0368371
31
0.0334512
12
0.00663104
22
0.0334264
32
0.0288117
13
0.00663104
23
0.0334264
33
0.0288117
0
3DFACE
8
GOLF_PUTTER
62
3
10
-0.00663104
20
0.0370935
30
0.0388528
11
0.00663104
21
0.0368371
31
0.0334512
12
-0.00663104
22
0.0368371
32
0.0334512
13
-0.00663104
23
0.0368371
33
0.0334512
0
3DFACE
8
GOLF_PUTTER
62
3
10
-0.00663104
20
0.0370935
30
0.0388528
11
0.00663104
21
0.0370935
31
0.0388528
12
0.00663104
22
0.0368371
32
0.0334512
13
0.00663104
23
0.0368371
33
0.0334512
0
3DFACE
8
GOLF_PUTTER
62
3
10
-0.00663104
20
0.034123
30
0.0436121
11
0.00663104
21
0.0370935
31
0.0388528
12
-0.00663104
22
0.0370935
32
0.0388528
13
-0.00663104
23
0.0370935
33
0.0388528
0
3DFACE
8
GOLF_PUTTER
62
3
10
-0.00663104
20
0.034123
30
0.0436121
11
0.00663104
21
0.034123
31
0.0436121
12
0.00663104
22
0.0370935
32
0.0388528
13
0.00663104
23
0.0370935
33
0.0388528
0
3DFACE
8
GOLF_PUTTER
62
3
10
-0.00663104
20
0.028719
30
0.0464838
11
0.00663104
21
0.034123
31
0.0436121
12
-0.00663104
22
0.034123
32
0.0436121
13
-0.00663104
23
0.034123
33
0.0436121
0
3DFACE
8
GOLF_PUTTER
62
3
10
-0.00663104
20
0.028719
30
0.0464838
11
0.00663104
21
0.028719
31
0.0464838
12
0.00663104
22
0.034123
32
0.0436121
13
0.00663104
23
0.034123
33
0.0436121
0
3DFACE
8
GOLF_PUTTER
62
3
10
-0.00663104
20
0.0223306
30
0.0466857
11
0.00663104
21
0.028719
31
0.0464838
12
-0.00663104
22
0.028719
32
0.0464838
13
-0.00663104
23
0.028719
33
0.0464838
0
3DFACE
8
GOLF_PUTTER
62
3
10
-0.00663104
20
0.0223306
30
0.0466857
11
0.00663104
21
0.0223306
31
0.0466857
12
0.00663104
22
0.028719
32
0.0464838
13
0.00663104
23
0.028719
33
0.0464838
0
3DFACE
8
GOLF_PUTTER
62
3
10
-0.0077207
20
-0.102669
30
0.00177803
11
-0.0077207
21
-0.107294
31
0.00616341
12
-0.0077207
22
-0.0965115
32
0.00119169
13
-0.0077207
23
-0.0965115
33
0.00119169
0
3DFACE
8
GOLF_PUTTER
62
3
10
-0.0077207
20
-0.107294
30
0.00616341
11
-0.0077207
21
-0.109457
31
0.0127264
12
-0.0077207
22
-0.0965115
32
0.00119169
13
-0.0077207
23
-0.0965115
33
0.00119169
0
3DFACE
8
GOLF_PUTTER
62
3
10
-0.0077207
20
-0.109457
30
0.0127264
11
-0.0077207
21
-0.108467
31
0.0195608
12
-0.0077207
22
-0.0965115
32
0.00119169
13
-0.0077207
23
-0.0965115
33
0.00119169
0
3DFACE
8
GOLF_PUTTER
62
3
10
-0.0077207
20
-0.0965115
30
0.00119169
11
-0.0077207
21
-0.108467
31
0.0195608
12
-0.0077207
22
-0.0823406
32
0.00108996
13
-0.0077207
23
-0.0823406
33
0.00108996
0
3DFACE
8
GOLF_PUTTER
62
3
10
-0.0077207
20
0.0333534
30
0.042787
11
-0.0077207
21
0.0359889
31
0.0385645
12
-0.0077207
22
0.0357643
32
0.0338315
13
-0.0077207
23
0.0357643
33
0.0338315
0
3DFACE
8
GOLF_PUTTER
62
3
10
-0.0077207
20
0.0333534
30
0.042787
11
-0.0077207
21
0.0357643
31
0.0338315
12
-0.0077207
22
0.0327349
32
0.0297107
13
-0.0077207
23
0.0327349
33
0.0297107
0
3DFACE
8
GOLF_PUTTER
62
3
10
-0.0077207
20
0.0333534
30
0.042787
11
-0.0077207
21
0.0327349
31
0.0297107
12
-0.0077207
22
0.0268765
32
0.0274072
13
-0.0077207
23
0.0268765
33
0.0274072
0
3DFACE
8
GOLF_PUTTER
62
3
10
-0.0077207
20
0.0284314
30
0.0454027
11
-0.0077207
21
0.0333534
31
0.042787
12
-0.0077207
22
0.0268765
32
0.0274072
13
-0.0077207
23
0.0268765
33
0.0274072
0
3DFACE
8
GOLF_PUTTER
62
3
10
-0.0077207
20
0.0223967
30
0.0455934
11
-0.0077207
21
0.0284314
31
0.0454027
12
-0.0077207
22
0.0268765
32
0.0274072
13
-0.0077207
23
0.0268765
33
0.0274072
0
3DFACE
8
GOLF_PUTTER
62
3
10
-0.0077207
20
0.0223967
30
0.0455934
11
-0.0077207
21
0.0268765
31
0.0274072
12
-0.0077207
22
0.0137464
32
0.0226041
13
-0.0077207
23
0.0137464
33
0.0226041
0
3DFACE
8
GOLF_PUTTER
62
3
10
-0.0077207
20
0.0223967
30
0.0455934
11
-0.0077207
21
0.0137464
31
0.0226041
12
-0.0077207
22
0.000286204
32
0.0181622
13
-0.0077207
23
0.000286204
33
0.0181622
0
3DFACE
8
GOLF_PUTTER
62
3
10
-0.0077207
20
-0.098865
30
0.0269607
11
-0.0077207
21
0.0223967
31
0.0455934
12
-0.0077207
22
0.000286204
32
0.0181622
13
-0.0077207
23
0.000286204
33
0.0181622
0
3DFACE
8
GOLF_PUTTER
62
3
10
-0.0077207
20
-0.108467
30
0.0195608
11
-0.0077207
21
-0.104636
31
0.0247207
12
-0.0077207
22
-0.0823406
32
0.00108996
13
-0.0077207
23
-0.0823406
33
0.00108996
0
3DFACE
8
GOLF_PUTTER
62
3
10
-0.0077207
20
-0.104636
30
0.0247207
11
-0.0077207
21
-0.0701914
31
0.00203262
12
-0.0077207
22
-0.0823406
32
0.00108996
13
-0.0077207
23
-0.0823406
33
0.00108996
0
3DFACE
8
GOLF_PUTTER
62
3
10
-0.0077207
20
-0.104636
30
0.0247207
11
-0.0077207
21
-0.0536848
31
0.00458863
12
-0.0077207
22
-0.0701914
32
0.00203262
13
-0.0077207
23
-0.0701914
33
0.00203262
0
3DFACE
8
GOLF_PUTTER
62
3
10
-0.0077207
20
-0.104636
30
0.0247207
11
-0.0077207
21
-0.0328503
31
0.00897441
12
-0.0077207
22
-0.0536848
32
0.00458863
13
-0.0077207
23
-0.0536848
33
0.00458863
0
3DFACE
8
GOLF_PUTTER
62
3
10
-0.0077207
20
-0.098865
30
0.0269607
11
-0.0077207
21
0.000286204
31
0.0181622
12
-0.0077207
22
-0.0151994
32
0.0135376
13
-0.0077207
23
-0.0151994
33
0.0135376
0
3DFACE
8
GOLF_PUTTER
62
3
10
-0.0077207
20
-0.104636
30
0.0247207
11
-0.0077207
21
-0.098865
31
0.0269607
12
-0.0077207
22
-0.0328503
32
0.00897441
13
-0.0077207
23
-0.0328503
33
0.00897441
0
3DFACE
8
GOLF_PUTTER
62
3
10
-0.0077207
20
-0.098865
30
0.0269607
11
-0.0077207
21
-0.0151994
31
0.0135376
12
-0.0077207
22
-0.0328503
32
0.00897441
13
-0.0077207
23
-0.0328503
33
0.00897441
0
3DFACE
8
GOLF_PUTTER
62
3
10
0.0077207
20
-0.107294
30
0.00616341
11
0.0077207
21
-0.102669
31
0.00177803
12
0.0077207
22
-0.0965115
32
0.00119169
13
0.0077207
23
-0.0965115
33
0.00119169
0
3DFACE
8
GOLF_PUTTER
62
3
10
0.0077207
20
-0.109457
30
0.0127264
11
0.0077207
21
-0.107294
31
0.00616341
12
0.0077207
22
-0.0965115
32
0.00119169
13
0.0077207
23
-0.0965115
33
0.00119169
0
3DFACE
8
GOLF_PUTTER
62
3
10
0.0077207
20
-0.108467
30
0.0195608
11
0.0077207
21
-0.109457
31
0.0127264
12
0.0077207
22
-0.0965115
32
0.00119169
13
0.0077207
23
-0.0965115
33
0.00119169
0
3DFACE
8
GOLF_PUTTER
62
3
10
0.0077207
20
-0.108467
30
0.0195608
11
0.0077207
21
-0.0965115
31
0.00119169
12
0.0077207
22
-0.0823406
32
0.00108996
13
0.0077207
23
-0.0823406
33
0.00108996
0
3DFACE
8
GOLF_PUTTER
62
3
10
0.0077207
20
0.0359889
30
0.0385645
11
0.0077207
21
0.0333534
31
0.042787
12
0.0077207
22
0.0357643
32
0.0338315
13
0.0077207
23
0.0357643
33
0.0338315
0
3DFACE
8
GOLF_PUTTER
62
3
10
0.0077207
20
0.0357643
30
0.0338315
11
0.0077207
21
0.0333534
31
0.042787
12
0.0077207
22
0.0327349
32
0.0297107
13
0.0077207
23
0.0327349
33
0.0297107
0
3DFACE
8
GOLF_PUTTER
62
3
10
0.0077207
20
0.0327349
30
0.0297107
11
0.0077207
21
0.0333534
31
0.042787
12
0.0077207
22
0.0268765
32
0.0274072
13
0.0077207
23
0.0268765
33
0.0274072
0
3DFACE
8
GOLF_PUTTER
62
3
10
0.0077207
20
0.0333534
30
0.042787
11
0.0077207
21
0.0284314
31
0.0454027
12
0.0077207
22
0.0268765
32
0.0274072
13
0.0077207
23
0.0268765
33
0.0274072
0
3DFACE
8
GOLF_PUTTER
62
3
10
0.0077207
20
0.0284314
30
0.0454027
11
0.0077207
21
0.0223967
31
0.0455934
12
0.0077207
22
0.0268765
32
0.0274072
13
0.0077207
23
0.0268765
33
0.0274072
0
3DFACE
8
GOLF_PUTTER
62
3
10
0.0077207
20
0.0268765
30
0.0274072
11
0.0077207
21
0.0223967
31
0.0455934
12
0.0077207
22
0.0137464
32
0.0226041
13
0.0077207
23
0.0137464
33
0.0226041
0
3DFACE
8
GOLF_PUTTER
62
3
10
0.0077207
20
0.0137464
30
0.0226041
11
0.0077207
21
0.0223967
31
0.0455934
12
0.0077207
22
0.000286204
32
0.0181622
13
0.0077207
23
0.000286204
33
0.0181622
0
3DFACE
8
GOLF_PUTTER
62
3
10
0.0077207
20
0.0223967
30
0.0455934
11
0.0077207
21
-0.098865
31
0.0269607
12
0.0077207
22
0.000286204
32
0.0181622
13
0.0077207
23
0.000286204
33
0.0181622
0
3DFACE
8
GOLF_PUTTER
62
3
10
0.0077207
20
-0.104636
30
0.0247207
11
0.0077207
21
-0.108467
31
0.0195608
12
0.0077207
22
-0.0823406
32
0.00108996
13
0.0077207
23
-0.0823406
33
0.00108996
0
3DFACE
8
GOLF_PUTTER
62
3
10
0.0077207
20
-0.0701914
30
0.00203262
11
0.0077207
21
-0.104636
31
0.0247207
12
0.0077207
22
-0.0823406
32
0.00108996
13
0.0077207
23
-0.0823406
33
0.00108996
0
3DFACE
8
GOLF_PUTTER
62
3
10
0.0077207
20
-0.0536848
30
0.00458863
11
0.0077207
21
-0.104636
31
0.0247207
12
0.0077207
22
-0.0701914
32
0.00203262
13
0.0077207
23
-0.0701914
33
0.00203262
0
3DFACE
8
GOLF_PUTTER
62
3
10
0.0077207
20
-0.0328503
30
0.00897441
11
0.0077207
21
-0.104636
31
0.0247207
12
0.0077207
22
-0.0536848
32
0.00458863
13
0.0077207
23
-0.0536848
33
0.00458863
0
3DFACE
8
GOLF_PUTTER
62
3
10
0.0077207
20
0.000286204
30
0.0181622
11
0.0077207
21
-0.098865
31
0.0269607
12
0.0077207
22
-0.0151994
32
0.0135376
13
0.0077207
23
-0.0151994
33
0.0135376
0
3DFACE
8
GOLF_PUTTER
62
3
10
0.0077207
20
-0.0151994
30
0.0135376
11
0.0077207
21
-0.098865
31
0.0269607
12
0.0077207
22
-0.0328503
32
0.00897441
13
0.0077207
23
-0.0328503
33
0.00897441
0
3DFACE
8
GOLF_PUTTER
62
3
10
0.0077207
20
-0.098865
30
0.0269607
11
0.0077207
21
-0.104636
31
0.0247207
12
0.0077207
22
-0.0328503
32
0.00897441
13
0.0077207
23
-0.0328503
33
0.00897441
0
3DFACE
8
GOLF_PUTTER
62
3
10
-0.00663104
20
0.0223306
30
0.0466857
11
-0.0077207
21
0.0223967
31
0.0455934
12
-0.0077207
22
-0.098865
32
0.0269607
13
-0.0077207
23
-0.098865
33
0.0269607
0
3DFACE
8
GOLF_PUTTER
62
3
10
-0.00663104
20
-0.0991482
30
0.0280197
11
-0.00663104
21
0.0223306
31
0.0466857
12
-0.0077207
22
-0.098865
32
0.0269607
13
-0.0077207
23
-0.098865
33
0.0269607
0
3DFACE
8
GOLF_PUTTER
62
3
10
-0.00663104
20
-0.0991482
30
0.0280197
11
-0.0077207
21
-0.098865
31
0.0269607
12
-0.0077207
22
-0.104636
32
0.0247207
13
-0.0077207
23
-0.104636
33
0.0247207
0
3DFACE
8
GOLF_PUTTER
62
3
10
-0.00663104
20
-0.105324
30
0.0256228
11
-0.00663104
21
-0.0991482
31
0.0280197
12
-0.0077207
22
-0.104636
32
0.0247207
13
-0.0077207
23
-0.104636
33
0.0247207
0
3DFACE
8
GOLF_PUTTER
62
3
10
-0.00663104
20
-0.109505
30
0.0199894
11
-0.0077207
21
-0.104636
31
0.0247207
12
-0.0077207
22
-0.108467
32
0.0195608
13
-0.0077207
23
-0.108467
33
0.0195608
0
3DFACE
8
GOLF_PUTTER
62
3
10
-0.00663104
20
-0.105324
30
0.0256228
11
-0.0077207
21
-0.104636
31
0.0247207
12
-0.00663104
22
-0.109505
32
0.0199894
13
-0.00663104
23
-0.109505
33
0.0199894
0
3DFACE
8
GOLF_PUTTER
62
3
10
-0.0077207
20
-0.108467
30
0.0195608
11
-0.0077207
21
-0.109457
31
0.0127264
12
-0.00663104
22
-0.110572
32
0.0126289
13
-0.00663104
23
-0.110572
33
0.0126289
0
3DFACE
8
GOLF_PUTTER
62
3
10
-0.00663104
20
-0.109505
30
0.0199894
11
-0.0077207
21
-0.108467
31
0.0195608
12
-0.00663104
22
-0.110572
32
0.0126289
13
-0.00663104
23
-0.110572
33
0.0126289
0
3DFACE
8
GOLF_PUTTER
62
3
10
-0.00663104
20
-0.110572
30
0.0126289
11
-0.0077207
21
-0.107294
31
0.00616341
12
-0.00663104
22
-0.108243
32
0.00556156
13
-0.00663104
23
-0.108243
33
0.00556156
0
3DFACE
8
GOLF_PUTTER
62
3
10
-0.00663104
20
-0.110572
30
0.0126289
11
-0.0077207
21
-0.109457
31
0.0127264
12
-0.0077207
22
-0.107294
32
0.00616341
13
-0.0077207
23
-0.107294
33
0.00616341
0
3DFACE
8
GOLF_PUTTER
62
3
10
-0.00663104
20
-0.108243
30
0.00556156
11
-0.0077207
21
-0.102669
31
0.00177803
12
-0.00663104
22
-0.103146
32
0.000728872
13
-0.00663104
23
-0.103146
33
0.000728872
0
3DFACE
8
GOLF_PUTTER
62
3
10
-0.00663104
20
-0.108243
30
0.00556156
11
-0.0077207
21
-0.107294
31
0.00616341
12
-0.0077207
22
-0.102669
32
0.00177803
13
-0.0077207
23
-0.102669
33
0.00177803
0
3DFACE
8
GOLF_PUTTER
62
3
10
-0.0077207
20
-0.102669
30
0.00177803
11
-0.0077207
21
-0.0965115
31
0.00119169
12
-0.00663104
22
-0.0965672
32
0.000102406
13
-0.00663104
23
-0.0965672
33
0.000102406
0
3DFACE
8
GOLF_PUTTER
62
3
10
-0.00663104
20
-0.103146
30
0.000728872
11
-0.0077207
21
-0.102669
31
0.00177803
12
-0.00663104
22
-0.0965672
32
0.000102406
13
-0.00663104
23
-0.0965672
33
0.000102406
0
3DFACE
8
GOLF_PUTTER
62
3
10
-0.0077207
20
-0.0965115
30
0.00119169
11
-0.0077207
21
-0.0823406
31
0.00108996
12
-0.00663104
22
-0.0823023
32
0
13
-0.00663104
23
-0.0823023
33
0
0
3DFACE
8
GOLF_PUTTER
62
3
10
-0.00663104
20
-0.0965672
30
0.000102406
11
-0.0077207
21
-0.0965115
31
0.00119169
12
-0.00663104
22
-0.0823023
32
0
13
-0.00663104
23
-0.0823023
33
0
0
3DFACE
8
GOLF_PUTTER
62
3
10
-0.0077207
20
-0.0823406
30
0.00108996
11
-0.0077207
21
-0.0701914
31
0.00203262
12
-0.00663104
22
-0.0700657
32
0.000949444
13
-0.00663104
23
-0.0700657
33
0.000949444
0
3DFACE
8
GOLF_PUTTER
62
3
10
-0.0077207
20
-0.0823406
30
0.00108996
11
-0.00663104
21
-0.0700657
31
0.000949444
12
-0.00663104
22
-0.0823023
32
0
13
-0.00663104
23
-0.0823023
33
0
0
3DFACE
8
GOLF_PUTTER
62
3
10
-0.0077207
20
-0.0701914
30
0.00203262
11
-0.00663104
21
-0.0534891
31
0.0035163
12
-0.00663104
22
-0.0700657
32
0.000949444
13
-0.00663104
23
-0.0700657
33
0.000949444
0
3DFACE
8
GOLF_PUTTER
62
3
10
-0.0077207
20
-0.0536848
30
0.00458863
11
-0.00663104
21
-0.0534891
31
0.0035163
12
-0.0077207
22
-0.0701914
32
0.00203262
13
-0.0077207
23
-0.0701914
33
0.00203262
0
3DFACE
8
GOLF_PUTTER
62
3
10
-0.0077207
20
-0.0536848
30
0.00458863
11
-0.00663104
21
-0.0326016
31
0.00791323
12
-0.00663104
22
-0.0534891
32
0.0035163
13
-0.00663104
23
-0.0534891
33
0.0035163
0
3DFACE
8
GOLF_PUTTER
62
3
10
-0.0077207
20
-0.0328503
30
0.00897441
11
-0.00663104
21
-0.0326016
31
0.00791323
12
-0.0077207
22
-0.0536848
32
0.00458863
13
-0.0077207
23
-0.0536848
33
0.00458863
0
3DFACE
8
GOLF_PUTTER
62
3
10
-0.0077207
20
-0.0328503
30
0.00897441
11
-0.00663104
21
-0.014907
31
0.0124877
12
-0.00663104
22
-0.0326016
32
0.00791323
13
-0.00663104
23
-0.0326016
33
0.00791323
0
3DFACE
8
GOLF_PUTTER
62
3
10
-0.0077207
20
-0.0151994
30
0.0135376
11
-0.00663104
21
-0.014907
31
0.0124877
12
-0.0077207
22
-0.0328503
32
0.00897441
13
-0.0077207
23
-0.0328503
33
0.00897441
0
3DFACE
8
GOLF_PUTTER
62
3
10
-0.0077207
20
-0.0151994
30
0.0135376
11
-0.00663104
21
0.000612914
31
0.0171226
12
-0.00663104
22
-0.014907
32
0.0124877
13
-0.00663104
23
-0.014907
33
0.0124877
0
3DFACE
8
GOLF_PUTTER
62
3
10
-0.0077207
20
0.000286204
30
0.0181622
11
-0.00663104
21
0.000612914
31
0.0171226
12
-0.0077207
22
-0.0151994
32
0.0135376
13
-0.0077207
23
-0.0151994
33
0.0135376
0
3DFACE
8
GOLF_PUTTER
62
3
10
-0.0077207
20
0.0137464
30
0.0226041
11
-0.00663104
21
0.0141044
31
0.0215747
12
-0.00663104
22
0.000612914
32
0.0171226
13
-0.00663104
23
0.000612914
33
0.0171226
0
3DFACE
8
GOLF_PUTTER
62
3
10
-0.0077207
20
0.000286204
30
0.0181622
11
-0.0077207
21
0.0137464
31
0.0226041
12
-0.00663104
22
0.000612914
32
0.0171226
13
-0.00663104
23
0.000612914
33
0.0171226
0
3DFACE
8
GOLF_PUTTER
62
3
10
-0.0077207
20
0.0137464
30
0.0226041
11
-0.00663104
21
0.0272631
31
0.0263884
12
-0.00663104
22
0.0141044
32
0.0215747
13
-0.00663104
23
0.0141044
33
0.0215747
0
3DFACE
8
GOLF_PUTTER
62
3
10
-0.0077207
20
0.0268765
30
0.0274072
11
-0.00663104
21
0.0272631
31
0.0263884
12
-0.0077207
22
0.0137464
32
0.0226041
13
-0.0077207
23
0.0137464
33
0.0226041
0
3DFACE
8
GOLF_PUTTER
62
3
10
-0.0077207
20
0.0327349
30
0.0297107
11
-0.00663104
21
0.0334264
31
0.0288117
12
-0.00663104
22
0.0272631
32
0.0263884
13
-0.00663104
23
0.0272631
33
0.0263884
0
3DFACE
8
GOLF_PUTTER
62
3
10
-0.0077207
20
0.0268765
30
0.0274072
11
-0.0077207
21
0.0327349
31
0.0297107
12
-0.00663104
22
0.0272631
32
0.0263884
13
-0.00663104
23
0.0272631
33
0.0263884
0
3DFACE
8
GOLF_PUTTER
62
3
10
-0.0077207
20
0.0357643
30
0.0338315
11
-0.00663104
21
0.0368371
31
0.0334512
12
-0.00663104
22
0.0334264
32
0.0288117
13
-0.00663104
23
0.0334264
33
0.0288117
0
3DFACE
8
GOLF_PUTTER
62
3
10
-0.0077207
20
0.0327349
30
0.0297107
11
-0.0077207
21
0.0357643
31
0.0338315
12
-0.00663104
22
0.0334264
32
0.0288117
13
-0.00663104
23
0.0334264
33
0.0288117
0
3DFACE
8
GOLF_PUTTER
62
3
10
-0.0077207
20
0.0359889
30
0.0385645
11
-0.00663104
21
0.0370935
31
0.0388528
12
-0.00663104
22
0.0368371
32
0.0334512
13
-0.00663104
23
0.0368371
33
0.0334512
0
3DFACE
8
GOLF_PUTTER
62
3
10
-0.0077207
20
0.0357643
30
0.0338315
11
-0.0077207
21
0.0359889
31
0.0385645
12
-0.00663104
22
0.0368371
32
0.0334512
13
-0.00663104
23
0.0368371
33
0.0334512
0
3DFACE
8
GOLF_PUTTER
62
3
10
-0.00663104
20
0.034123
30
0.0436121
11
-0.00663104
21
0.0370935
31
0.0388528
12
-0.0077207
22
0.0359889
32
0.0385645
13
-0.0077207
23
0.0359889
33
0.0385645
0
3DFACE
8
GOLF_PUTTER
62
3
10
-0.0077207
20
0.0333534
30
0.042787
11
-0.00663104
21
0.034123
31
0.0436121
12
-0.0077207
22
0.0359889
32
0.0385645
13
-0.0077207
23
0.0359889
33
0.0385645
0
3DFACE
8
GOLF_PUTTER
62
3
10
-0.00663104
20
0.028719
30
0.0464838
11
-0.00663104
21
0.034123
31
0.0436121
12
-0.0077207
22
0.0333534
32
0.042787
13
-0.0077207
23
0.0333534
33
0.042787
0
3DFACE
8
GOLF_PUTTER
62
3
10
-0.0077207
20
0.0284314
30
0.0454027
11
-0.00663104
21
0.028719
31
0.0464838
12
-0.0077207
22
0.0333534
32
0.042787
13
-0.0077207
23
0.0333534
33
0.042787
0
3DFACE
8
GOLF_PUTTER
62
3
10
-0.00663104
20
0.0223306
30
0.0466857
11
-0.00663104
21
0.028719
31
0.0464838
12
-0.0077207
22
0.0284314
32
0.0454027
13
-0.0077207
23
0.0284314
33
0.0454027
0
3DFACE
8
GOLF_PUTTER
62
3
10
-0.0077207
20
0.0223967
30
0.0455934
11
-0.00663104
21
0.0223306
31
0.0466857
12
-0.0077207
22
0.0284314
32
0.0454027
13
-0.0077207
23
0.0284314
33
0.0454027
0
3DFACE
8
GOLF_PUTTER
62
3
10
0.00663104
20
-0.0991482
30
0.0280197
11
0.00663104
21
-0.105324
31
0.0256228
12
0.0077207
22
-0.104636
32
0.0247207
13
0.0077207
23
-0.104636
33
0.0247207
0
3DFACE
8
GOLF_PUTTER
62
3
10
0.0077207
20
-0.098865
30
0.0269607
11
0.00663104
21
-0.0991482
31
0.0280197
12
0.0077207
22
-0.104636
32
0.0247207
13
0.0077207
23
-0.104636
33
0.0247207
0
3DFACE
8
GOLF_PUTTER
62
3
10
0.00663104
20
0.0223306
30
0.0466857
11
0.00663104
21
-0.0991482
31
0.0280197
12
0.0077207
22
-0.098865
32
0.0269607
13
0.0077207
23
-0.098865
33
0.0269607
0
3DFACE
8
GOLF_PUTTER
62
3
10
0.0077207
20
0.0223967
30
0.0455934
11
0.00663104
21
0.0223306
31
0.0466857
12
0.0077207
22
-0.098865
32
0.0269607
13
0.0077207
23
-0.098865
33
0.0269607
0
3DFACE
8
GOLF_PUTTER
62
3
10
0.00663104
20
0.0223306
30
0.0466857
11
0.0077207
21
0.0223967
31
0.0455934
12
0.0077207
22
0.0284314
32
0.0454027
13
0.0077207
23
0.0284314
33
0.0454027
0
3DFACE
8
GOLF_PUTTER
62
3
10
0.00663104
20
0.028719
30
0.0464838
11
0.00663104
21
0.0223306
31
0.0466857
12
0.0077207
22
0.0284314
32
0.0454027
13
0.0077207
23
0.0284314
33
0.0454027
0
3DFACE
8
GOLF_PUTTER
62
3
10
0.00663104
20
0.028719
30
0.0464838
11
0.0077207
21
0.0284314
31
0.0454027
12
0.0077207
22
0.0333534
32
0.042787
13
0.0077207
23
0.0333534
33
0.042787
0
3DFACE
8
GOLF_PUTTER
62
3
10
0.00663104
20
0.034123
30
0.0436121
11
0.00663104
21
0.028719
31
0.0464838
12
0.0077207
22
0.0333534
32
0.042787
13
0.0077207
23
0.0333534
33
0.042787
0
3DFACE
8
GOLF_PUTTER
62
3
10
0.00663104
20
0.034123
30
0.0436121
11
0.0077207
21
0.0333534
31
0.042787
12
0.0077207
22
0.0359889
32
0.0385645
13
0.0077207
23
0.0359889
33
0.0385645
0
3DFACE
8
GOLF_PUTTER
62
3
10
0.00663104
20
0.0370935
30
0.0388528
11
0.00663104
21
0.034123
31
0.0436121
12
0.0077207
22
0.0359889
32
0.0385645
13
0.0077207
23
0.0359889
33
0.0385645
0
3DFACE
8
GOLF_PUTTER
62
3
10
0.0077207
20
0.0359889
30
0.0385645
11
0.0077207
21
0.0357643
31
0.0338315
12
0.00663104
22
0.0368371
32
0.0334512
13
0.00663104
23
0.0368371
33
0.0334512
0
3DFACE
8
GOLF_PUTTER
62
3
10
0.00663104
20
0.0370935
30
0.0388528
11
0.0077207
21
0.0359889
31
0.0385645
12
0.00663104
22
0.0368371
32
0.0334512
13
0.00663104
23
0.0368371
33
0.0334512
0
3DFACE
8
GOLF_PUTTER
62
3
10
0.0077207
20
0.0357643
30
0.0338315
11
0.0077207
21
0.0327349
31
0.0297107
12
0.00663104
22
0.0334264
32
0.0288117
13
0.00663104
23
0.0334264
33
0.0288117
0
3DFACE
8
GOLF_PUTTER
62
3
10
0.00663104
20
0.0368371
30
0.0334512
11
0.0077207
21
0.0357643
31
0.0338315
12
0.00663104
22
0.0334264
32
0.0288117
13
0.00663104
23
0.0334264
33
0.0288117
0
3DFACE
8
GOLF_PUTTER
62
3
10
0.0077207
20
0.0327349
30
0.0297107
11
0.0077207
21
0.0268765
31
0.0274072
12
0.00663104
22
0.0272631
32
0.0263884
13
0.00663104
23
0.0272631
33
0.0263884
0
3DFACE
8
GOLF_PUTTER
62
3
10
0.00663104
20
0.0334264
30
0.0288117
11
0.0077207
21
0.0327349
31
0.0297107
12
0.00663104
22
0.0272631
32
0.0263884
13
0.00663104
23
0.0272631
33
0.0263884
0
3DFACE
8
GOLF_PUTTER
62
3
10
0.00663104
20
0.0272631
30
0.0263884
11
0.0077207
21
0.0137464
31
0.0226041
12
0.00663104
22
0.0141044
32
0.0215747
13
0.00663104
23
0.0141044
33
0.0215747
0
3DFACE
8
GOLF_PUTTER
62
3
10
0.00663104
20
0.0272631
30
0.0263884
11
0.0077207
21
0.0268765
31
0.0274072
12
0.0077207
22
0.0137464
32
0.0226041
13
0.0077207
23
0.0137464
33
0.0226041
0
3DFACE
8
GOLF_PUTTER
62
3
10
0.0077207
20
0.0137464
30
0.0226041
11
0.0077207
21
0.000286204
31
0.0181622
12
0.00663104
22
0.000612914
32
0.0171226
13
0.00663104
23
0.000612914
33
0.0171226
0
3DFACE
8
GOLF_PUTTER
62
3
10
0.00663104
20
0.0141044
30
0.0215747
11
0.0077207
21
0.0137464
31
0.0226041
12
0.00663104
22
0.000612914
32
0.0171226
13
0.00663104
23
0.000612914
33
0.0171226
0
3DFACE
8
GOLF_PUTTER
62
3
10
0.00663104
20
0.000612914
30
0.0171226
11
0.0077207
21
-0.0151994
31
0.0135376
12
0.00663104
22
-0.014907
32
0.0124877
13
0.00663104
23
-0.014907
33
0.0124877
0
3DFACE
8
GOLF_PUTTER
62
3
10
0.00663104
20
0.000612914
30
0.0171226
11
0.0077207
21
0.000286204
31
0.0181622
12
0.0077207
22
-0.0151994
32
0.0135376
13
0.0077207
23
-0.0151994
33
0.0135376
0
3DFACE
8
GOLF_PUTTER
62
3
10
0.00663104
20
-0.014907
30
0.0124877
11
0.0077207
21
-0.0328503
31
0.00897441
12
0.00663104
22
-0.0326016
32
0.00791323
13
0.00663104
23
-0.0326016
33
0.00791323
0
3DFACE
8
GOLF_PUTTER
62
3
10
0.00663104
20
-0.014907
30
0.0124877
11
0.0077207
21
-0.0151994
31
0.0135376
12
0.0077207
22
-0.0328503
32
0.00897441
13
0.0077207
23
-0.0328503
33
0.00897441
0
3DFACE
8
GOLF_PUTTER
62
3
10
0.00663104
20
-0.0326016
30
0.00791323
11
0.0077207
21
-0.0536848
31
0.00458863
12
0.00663104
22
-0.0534891
32
0.0035163
13
0.00663104
23
-0.0534891
33
0.0035163
0
3DFACE
8
GOLF_PUTTER
62
3
10
0.00663104
20
-0.0326016
30
0.00791323
11
0.0077207
21
-0.0328503
31
0.00897441
12
0.0077207
22
-0.0536848
32
0.00458863
13
0.0077207
23
-0.0536848
33
0.00458863
0
3DFACE
8
GOLF_PUTTER
62
3
10
0.00663104
20
-0.0534891
30
0.0035163
11
0.0077207
21
-0.0701914
31
0.00203262
12
0.00663104
22
-0.0700657
32
0.000949444
13
0.00663104
23
-0.0700657
33
0.000949444
0
3DFACE
8
GOLF_PUTTER
62
3
10
0.00663104
20
-0.0534891
30
0.0035163
11
0.0077207
21
-0.0536848
31
0.00458863
12
0.0077207
22
-0.0701914
32
0.00203262
13
0.0077207
23
-0.0701914
33
0.00203262
0
3DFACE
8
GOLF_PUTTER
62
3
10
0.00663104
20
-0.0700657
30
0.000949444
11
0.0077207
21
-0.0823406
31
0.00108996
12
0.00663104
22
-0.0823023
32
0
13
0.00663104
23
-0.0823023
33
0
0
3DFACE
8
GOLF_PUTTER
62
3
10
0.0077207
20
-0.0701914
30
0.00203262
11
0.0077207
21
-0.0823406
31
0.00108996
12
0.00663104
22
-0.0700657
32
0.000949444
13
0.00663104
23
-0.0700657
33
0.000949444
0
3DFACE
8
GOLF_PUTTER
62
3
10
0.0077207
20
-0.0965115
30
0.00119169
11
0.00663104
21
-0.0965672
31
0.000102406
12
0.00663104
22
-0.0823023
32
0
13
0.00663104
23
-0.0823023
33
0
0
3DFACE
8
GOLF_PUTTER
62
3
10
0.0077207
20
-0.0823406
30
0.00108996
11
0.0077207
21
-0.0965115
31
0.00119169
12
0.00663104
22
-0.0823023
32
0
13
0.00663104
23
-0.0823023
33
0
0
3DFACE
8
GOLF_PUTTER
62
3
10
0.0077207
20
-0.102669
30
0.00177803
11
0.00663104
21
-0.103146
31
0.000728872
12
0.00663104
22
-0.0965672
32
0.000102406
13
0.00663104
23
-0.0965672
33
0.000102406
0
3DFACE
8
GOLF_PUTTER
62
3
10
0.0077207
20
-0.0965115
30
0.00119169
11
0.0077207
21
-0.102669
31
0.00177803
12
0.00663104
22
-0.0965672
32
0.000102406
13
0.00663104
23
-0.0965672
33
0.000102406
0
3DFACE
8
GOLF_PUTTER
62
3
10
0.0077207
20
-0.102669
30
0.00177803
11
0.00663104
21
-0.108243
31
0.00556156
12
0.00663104
22
-0.103146
32
0.000728872
13
0.00663104
23
-0.103146
33
0.000728872
0
3DFACE
8
GOLF_PUTTER
62
3
10
0.0077207
20
-0.107294
30
0.00616341
11
0.00663104
21
-0.108243
31
0.00556156
12
0.0077207
22
-0.102669
32
0.00177803
13
0.0077207
23
-0.102669
33
0.00177803
0
3DFACE
8
GOLF_PUTTER
62
3
10
0.0077207
20
-0.107294
30
0.00616341
11
0.00663104
21
-0.110572
31
0.0126289
12
0.00663104
22
-0.108243
32
0.00556156
13
0.00663104
23
-0.108243
33
0.00556156
0
3DFACE
8
GOLF_PUTTER
62
3
10
0.0077207
20
-0.109457
30
0.0127264
11
0.00663104
21
-0.110572
31
0.0126289
12
0.0077207
22
-0.107294
32
0.00616341
13
0.0077207
23
-0.107294
33
0.00616341
0
3DFACE
8
GOLF_PUTTER
62
3
10
0.0077207
20
-0.109457
30
0.0127264
11
0.0077207
21
-0.108467
31
0.0195608
12
0.00663104
22
-0.110572
32
0.0126289
13
0.00663104
23
-0.110572
33
0.0126289
0
3DFACE
8
GOLF_PUTTER
62
3
10
0.0077207
20
-0.108467
30
0.0195608
11
0.00663104
21
-0.109505
31
0.0199894
12
0.00663104
22
-0.110572
32
0.0126289
13
0.00663104
23
-0.110572
33
0.0126289
0
3DFACE
8
GOLF_PUTTER
62
3
10
0.0077207
20
-0.104636
30
0.0247207
11
0.00663104
21
-0.109505
31
0.0199894
12
0.0077207
22
-0.108467
32
0.0195608
13
0.0077207
23
-0.108467
33
0.0195608
0
3DFACE
8
GOLF_PUTTER
62
3
10
0.0077207
20
-0.104636
30
0.0247207
11
0.00663104
21
-0.105324
31
0.0256228
12
0.00663104
22
-0.109505
32
0.0199894
13
0.00663104
23
-0.109505
33
0.0199894
0
3DFACE
8
GOLF_PUTTER
62
3
10
0.00663104
20
0.0223306
30
0.0466857
11
0.0023114
21
0.0182843
31
0.0460639
12
0.00326881
22
0.0175857
32
0.0459566
13
0.00326881
23
0.0175857
33
0.0459566
0
3DFACE
8
GOLF_PUTTER
62
3
10
0.00663104
20
0.0223306
30
0.0466857
11
-0.00663104
21
0.0223306
31
0.0466857
12
0.0023114
22
0.0182843
32
0.0460639
13
0.0023114
23
0.0182843
33
0.0460639
0
3DFACE
8
GOLF_PUTTER
62
3
10
0.00663104
20
0.0223306
30
0.0466857
11
0.00326881
21
0.0175857
31
0.0459566
12
0.00400346
22
0.0166751
32
0.0458167
13
0.00400346
23
0.0166751
33
0.0458167
0
3DFACE
8
GOLF_PUTTER
62
3
10
0.00663104
20
0.0223306
30
0.0466857
11
0.00400346
21
0.0166751
31
0.0458167
12
0.00446528
22
0.0156148
32
0.0456538
13
0.00446528
23
0.0156148
33
0.0456538
0
3DFACE
8
GOLF_PUTTER
62
3
10
0.00663104
20
0.0223306
30
0.0466857
11
-0.00663104
21
-0.0991482
31
0.0280197
12
0.00663104
22
-0.0991482
32
0.0280197
13
0.00663104
23
-0.0991482
33
0.0280197
0
3DFACE
8
GOLF_PUTTER
62
3
10
0.00663104
20
0.0223306
30
0.0466857
11
0.00446528
21
0.0156148
31
0.0456538
12
0.0046228
22
0.0144769
32
0.0454789
13
0.0046228
23
0.0144769
33
0.0454789
0
3DFACE
8
GOLF_PUTTER
62
3
10
0.00663104
20
0.0223306
30
0.0466857
11
0.0046228
21
0.0144769
31
0.0454789
12
0.00446528
22
0.0133391
32
0.0453041
13
0.00446528
23
0.0133391
33
0.0453041
0
3DFACE
8
GOLF_PUTTER
62
3
10
0.00663104
20
0.0223306
30
0.0466857
11
0.00446528
21
0.0133391
31
0.0453041
12
-0.00663104
22
-0.0991482
32
0.0280197
13
-0.00663104
23
-0.0991482
33
0.0280197
0
3DFACE
8
GOLF_PUTTER
62
3
10
-0.00663104
20
0.0223306
30
0.0466857
11
0.00119647
21
0.0187235
31
0.0461314
12
0.0023114
22
0.0182843
32
0.0460639
13
0.0023114
23
0.0182843
33
0.0460639
0
3DFACE
8
GOLF_PUTTER
62
3
10
-0.00663104
20
0.0223306
30
0.0466857
11
-2.61934e-010
21
0.0188733
31
0.0461545
12
0.00119647
22
0.0187235
32
0.0461314
13
0.00119647
23
0.0187235
33
0.0461314
0
3DFACE
8
GOLF_PUTTER
62
3
10
-2.61934e-010
20
0.0188733
30
0.0461545
11
-0.00663104
21
0.0223306
31
0.0466857
12
-0.00119647
22
0.0187235
32
0.0461314
13
-0.00119647
23
0.0187235
33
0.0461314
0
3DFACE
8
GOLF_PUTTER
62
3
10
-0.00119647
20
0.0187235
30
0.0461314
11
-0.00663104
21
0.0223306
31
0.0466857
12
-0.0023114
22
0.0182843
32
0.0460639
13
-0.0023114
23
0.0182843
33
0.0460639
0
3DFACE
8
GOLF_PUTTER
62
3
10
-0.0023114
20
0.0182843
30
0.0460639
11
-0.00663104
21
0.0223306
31
0.0466857
12
-0.00326881
22
0.0175857
32
0.0459566
13
-0.00326881
23
0.0175857
33
0.0459566
0
3DFACE
8
GOLF_PUTTER
62
3
10
-0.00326881
20
0.0175857
30
0.0459566
11
-0.00663104
21
0.0223306
31
0.0466857
12
-0.00400346
22
0.0166751
32
0.0458167
13
-0.00400346
23
0.0166751
33
0.0458167
0
3DFACE
8
GOLF_PUTTER
62
3
10
-0.00400346
20
0.0166751
30
0.0458167
11
-0.00663104
21
0.0223306
31
0.0466857
12
-0.00446528
22
0.0156148
32
0.0456538
13
-0.00446528
23
0.0156148
33
0.0456538
0
3DFACE
8
GOLF_PUTTER
62
3
10
-0.00446528
20
0.0156148
30
0.0456538
11
-0.00663104
21
0.0223306
31
0.0466857
12
-0.0046228
22
0.0144769
32
0.0454789
13
-0.0046228
23
0.0144769
33
0.0454789
0
3DFACE
8
GOLF_PUTTER
62
3
10
-0.0046228
20
0.0144769
30
0.0454789
11
-0.00663104
21
0.0223306
31
0.0466857
12
-0.00663104
22
-0.0991482
32
0.0280197
13
-0.00663104
23
-0.0991482
33
0.0280197
0
3DFACE
8
GOLF_PUTTER
62
3
10
0.00446528
20
0.0133391
30
0.0453041
11
0.00400346
21
0.0122787
31
0.0451411
12
-0.00663104
22
-0.0991482
32
0.0280197
13
-0.00663104
23
-0.0991482
33
0.0280197
0
3DFACE
8
GOLF_PUTTER
62
3
10
0.00400346
20
0.0122787
30
0.0451411
11
0.00326881
21
0.0113682
31
0.0450012
12
-0.00663104
22
-0.0991482
32
0.0280197
13
-0.00663104
23
-0.0991482
33
0.0280197
0
3DFACE
8
GOLF_PUTTER
62
3
10
0.00326881
20
0.0113682
30
0.0450012
11
0.0023114
21
0.0106695
31
0.0448939
12
-0.00663104
22
-0.0991482
32
0.0280197
13
-0.00663104
23
-0.0991482
33
0.0280197
0
3DFACE
8
GOLF_PUTTER
62
3
10
0.0023114
20
0.0106695
30
0.0448939
11
0.00119647
21
0.0102303
31
0.0448264
12
-0.00663104
22
-0.0991482
32
0.0280197
13
-0.00663104
23
-0.0991482
33
0.0280197
0
3DFACE
8
GOLF_PUTTER
62
3
10
0.00119647
20
0.0102303
30
0.0448264
11
-2.61934e-010
21
0.0100805
31
0.0448034
12
-0.00663104
22
-0.0991482
32
0.0280197
13
-0.00663104
23
-0.0991482
33
0.0280197
0
3DFACE
8
GOLF_PUTTER
62
3
10
-2.61934e-010
20
0.0100805
30
0.0448034
11
-0.00119647
21
0.0102303
31
0.0448264
12
-0.00663104
22
-0.0991482
32
0.0280197
13
-0.00663104
23
-0.0991482
33
0.0280197
0
3DFACE
8
GOLF_PUTTER
62
3
10
-0.00119647
20
0.0102303
30
0.0448264
11
-0.0023114
21
0.0106695
31
0.0448939
12
-0.00663104
22
-0.0991482
32
0.0280197
13
-0.00663104
23
-0.0991482
33
0.0280197
0
3DFACE
8
GOLF_PUTTER
62
3
10
-0.0023114
20
0.0106695
30
0.0448939
11
-0.00326881
21
0.0113682
31
0.0450012
12
-0.00663104
22
-0.0991482
32
0.0280197
13
-0.00663104
23
-0.0991482
33
0.0280197
0
3DFACE
8
GOLF_PUTTER
62
3
10
-0.00326881
20
0.0113682
30
0.0450012
11
-0.00400346
21
0.0122787
31
0.0451411
12
-0.00663104
22
-0.0991482
32
0.0280197
13
-0.00663104
23
-0.0991482
33
0.0280197
0
3DFACE
8
GOLF_PUTTER
62
3
10
-0.00446528
20
0.0133391
30
0.0453041
11
-0.0046228
21
0.0144769
31
0.0454789
12
-0.00663104
22
-0.0991482
32
0.0280197
13
-0.00663104
23
-0.0991482
33
0.0280197
0
3DFACE
8
GOLF_PUTTER
62
3
10
-0.00400346
20
0.0122787
30
0.0451411
11
-0.00446528
21
0.0133391
31
0.0453041
12
-0.00663104
22
-0.0991482
32
0.0280197
13
-0.00663104
23
-0.0991482
33
0.0280197
0
ENDSEC
0
EOF
